{"glyphs":{"0":{"ha":747,"x_min":16,"x_max":729,"o":"m 727 142 l 727 163 q 728 194 727 177 q 729 222 729 212 l 729 247 q 689 497 729 378 q 581 706 649 616 q 422 848 512 795 q 231 901 332 901 q 162 878 200 901 q 92 817 125 854 q 37 732 59 780 q 16 637 16 684 q 30 523 16 583 q 69 402 45 462 q 126 285 94 342 q 195 178 158 227 q 271 89 233 128 q 345 28 309 50 q 385 12 363 17 q 428 3 406 7 q 472 -1 450 0 q 512 -2 495 -2 q 581 4 552 -2 q 634 26 609 10 q 681 70 658 42 q 727 142 703 99 m 514 467 q 513 368 514 413 q 505 288 512 323 q 482 233 498 253 q 434 212 465 212 q 393 218 417 210 q 346 238 370 226 q 302 262 323 250 q 273 283 281 274 q 251 321 264 292 q 226 389 238 351 q 206 469 214 427 q 198 545 198 510 q 214 652 198 615 q 257 704 229 689 q 322 715 285 719 q 401 700 359 712 q 458 671 436 689 q 493 624 481 653 q 510 556 505 595 q 514 467 514 517 z "},"1":{"ha":451,"x_min":17,"x_max":434,"o":"m 326 852 l 330 738 q 331 665 330 717 q 332 554 332 613 q 331 444 332 497 q 330 372 330 392 q 325 327 330 358 q 319 241 319 297 q 332 189 319 201 q 366 169 345 177 q 407 160 387 161 q 434 158 427 158 q 372 89 410 118 q 291 39 335 59 q 201 9 247 19 q 113 -2 155 -2 q 94 1 108 -2 q 66 3 80 3 q 36 4 50 3 q 17 5 23 5 q 56 69 31 45 q 107 115 82 94 q 153 157 132 135 q 181 208 174 179 q 174 437 177 326 q 174 660 170 547 q 145 691 163 681 q 106 710 127 701 q 65 728 85 719 q 35 757 45 738 q 71 802 56 778 q 103 847 87 826 q 140 882 120 868 q 191 896 160 896 q 278 878 238 896 q 326 852 321 861 z "},"2":{"ha":885,"x_min":24,"x_max":870,"o":"m 87 819 q 134 733 24 720 q 223 740 188 738 q 274 741 259 741 q 393 756 333 741 q 510 786 453 771 q 627 726 550 797 q 684 604 705 656 q 629 524 667 552 q 538 490 592 497 q 484 485 512 488 q 427 484 457 483 q 347 478 389 486 q 266 455 306 470 q 189 416 226 439 q 123 365 153 392 q 49 163 52 293 q 80 21 45 31 q 135 12 99 16 q 229 6 170 9 q 323 2 288 3 q 373 0 358 0 q 486 12 432 0 q 593 39 540 24 q 701 66 646 54 q 816 76 755 78 q 817 81 816 78 q 818 87 818 83 q 799 126 818 108 q 755 157 781 144 q 701 177 729 170 q 655 184 672 184 l 384 170 q 318 176 349 167 q 266 186 286 186 q 238 186 245 189 q 230 176 231 182 q 232 168 229 170 q 234 170 234 165 q 256 207 234 184 q 311 253 278 231 q 380 290 344 274 q 448 306 417 306 q 474 311 453 306 q 519 322 495 316 q 564 332 543 328 q 590 337 585 337 q 674 340 627 337 q 766 359 722 344 q 839 403 809 373 q 870 484 870 432 q 852 559 870 523 q 806 628 833 595 q 778 660 792 644 q 748 690 764 675 q 714 727 733 705 q 670 780 694 748 q 503 892 622 842 l 243 892 q 234 885 241 892 q 219 878 233 882 q 186 865 205 873 q 141 847 167 858 q 87 819 115 837 z "},"3":{"ha":816,"x_min":16,"x_max":778,"o":"m 552 693 q 451 760 491 733 q 389 800 411 788 q 316 861 351 823 l 35 878 q 18 865 21 880 q 16 844 16 851 q 29 813 16 826 q 61 786 42 799 q 98 763 80 774 q 128 738 116 752 q 184 734 144 736 q 268 728 224 731 q 352 723 313 726 q 410 720 392 720 l 422 720 l 429 720 q 451 714 432 722 q 510 675 470 707 q 552 623 550 642 q 553 601 552 613 q 554 573 554 589 q 551 530 554 547 q 517 512 549 512 q 391 522 451 512 q 262 531 330 531 l 238 531 q 201 530 220 531 q 165 530 181 530 l 141 530 q 190 455 155 479 q 273 420 226 431 q 369 405 319 410 q 460 392 418 401 q 528 364 502 384 q 554 300 554 344 q 552 264 554 281 q 533 231 550 247 q 505 215 526 226 q 460 193 484 205 q 414 171 436 181 q 384 160 392 161 q 366 159 382 160 q 340 158 351 158 q 231 173 285 158 q 122 194 177 188 q 110 188 118 194 q 102 177 102 181 q 109 160 102 177 q 122 142 118 148 q 135 128 125 137 q 169 95 149 113 q 196 71 189 78 q 283 38 245 52 q 357 15 321 24 q 427 1 392 5 q 505 -3 462 -3 q 618 20 568 -3 q 704 83 668 43 q 759 174 740 123 q 778 283 778 226 q 772 319 778 295 q 755 372 766 342 q 729 435 745 401 q 696 502 714 469 q 659 566 679 536 q 619 619 639 595 q 582 661 599 642 q 552 693 564 679 z "},"4":{"ha":833,"x_min":16,"x_max":747,"o":"m 656 83 l 658 106 q 640 226 658 163 q 622 351 622 288 q 634 470 622 415 q 675 583 646 524 q 696 611 684 597 q 720 640 708 625 q 740 670 733 655 q 747 705 747 686 q 733 738 747 722 q 699 766 719 753 q 657 786 679 778 q 622 793 635 793 q 574 773 595 793 q 534 722 552 753 q 502 653 516 691 q 478 578 488 615 q 462 510 469 542 q 450 462 455 479 l 431 462 q 402 461 417 462 q 373 460 387 460 l 354 460 l 330 460 q 299 461 314 460 q 273 462 283 462 l 259 462 q 244 464 253 462 q 227 470 234 467 q 213 475 219 472 q 207 479 207 477 l 207 809 q 194 840 207 825 q 165 867 182 856 q 130 886 148 878 q 102 896 113 894 q 70 887 83 899 q 49 856 57 875 q 36 819 40 837 q 33 792 33 800 q 29 730 31 774 q 23 635 26 686 q 17 541 19 585 q 16 479 16 497 q 127 344 17 363 q 224 329 181 333 q 300 325 267 325 l 339 325 q 407 320 372 325 q 467 306 443 316 q 504 268 490 295 q 530 207 519 241 q 549 134 540 172 q 573 64 559 95 q 607 12 587 33 q 658 -9 627 -9 q 668 -8 661 -9 q 675 -7 674 -7 q 672 3 674 -3 q 667 19 670 10 q 659 51 661 40 q 656 83 656 63 z "},"5":{"ha":885,"x_min":16,"x_max":870,"o":"m 189 66 q 215 129 189 108 q 274 151 241 151 q 353 142 314 151 q 432 125 392 134 q 470 116 451 122 q 510 106 490 111 q 627 165 549 95 q 684 288 703 236 q 609 379 663 352 q 485 410 556 406 q 334 404 415 413 q 174 389 253 394 q 138 399 163 392 q 86 417 113 406 q 37 444 59 427 q 16 483 16 460 q 33 556 16 516 q 49 729 52 601 q 80 872 45 861 q 229 887 116 882 q 323 891 288 891 q 373 892 358 892 q 486 879 432 892 q 593 852 540 866 q 701 826 646 837 q 816 816 755 814 q 817 812 816 814 q 818 806 818 809 q 798 763 818 785 q 749 724 778 741 q 691 696 720 707 q 642 686 661 686 l 365 701 q 308 706 330 705 q 266 707 286 707 q 188 715 191 743 q 185 688 186 701 q 181 663 184 675 q 179 639 179 649 q 178 621 179 628 q 173 606 177 613 q 156 594 168 599 q 209 579 184 589 q 260 560 234 569 q 312 543 285 550 q 372 536 339 536 q 388 537 378 536 q 406 538 398 538 q 424 538 417 538 q 434 538 432 538 q 464 542 441 538 q 512 548 486 545 q 562 553 538 550 q 590 556 585 556 q 674 552 627 556 q 766 534 722 549 q 839 490 809 519 q 870 408 870 460 q 852 333 870 370 q 806 264 833 297 q 778 232 792 247 q 748 201 764 217 q 714 165 733 188 q 670 113 694 142 q 503 0 622 52 l 243 0 q 236 7 243 0 q 220 23 229 14 q 204 41 212 31 q 191 56 196 50 q 190 60 191 56 q 189 66 189 64 z "},"6":{"ha":677,"x_min":16,"x_max":660,"o":"m 188 321 q 212 226 188 262 q 273 169 236 189 q 353 142 309 149 q 438 135 398 135 q 465 137 446 135 q 486 139 484 139 l 503 158 q 505 188 505 160 q 507 212 507 201 q 507 229 507 222 q 506 273 507 240 q 498 339 505 306 q 477 400 491 373 q 434 427 462 427 l 243 427 q 213 415 224 427 q 196 386 201 403 q 189 352 191 370 q 188 321 188 333 m 363 795 q 378 832 363 816 q 417 860 394 849 q 464 877 439 872 q 503 882 488 882 l 528 882 q 568 874 549 882 q 590 840 587 866 q 587 804 594 821 q 567 773 580 786 q 537 753 554 760 q 505 745 521 745 q 492 744 502 745 q 475 745 483 743 q 460 751 467 747 q 451 766 453 755 q 434 747 448 748 q 408 745 420 745 q 373 747 378 745 q 274 649 365 747 q 177 540 182 554 q 174 523 174 528 q 188 487 174 491 q 224 483 203 483 q 293 498 259 483 q 360 533 326 514 q 431 567 394 552 q 507 582 467 582 q 566 575 538 582 q 615 552 594 568 q 648 511 635 536 q 660 450 660 486 q 657 398 660 432 q 649 327 655 365 q 638 256 644 290 q 625 205 632 222 q 614 187 623 203 q 585 141 604 170 q 490 57 547 80 q 439 35 462 45 q 398 16 417 24 q 306 -2 359 -2 q 94 70 172 -2 q 16 290 16 142 q 31 384 16 332 q 71 490 47 436 q 125 589 94 545 q 205 688 156 634 q 363 795 285 755 z "},"7":{"ha":906,"x_min":0,"x_max":868,"o":"m 330 19 q 498 391 299 132 q 698 681 698 651 q 685 725 698 710 q 651 747 672 740 q 602 754 630 753 q 545 755 575 755 q 533 755 540 755 q 519 753 526 755 q 490 748 503 753 q 447 743 481 747 q 351 733 413 740 q 142 663 163 681 q 120 645 132 655 q 95 623 108 635 q 49 579 73 601 q 0 549 24 557 q 108 703 33 637 q 276 813 182 769 q 473 878 370 858 q 668 899 576 899 q 720 897 686 899 q 786 885 753 894 q 844 856 819 875 q 868 807 868 837 q 859 764 868 783 q 840 726 851 745 q 822 688 830 707 q 814 648 814 670 q 446 19 467 35 q 417 0 425 3 l 389 0 q 358 3 370 0 q 330 19 345 5 z "},"8":{"ha":705,"x_min":33,"x_max":684,"o":"m 523 580 q 499 675 523 639 q 438 732 476 712 q 357 759 401 752 q 273 766 313 766 q 245 764 264 766 q 224 762 226 762 l 207 743 q 205 712 207 743 q 203 689 203 698 q 203 672 203 679 q 203 656 203 667 q 205 628 203 644 q 217 582 205 595 q 243 549 229 569 q 292 507 257 528 q 375 490 340 486 q 455 503 410 493 q 510 540 502 514 q 523 580 523 569 m 590 464 l 595 450 q 658 356 634 425 q 677 253 684 288 q 669 223 672 236 q 663 200 667 210 q 652 181 663 198 q 622 135 641 165 q 531 45 582 76 q 437 3 483 14 q 335 -9 391 -9 q 121 64 201 -9 q 40 286 40 137 q 142 427 40 328 q 52 530 75 462 q 36 588 40 563 q 35 631 33 613 q 40 661 36 649 q 45 682 43 674 q 56 700 47 684 q 87 747 66 715 q 177 837 125 806 q 273 878 226 868 q 373 889 319 889 q 588 817 507 889 q 668 595 668 745 q 644 519 668 554 q 590 464 620 484 m 181 293 q 203 195 181 233 q 261 137 226 158 q 339 109 297 116 q 420 102 382 102 q 447 105 429 102 q 467 108 465 108 l 483 127 q 486 156 483 127 q 488 182 488 172 q 488 200 488 193 q 488 215 488 205 q 486 243 488 226 q 474 290 484 274 q 448 326 462 304 q 401 368 434 347 q 309 392 332 389 q 240 385 286 398 q 189 359 194 375 q 182 325 184 344 q 181 293 181 306 z "},"9":{"ha":677,"x_min":16,"x_max":660,"o":"m 488 559 q 464 655 488 618 q 404 711 441 691 q 322 738 366 731 q 238 745 278 745 q 210 743 229 745 q 189 741 191 741 l 172 722 q 170 691 172 722 q 168 668 168 677 q 168 651 168 658 q 169 608 168 641 q 177 541 170 575 q 199 480 184 507 q 241 453 214 453 l 432 453 q 463 465 451 453 q 479 494 474 477 q 486 529 484 510 q 488 559 488 547 m 313 85 q 297 48 313 64 q 259 21 281 31 q 213 4 236 10 q 172 -2 189 -2 l 148 -2 q 110 6 128 -2 q 85 40 92 14 q 89 76 82 59 q 109 108 95 94 q 138 128 122 122 q 170 135 155 135 q 184 135 175 135 q 200 135 191 135 q 215 129 208 134 q 224 115 222 125 q 241 134 227 132 q 267 135 255 135 q 302 135 295 135 q 401 229 311 134 q 497 339 493 328 q 502 358 502 352 q 487 393 502 389 q 451 398 472 398 q 383 382 417 398 q 315 348 349 366 q 244 314 281 330 q 168 299 207 299 q 61 328 108 299 q 16 431 16 358 q 18 483 16 448 q 26 554 21 517 q 37 624 31 590 q 50 675 43 658 q 62 693 52 677 q 90 740 71 708 q 184 823 132 802 q 236 847 214 837 q 280 865 259 858 q 322 877 300 872 q 370 882 344 882 q 582 810 503 882 q 660 590 660 738 q 644 497 660 549 q 606 389 628 444 q 550 291 582 335 q 470 193 519 247 q 313 85 392 127 z "}," ":{"ha":556,"x_min":0,"x_max":0,"o":""},"!":{"ha":278,"x_min":16,"x_max":274,"o":"m 17 434 q 22 392 17 420 q 36 338 26 365 q 65 291 47 311 q 113 271 83 271 q 118 272 115 271 q 122 273 122 273 q 140 294 127 278 q 156 316 153 311 q 162 385 158 337 q 172 489 167 434 q 182 590 177 543 q 191 656 188 637 q 201 704 194 682 q 214 745 207 726 q 225 785 220 764 q 238 806 229 806 q 260 814 245 806 q 274 828 274 814 q 262 854 274 842 l 245 863 q 230 870 234 868 q 226 872 226 872 l 87 925 q 79 920 85 925 q 69 913 73 915 q 51 861 59 899 q 37 774 43 823 q 28 672 31 726 q 22 570 24 618 q 18 485 19 523 q 17 434 17 448 m 16 61 q 30 105 16 82 q 69 148 45 128 q 118 179 92 167 q 165 191 144 191 q 202 178 194 191 q 210 141 210 165 q 200 93 210 118 q 172 47 189 68 q 132 12 155 26 q 85 -2 109 -2 q 65 1 73 -2 q 50 10 57 3 q 36 28 43 17 q 17 52 30 38 q 16 55 17 52 q 16 61 16 57 z "},"\"":{"ha":531,"x_min":17,"x_max":491,"o":"m 281 774 q 303 813 281 795 q 352 847 325 832 q 407 874 380 863 q 443 896 434 885 l 491 844 l 491 670 q 477 633 491 655 q 440 592 462 611 q 395 560 418 573 q 354 547 372 547 q 342 548 351 547 q 330 549 333 549 q 328 576 330 557 q 323 618 326 595 q 317 660 319 641 q 313 688 314 679 q 307 704 313 691 q 297 731 302 717 q 286 758 292 745 q 281 774 281 771 m 17 767 q 39 806 17 788 q 89 840 61 825 q 143 867 116 856 q 179 889 170 878 l 227 837 l 227 663 q 213 626 227 648 q 176 585 198 604 q 131 553 155 566 q 90 540 108 540 q 78 541 87 540 q 66 542 69 542 q 64 569 66 550 q 59 611 63 589 q 53 653 56 634 q 49 681 50 672 q 43 697 49 684 q 33 724 38 710 q 23 751 28 738 q 17 767 17 764 z "},"#":{"ha":865,"x_min":3,"x_max":835,"o":"m 3 517 q 22 532 3 528 q 54 545 40 536 q 101 569 76 559 q 142 587 125 580 q 137 609 139 597 q 134 632 135 622 q 129 649 132 642 q 122 656 127 656 q 99 663 120 656 q 85 681 85 663 q 97 714 85 698 l 273 802 q 280 795 274 802 q 290 785 286 788 q 309 712 302 766 q 323 587 316 658 l 497 587 q 491 611 493 599 q 476 660 490 623 q 453 668 469 660 q 439 684 439 668 q 451 719 439 703 q 635 800 628 807 q 640 794 637 797 q 644 788 642 792 q 664 714 656 769 q 677 587 672 658 l 688 587 q 771 580 733 587 q 835 531 802 573 q 826 501 828 507 q 819 496 823 495 q 813 500 816 497 q 800 497 809 503 q 773 481 786 488 q 738 467 759 474 l 686 465 q 690 395 689 429 q 693 330 691 361 q 736 328 717 330 q 771 323 755 326 q 835 274 802 316 q 800 240 830 252 q 773 224 786 231 q 738 210 759 217 l 696 208 l 696 203 q 692 152 696 184 q 677 87 688 120 q 648 30 667 54 q 601 7 630 7 q 552 120 552 80 q 549 161 550 139 q 545 207 547 184 l 342 203 l 342 198 q 338 148 342 181 q 323 83 333 115 q 294 28 313 52 q 247 3 276 3 l 238 3 q 198 113 198 75 q 195 155 196 132 q 191 200 194 177 l 90 198 q 45 212 59 198 l 3 253 l 3 260 q 7 274 3 271 q 21 278 10 274 q 54 288 31 281 q 115 319 83 307 q 163 332 148 332 l 182 332 q 176 404 179 372 q 170 457 174 436 l 90 455 q 45 469 59 455 l 3 510 l 3 517 m 332 460 q 336 392 335 425 q 339 330 337 359 l 538 330 q 530 406 535 372 q 524 462 526 441 l 332 460 z "},"$":{"ha":885,"x_min":16,"x_max":870,"o":"m 696 774 q 670 714 696 734 q 611 694 644 694 q 533 703 571 694 q 519 455 497 714 q 634 465 587 462 q 712 470 681 469 q 748 463 722 469 q 801 446 774 457 q 849 420 828 436 q 870 384 870 405 q 859 334 870 363 q 831 274 849 306 q 788 210 813 243 q 736 147 764 177 q 679 89 708 116 q 619 43 649 63 q 560 12 589 23 q 503 3 531 2 l 497 -87 l 420 -94 l 413 10 q 322 30 365 19 q 239 51 280 42 q 157 67 198 61 q 69 71 116 73 q 69 76 69 73 q 68 80 68 78 q 88 122 68 101 q 136 158 108 142 q 194 183 165 174 q 243 193 224 193 l 420 177 l 420 323 q 360 319 384 321 q 323 317 337 318 q 303 315 309 316 q 295 314 297 314 q 212 318 260 314 q 120 335 163 321 q 46 377 76 349 q 16 453 16 405 q 34 523 16 490 q 80 587 52 557 q 108 617 94 602 q 135 646 122 632 q 215 729 167 672 q 382 835 266 788 l 427 851 l 427 927 l 503 927 l 510 837 l 642 835 q 674 806 663 819 q 694 783 684 793 q 695 780 694 783 q 696 774 696 776 m 420 726 q 406 730 418 727 q 375 738 394 733 q 259 681 337 747 q 200 566 181 615 q 255 491 219 521 q 319 462 292 465 q 359 458 333 460 q 420 455 384 457 l 420 726 m 510 177 q 577 174 556 175 q 620 174 599 174 q 668 186 655 174 q 687 215 681 198 q 700 251 693 233 q 729 280 707 269 q 676 293 701 285 q 626 312 651 302 q 574 327 601 321 q 514 333 547 333 q 510 177 502 333 z "},"%":{"ha":1066,"x_min":7,"x_max":1017,"o":"m 241 90 l 240 113 l 589 663 l 691 816 q 703 847 691 832 q 733 874 715 863 q 767 893 750 885 q 795 903 785 901 q 826 894 813 906 q 847 863 839 882 q 860 826 856 844 q 865 799 865 807 q 597 429 856 757 q 399 175 467 266 q 325 69 332 85 q 291 18 311 38 q 240 -2 271 -2 q 230 -1 236 -2 q 222 0 224 0 q 226 10 224 3 q 229 26 227 17 q 239 58 236 47 q 241 90 241 69 m 363 517 q 315 461 337 474 q 253 448 293 448 q 213 449 236 448 q 170 462 189 450 q 114 511 142 477 q 62 589 85 545 q 23 679 38 632 q 7 767 7 726 q 18 813 7 788 q 45 855 30 837 q 80 886 61 873 q 115 899 99 899 q 208 872 163 899 q 288 799 253 844 q 343 694 323 753 q 363 573 363 635 l 363 559 l 363 531 l 363 517 m 257 681 q 247 760 257 733 q 198 797 236 788 q 159 805 177 802 q 128 799 141 807 q 106 773 115 792 q 97 719 97 753 q 102 683 97 703 q 114 643 108 663 q 126 609 120 623 q 135 589 132 594 q 171 567 146 582 q 215 552 196 552 q 248 576 240 556 q 257 630 257 595 l 257 681 m 1017 80 q 970 22 991 35 q 908 9 948 9 q 867 10 891 9 q 825 23 844 10 q 768 73 797 38 q 715 150 740 108 q 676 240 691 193 q 661 328 661 286 q 673 374 661 351 q 700 416 684 398 q 734 447 715 434 q 767 460 753 460 q 863 433 818 460 q 942 361 908 406 q 997 257 976 316 q 1017 134 1017 198 l 1017 120 l 1017 92 l 1017 80 m 911 241 q 901 322 911 295 q 852 358 891 349 q 813 366 832 365 q 781 360 795 368 q 760 334 767 352 q 752 281 752 316 q 756 244 752 264 q 767 204 760 224 q 780 169 774 184 q 788 149 786 155 q 826 128 800 142 q 870 115 851 115 q 903 136 894 116 q 911 191 911 156 l 911 241 z "},"&":{"ha":882,"x_min":10,"x_max":856,"o":"m 10 184 q 28 282 10 227 q 73 391 45 337 q 137 495 101 446 q 212 573 174 543 l 207 590 q 206 591 207 590 q 205 594 205 592 l 174 622 q 169 644 170 641 q 168 649 168 648 q 198 718 170 684 q 264 778 226 752 q 344 820 302 804 q 413 837 385 837 l 427 837 q 479 826 453 837 q 505 783 505 816 q 479 722 505 743 q 418 693 453 701 q 397 689 406 691 q 380 686 387 688 q 357 650 365 684 q 358 608 349 616 q 394 612 382 609 q 432 622 406 615 q 490 638 467 632 q 514 623 514 644 q 502 582 514 601 q 470 545 490 563 q 424 511 450 528 q 368 476 398 495 q 304 436 337 457 q 243 391 271 415 q 198 339 215 366 q 181 278 181 311 q 198 220 181 243 q 242 184 215 198 q 303 165 269 170 q 366 160 337 160 q 420 166 385 160 q 490 183 455 172 q 555 211 524 194 q 595 248 585 227 q 587 253 590 252 q 582 255 583 253 q 570 258 578 257 q 556 260 563 259 l 557 260 q 520 270 540 266 q 475 286 500 274 q 448 301 450 297 q 446 316 446 306 l 446 319 q 455 351 446 337 q 477 375 464 365 q 503 391 490 385 q 524 399 517 398 l 536 399 q 583 398 561 399 q 622 398 606 398 q 661 398 644 398 q 696 399 679 399 l 701 399 q 771 402 726 401 q 856 403 816 403 q 850 339 856 363 q 835 302 844 316 q 826 292 830 295 q 813 285 821 288 q 793 276 806 281 q 759 262 780 271 q 756 252 759 260 q 750 240 753 243 q 668 161 722 203 q 548 82 613 118 q 418 23 483 47 q 302 0 352 0 q 214 7 264 0 q 118 34 163 14 q 42 90 73 54 q 10 184 10 127 z "},"'":{"ha":260,"x_min":17,"x_max":227,"o":"m 17 767 q 39 806 17 788 q 89 840 61 825 q 143 867 116 856 q 179 889 170 878 l 227 837 l 227 663 q 213 626 227 648 q 176 585 198 604 q 131 553 155 566 q 90 540 108 540 q 78 541 87 540 q 66 542 69 542 q 64 569 66 550 q 59 611 63 589 q 53 653 56 634 q 49 681 50 672 q 43 697 49 684 q 33 724 38 710 q 23 751 28 738 q 17 767 17 764 z "},"(":{"ha":486,"x_min":17,"x_max":453,"o":"m 274 743 q 315 786 297 766 q 354 825 333 806 q 399 859 377 844 q 434 887 422 875 l 453 887 q 438 840 446 865 q 420 786 429 816 q 370 726 403 729 q 253 597 337 726 q 177 399 170 470 q 214 274 184 333 q 280 161 245 215 q 344 80 316 108 l 420 80 q 410 -36 441 -31 q 347 -45 378 -40 q 278 -50 316 -50 q 180 -27 219 -50 q 111 36 141 -3 q 60 130 82 76 q 17 245 38 184 l 17 255 q 29 318 17 280 q 52 403 40 356 q 111 526 68 453 q 274 743 158 606 z "},")":{"ha":486,"x_min":17,"x_max":453,"o":"m 196 743 q 155 786 174 766 q 115 825 137 806 q 71 859 94 844 q 36 887 49 875 l 17 887 q 33 840 24 865 q 50 786 42 816 q 101 726 68 729 q 217 597 134 726 q 293 399 300 470 q 255 274 288 332 q 190 161 226 215 q 127 80 155 108 l 50 80 q 59 -36 30 -31 q 123 -45 92 -40 q 193 -50 155 -50 q 291 -27 252 -50 q 359 36 330 -3 q 411 130 389 76 q 453 245 432 184 l 453 255 q 442 318 453 280 q 417 403 431 356 q 358 526 405 451 q 196 743 314 602 z "},"*":{"ha":550,"x_min":24,"x_max":498,"o":"m 205 885 q 221 891 215 885 q 232 907 227 898 q 240 928 236 917 q 252 951 245 939 q 275 996 266 976 q 288 1016 285 1016 q 310 1010 302 1016 q 324 995 318 1003 q 333 976 330 986 q 344 955 337 965 q 352 905 354 936 q 349 842 349 875 q 498 759 441 818 l 497 736 q 445 744 469 736 q 392 752 422 752 q 365 751 385 752 q 337 750 344 750 q 316 724 323 740 q 306 690 309 708 q 299 654 302 672 q 288 620 295 635 q 232 686 259 653 q 170 750 205 719 q 124 744 151 747 q 73 747 97 741 q 61 749 66 748 q 50 750 56 750 q 30 755 35 750 q 31 781 24 760 q 104 825 68 809 l 127 830 l 99 880 l 35 986 l 73 986 l 132 955 q 163 929 151 939 q 179 915 175 918 q 205 885 188 908 z "},"+":{"ha":490,"x_min":16,"x_max":460,"o":"m 16 359 l 16 351 q 39 326 30 337 q 56 309 49 316 q 101 297 69 297 l 170 302 l 184 184 q 288 198 262 156 l 302 309 q 354 316 337 313 q 382 323 372 319 q 398 331 392 326 q 410 340 403 335 q 436 368 425 351 q 460 434 446 385 q 396 483 427 476 q 359 488 380 486 q 311 490 339 490 l 288 622 q 191 615 212 656 l 170 490 q 126 477 142 490 q 80 446 109 465 q 34 404 52 427 q 16 359 16 380 z "},",":{"ha":226,"x_min":16,"x_max":193,"o":"m 16 73 q 30 118 16 95 q 65 157 43 141 q 114 184 87 174 q 167 194 141 194 q 188 176 184 194 q 193 137 193 158 l 193 116 q 188 67 193 101 q 172 0 184 33 q 157 -31 165 -17 q 139 -59 149 -45 q 114 -90 128 -73 q 80 -128 99 -108 q 52 -87 31 -128 q 52 -16 69 -45 q 23 40 31 14 q 16 73 16 66 z "},"-":{"ha":490,"x_min":16,"x_max":460,"o":"m 16 359 q 34 404 16 380 q 80 446 52 427 q 141 477 109 465 q 189 490 174 490 l 311 490 q 396 483 365 490 q 460 434 424 477 q 436 368 446 385 q 410 340 425 351 q 382 323 396 330 q 345 309 368 316 l 101 297 q 56 309 69 297 q 39 326 49 316 q 16 351 30 337 l 16 359 z "},".":{"ha":267,"x_min":16,"x_max":210,"o":"m 16 61 q 30 105 16 82 q 69 148 45 128 q 118 179 92 167 q 165 191 144 191 q 202 178 194 191 q 210 141 210 165 q 200 93 210 118 q 172 47 189 68 q 132 12 155 26 q 85 -2 109 -2 q 65 1 73 -2 q 50 10 57 3 q 36 28 43 17 q 17 52 30 38 q 16 55 17 52 q 16 61 16 57 z "},"/":{"ha":715,"x_min":33,"x_max":675,"o":"m 52 83 l 50 106 l 399 656 l 502 809 q 514 840 502 825 q 543 867 526 856 q 578 886 561 878 q 606 896 595 894 q 636 887 623 899 q 658 856 649 875 q 671 819 667 837 q 675 792 675 800 q 408 422 667 748 q 210 168 278 259 q 135 63 142 78 q 102 11 122 31 q 50 -9 82 -9 q 41 -8 47 -9 q 33 -7 35 -7 q 36 3 35 -3 q 40 19 38 10 q 49 51 47 40 q 52 83 52 63 z "},":":{"ha":267,"x_min":16,"x_max":210,"o":"m 16 408 q 30 452 16 429 q 69 495 45 476 q 118 526 92 514 q 165 538 144 538 q 202 525 194 538 q 210 488 210 512 q 200 440 210 465 q 172 394 189 415 q 132 359 155 373 q 85 345 109 345 q 65 348 73 345 q 50 358 57 351 q 36 375 43 365 q 17 399 30 385 q 16 402 17 399 q 16 408 16 405 m 16 61 q 30 105 16 82 q 69 148 45 128 q 118 179 92 167 q 165 191 144 191 q 202 178 194 191 q 210 141 210 165 q 200 93 210 118 q 172 47 189 68 q 132 12 155 26 q 85 -2 109 -2 q 65 1 73 -2 q 50 10 57 3 q 36 28 43 17 q 17 52 30 38 q 16 55 17 52 q 16 61 16 57 z "},";":{"ha":267,"x_min":16,"x_max":210,"o":"m 16 408 q 30 452 16 429 q 69 495 45 476 q 118 526 92 514 q 165 538 144 538 q 202 525 194 538 q 210 488 210 512 q 200 440 210 465 q 172 394 189 415 q 132 359 155 373 q 85 345 109 345 q 65 348 73 345 q 50 358 57 351 q 36 375 43 365 q 17 399 30 385 q 16 402 17 399 q 16 408 16 405 m 16 73 q 30 118 16 95 q 65 157 43 141 q 114 184 87 174 q 167 194 141 194 q 188 176 184 194 q 193 137 193 158 l 193 116 q 188 67 193 101 q 172 0 184 33 q 157 -31 165 -17 q 139 -59 149 -45 q 114 -90 128 -73 q 80 -128 99 -108 q 52 -87 31 -128 q 52 -16 69 -45 q 23 40 31 14 q 16 73 16 66 z "},"<":{"ha":486,"x_min":17,"x_max":453,"o":"m 274 94 q 315 51 297 71 q 354 12 333 31 q 399 -23 377 -7 q 434 -50 422 -38 l 453 -50 q 438 -3 446 -28 q 420 52 429 23 q 370 109 403 109 q 253 240 337 113 q 177 436 170 366 q 214 564 184 503 q 280 675 245 622 q 344 757 316 729 l 420 757 q 410 872 441 868 q 347 882 378 877 q 278 887 316 887 q 180 865 219 887 q 112 801 141 842 q 62 707 83 760 q 17 592 40 653 l 17 582 q 29 519 17 557 q 52 434 40 481 q 111 309 66 389 q 175 219 135 273 q 274 94 215 165 z "},"=":{"ha":490,"x_min":16,"x_max":460,"o":"m 16 477 q 34 522 16 498 q 80 564 52 545 q 141 595 109 583 q 189 608 174 608 l 311 608 q 396 601 365 608 q 460 552 424 595 q 436 486 446 503 q 410 458 425 469 q 382 441 396 448 q 345 427 368 434 l 101 415 q 56 427 69 415 q 39 444 49 434 q 16 469 30 455 l 16 477 m 16 214 q 34 258 16 234 q 80 300 52 281 q 141 332 109 319 q 189 344 174 344 l 311 344 q 396 337 365 344 q 460 288 424 332 q 436 222 446 240 q 410 194 425 205 q 382 177 396 184 q 345 163 368 170 l 101 151 q 56 163 69 151 q 39 181 49 170 q 16 205 30 191 l 16 214 z "},">":{"ha":486,"x_min":17,"x_max":453,"o":"m 196 94 q 155 51 174 71 q 115 12 137 31 q 71 -23 94 -7 q 36 -50 49 -38 l 17 -50 q 33 -3 24 -28 q 50 52 42 23 q 101 109 68 109 q 217 239 134 111 q 293 436 300 366 q 255 564 286 505 q 190 675 226 622 q 127 757 155 729 l 50 757 q 59 872 30 868 q 123 882 92 877 q 193 887 155 887 q 291 865 252 887 q 359 801 330 842 q 409 707 387 760 q 453 592 431 653 l 453 582 q 442 519 453 557 q 417 434 431 481 q 358 309 405 387 q 196 94 314 233 z "},"?":{"ha":885,"x_min":16,"x_max":870,"o":"m 87 819 q 134 733 24 720 q 223 740 188 738 q 274 741 259 741 q 393 756 333 741 q 510 786 453 771 q 627 726 550 797 q 684 604 705 656 q 629 524 667 552 q 538 490 592 497 q 484 485 512 488 q 427 484 457 483 q 281 460 365 486 q 123 364 194 434 q 89 281 52 293 q 160 278 123 271 q 267 319 193 283 q 372 356 342 356 q 387 356 378 356 q 407 355 398 356 q 424 354 417 354 q 434 354 432 354 q 464 352 441 354 q 512 346 486 349 q 562 340 538 344 q 590 337 585 337 q 674 340 627 337 q 766 359 722 344 q 839 403 809 373 q 870 484 870 432 q 852 559 870 523 q 813 637 833 595 q 790 681 802 660 q 764 722 778 701 q 679 802 738 762 q 503 892 622 840 l 243 892 q 234 885 241 892 q 219 878 233 882 q 186 865 205 873 q 141 847 167 858 q 87 819 115 837 m 16 61 q 30 105 16 82 q 69 148 45 128 q 118 179 92 167 q 165 191 144 191 q 202 178 194 191 q 210 141 210 165 q 200 93 210 118 q 172 47 189 68 q 132 12 155 26 q 85 -2 109 -2 q 65 1 73 -2 q 50 10 57 3 q 36 28 43 17 q 17 52 30 38 q 16 55 17 52 q 16 61 16 57 z "},"@":{"ha":747,"x_min":16,"x_max":729,"o":"m 17 132 q 65 64 43 90 q 111 24 87 38 q 165 4 135 10 q 233 -2 194 -2 q 273 -1 252 -2 q 318 3 295 0 q 345 4 330 3 q 384 5 361 5 q 455 8 406 7 q 583 10 503 9 q 618 163 667 54 q 476 186 582 184 q 387 188 422 188 q 335 188 352 188 q 278 189 302 188 q 238 202 253 191 q 214 240 222 214 q 207 316 207 267 q 214 424 207 366 q 237 533 220 483 q 279 617 253 583 q 342 651 304 651 q 422 663 392 667 q 476 641 451 660 q 510 589 498 622 q 523 490 523 557 q 373 512 431 585 q 344 354 316 441 q 448 262 372 267 q 595 300 524 257 q 698 431 665 344 q 729 592 729 519 q 707 680 729 635 q 654 760 686 724 q 583 817 622 795 q 514 839 545 839 q 323 789 413 839 q 164 656 233 740 q 56 462 95 573 q 16 229 16 351 l 16 207 q 16 180 16 196 q 17 151 17 163 l 17 132 z "},"A":{"ha":799,"x_min":16,"x_max":785,"o":"m 16 68 q 22 13 16 28 q 69 -2 28 -2 q 115 6 90 -2 q 160 28 139 14 q 195 61 181 42 q 210 104 210 80 q 204 132 210 122 q 190 153 198 142 q 176 176 182 163 q 170 212 170 189 q 205 275 170 250 q 286 316 240 300 q 378 339 332 332 q 451 347 425 345 q 488 340 474 349 q 511 317 502 332 q 530 286 521 302 q 556 260 540 271 l 590 52 q 619 25 594 35 q 661 16 644 16 q 671 16 665 16 q 677 17 677 17 l 781 122 q 783 132 781 123 q 785 144 785 141 q 783 161 785 149 q 781 174 781 172 q 737 330 759 252 q 694 486 715 408 q 646 601 679 542 q 590 712 613 660 q 584 731 589 715 q 575 765 580 747 q 563 798 569 783 q 556 816 557 813 q 399 889 488 889 q 359 883 380 889 q 314 866 337 877 q 273 843 292 856 q 243 816 253 830 q 213 750 233 804 q 168 621 193 696 q 115 457 142 545 q 66 290 89 370 q 30 149 43 210 q 16 68 16 89 m 189 424 q 194 497 189 453 q 210 581 198 540 q 245 650 222 622 q 304 679 267 679 q 355 661 332 679 q 396 618 378 644 q 424 561 413 592 q 434 503 434 530 l 434 486 q 426 459 432 479 q 417 434 420 439 q 380 419 403 431 q 332 395 358 408 q 283 372 307 382 q 241 363 259 363 q 202 381 215 363 q 189 424 189 399 z "},"B":{"ha":990,"x_min":0,"x_max":972,"o":"m 330 19 q 284 226 292 120 q 276 438 276 332 q 287 500 276 474 q 313 549 299 526 q 338 591 326 571 q 349 634 349 611 q 343 655 349 649 q 313 665 337 660 q 286 669 304 667 q 248 674 267 672 q 214 680 229 677 q 191 682 198 682 q 143 664 167 682 q 96 623 120 646 q 49 579 73 601 q 0 549 24 557 q 108 703 33 637 q 276 813 182 769 q 473 878 370 858 q 668 899 576 899 q 720 897 686 899 q 786 885 753 894 q 844 856 819 875 q 868 807 868 837 q 859 764 868 783 q 840 726 851 745 q 822 688 830 707 q 814 648 814 670 q 839 602 814 620 q 893 567 865 585 q 947 526 922 549 q 972 467 972 503 q 967 444 972 458 q 954 410 962 429 q 935 368 946 391 q 911 325 924 345 q 857 248 885 281 q 816 181 828 215 q 750 121 781 148 q 677 85 719 94 q 661 73 677 82 q 622 55 644 64 q 576 35 599 45 q 538 19 552 24 q 521 18 536 19 q 485 14 505 17 q 446 7 465 10 q 417 0 427 3 l 389 0 q 358 3 370 0 q 330 19 345 5 m 429 681 q 431 643 429 665 q 439 601 432 622 q 461 564 446 580 q 503 549 476 549 q 567 559 533 549 q 630 588 601 569 q 679 629 660 606 q 698 681 698 653 q 685 725 698 710 q 651 747 672 740 q 602 754 630 753 q 545 755 575 755 q 521 754 536 755 q 488 750 505 753 q 455 741 470 747 q 429 729 439 736 l 429 681 m 712 181 q 783 235 760 215 q 808 269 806 255 q 813 295 811 283 q 816 313 816 307 l 816 332 q 799 377 816 352 q 760 422 783 401 q 709 456 736 443 q 661 469 682 469 q 582 458 620 469 q 514 427 543 448 q 467 373 484 406 q 450 295 450 340 q 452 260 450 283 q 460 214 455 238 q 476 174 465 191 q 503 156 486 156 l 712 181 z "},"C":{"ha":809,"x_min":17,"x_max":781,"o":"m 274 696 q 315 734 297 715 q 354 767 333 752 q 399 799 377 785 q 434 823 422 813 l 453 823 q 486 824 469 823 q 517 825 503 825 l 538 825 q 596 827 559 825 q 671 826 634 830 q 740 811 708 823 q 781 769 771 799 q 681 694 738 712 q 559 675 625 675 q 493 676 523 675 q 434 679 464 677 q 402 681 418 681 q 370 681 385 682 q 253 568 337 681 q 177 394 170 457 q 214 281 184 337 q 283 194 245 231 q 365 156 321 156 l 682 156 q 667 114 682 128 q 631 88 651 99 q 589 66 611 76 q 556 38 568 56 q 477 20 510 28 q 411 8 443 12 q 347 1 378 3 q 278 -2 316 -2 q 180 18 219 -2 q 112 74 141 38 q 62 157 83 109 q 17 257 40 205 l 17 266 q 29 321 17 288 q 52 396 40 354 q 111 503 66 439 q 274 696 158 573 z "},"D":{"ha":833,"x_min":17,"x_max":816,"o":"m 17 658 q 46 720 26 693 q 94 766 66 747 q 155 799 122 786 q 224 821 188 813 q 372 841 299 839 q 491 844 444 844 q 605 830 547 844 q 710 786 663 816 q 786 708 757 755 q 816 594 816 661 q 793 441 816 523 q 738 326 781 399 q 615 142 694 253 l 556 92 q 543 80 556 89 q 515 59 531 71 q 481 36 498 47 q 451 19 464 24 q 422 10 439 14 q 385 3 405 5 q 345 0 365 2 q 311 -2 326 -2 q 247 47 269 -2 q 216 169 226 95 q 204 328 207 243 q 199 487 201 413 q 188 609 196 561 q 156 658 179 658 l 17 658 m 552 156 q 674 352 663 323 q 693 411 684 380 q 700 473 703 444 q 694 512 696 502 q 688 528 694 514 q 677 549 681 542 q 667 567 674 554 q 652 595 660 580 q 636 622 644 609 q 625 641 628 635 q 569 667 594 656 q 523 684 543 677 q 425 696 481 696 q 338 662 365 696 q 311 569 311 628 q 325 466 311 516 q 347 366 339 417 q 363 242 361 288 q 378 174 365 196 q 431 142 394 151 q 552 156 469 134 z "},"E":{"ha":747,"x_min":16,"x_max":724,"o":"m 226 681 q 319 747 281 720 q 377 786 358 774 q 444 847 413 809 l 705 865 q 721 852 719 866 q 724 830 724 837 q 711 799 724 813 q 681 773 698 785 q 647 749 665 760 q 618 726 628 738 q 567 721 604 724 q 488 715 530 719 q 409 710 446 712 q 358 708 372 708 l 347 708 l 340 708 q 319 702 337 710 q 266 663 302 694 q 238 636 247 649 q 227 612 229 623 q 224 589 224 601 q 224 563 224 576 q 227 521 224 538 q 259 503 229 503 q 378 513 321 503 q 495 523 434 523 l 517 523 q 551 522 533 523 q 585 521 569 521 l 608 521 q 560 449 594 472 q 484 414 526 425 q 395 398 441 403 q 311 385 349 394 q 248 357 273 377 q 224 295 224 337 q 226 259 224 276 q 243 226 227 241 q 268 210 248 220 q 311 188 288 200 q 353 168 333 177 q 382 156 373 158 q 398 155 384 156 q 422 155 413 155 q 523 169 474 155 q 625 191 573 184 q 635 184 628 191 q 642 174 642 177 q 635 156 642 174 q 625 139 628 144 q 613 123 622 134 q 580 93 597 111 q 556 69 563 75 q 476 36 510 50 q 408 13 441 23 q 342 0 375 3 q 269 -3 309 -3 q 165 19 212 -3 q 85 81 118 42 q 34 170 52 120 q 16 278 16 220 q 21 312 16 288 q 36 364 26 335 q 61 427 47 392 q 92 493 75 462 q 165 609 125 564 q 226 681 205 653 z "},"F":{"ha":701,"x_min":16,"x_max":686,"o":"m 16 250 q 22 435 16 347 q 40 627 28 523 q 71 677 52 649 q 113 733 90 705 q 162 781 135 760 q 217 813 189 802 q 303 826 250 818 q 415 842 356 835 q 531 854 474 849 q 630 859 589 859 q 670 838 655 859 q 686 790 686 816 q 655 722 686 747 q 585 705 623 698 q 514 733 545 712 q 378 726 483 753 l 177 698 q 226 483 142 651 q 424 524 330 510 q 625 535 517 538 q 621 478 625 493 q 607 458 616 464 q 583 447 597 453 q 550 418 569 441 q 399 378 519 387 q 264 333 283 373 q 247 293 255 314 q 233 247 240 271 q 215 160 219 198 q 201 83 212 122 q 172 23 191 45 q 83 -2 153 -2 q 72 1 80 -2 q 61 3 64 3 q 36 78 45 49 q 23 134 28 108 q 16 186 17 160 q 16 250 16 212 z "},"G":{"ha":819,"x_min":12,"x_max":781,"o":"m 556 125 q 511 90 538 109 q 456 54 484 71 q 400 23 427 36 q 356 10 373 10 q 176 63 259 10 q 35 217 94 115 l 17 266 q 57 434 12 314 q 170 648 101 552 q 327 801 238 743 q 521 859 417 859 l 540 859 q 589 857 563 859 q 625 854 616 854 q 641 818 639 835 q 644 776 644 800 q 627 710 644 736 q 581 667 609 684 q 516 640 552 649 q 441 623 481 630 q 369 608 405 615 q 297 587 333 601 q 225 549 260 573 q 149 483 189 524 q 167 340 128 399 q 267 269 207 281 q 382 259 330 259 q 469 280 434 259 q 493 286 479 283 q 522 298 507 290 q 549 319 536 306 q 573 352 563 332 l 531 373 q 462 387 476 373 q 446 434 448 403 q 451 490 444 465 q 480 535 462 517 q 522 563 498 552 q 572 579 545 575 q 623 583 599 583 l 682 583 q 707 582 694 583 q 731 580 719 582 q 764 535 755 578 q 768 468 766 517 q 773 364 771 418 q 779 261 776 309 q 781 193 781 214 l 781 179 q 766 109 781 137 q 726 59 750 80 q 674 21 701 38 q 625 -14 648 3 q 595 7 606 -9 q 576 42 583 23 q 563 83 568 61 q 556 125 559 106 z "},"H":{"ha":833,"x_min":16,"x_max":816,"o":"m 122 69 q 114 61 122 68 q 104 52 106 54 q 95 27 101 47 q 87 0 89 7 q 95 -1 89 0 q 104 -2 101 -2 q 155 18 135 -2 q 189 69 175 38 q 214 139 203 101 q 234 212 224 177 q 259 274 245 247 q 295 313 273 302 q 332 324 311 319 q 378 330 354 328 q 424 332 401 332 q 462 332 446 332 q 561 308 528 332 q 606 250 594 285 q 618 174 618 215 q 619 97 618 132 q 628 39 620 63 q 667 16 637 16 q 720 32 693 16 q 768 73 747 49 q 803 127 790 97 q 816 182 816 156 l 816 191 q 794 273 800 229 q 784 359 788 318 q 772 435 780 401 q 747 486 764 469 q 744 548 747 503 q 739 642 741 592 q 734 737 736 693 q 729 799 731 781 q 725 825 729 806 q 713 862 720 844 q 692 893 705 880 q 660 903 679 906 q 632 893 649 901 q 598 874 615 885 q 569 847 582 863 q 556 816 556 832 l 556 486 q 536 477 556 483 q 503 469 516 470 q 490 469 502 469 q 464 468 479 469 q 432 467 448 467 q 408 467 417 467 q 389 467 403 467 q 360 468 375 467 q 332 469 345 469 q 313 469 318 469 q 294 549 307 495 q 260 660 281 604 q 210 758 240 715 q 141 800 181 800 q 104 793 125 800 q 63 773 83 785 q 30 745 43 760 q 16 712 16 729 q 23 677 16 693 q 43 648 31 661 q 67 620 56 634 q 87 590 78 606 q 128 477 116 533 q 141 358 141 422 q 122 233 141 297 q 104 113 104 168 l 104 104 q 114 87 106 101 q 122 69 122 73 z "},"I":{"ha":451,"x_min":17,"x_max":434,"o":"m 87 36 q 86 45 87 38 q 85 56 85 52 q 95 100 85 80 q 122 146 104 120 q 121 214 122 165 q 120 318 120 264 q 121 421 120 372 q 122 490 122 470 q 125 513 122 495 q 131 553 128 531 q 136 594 134 575 q 139 616 139 613 l 139 627 q 122 660 139 648 q 85 678 106 672 q 44 687 64 684 q 17 689 24 689 q 80 754 42 726 q 161 802 118 783 q 252 830 205 821 q 339 839 299 839 q 358 837 344 839 q 385 835 372 835 q 415 834 401 835 q 434 833 429 833 q 396 772 420 795 q 345 729 372 748 q 295 689 318 710 q 260 635 273 668 q 278 427 274 531 q 278 219 281 323 q 307 189 288 200 q 347 172 326 179 q 387 156 368 165 q 417 128 406 148 q 380 85 396 108 q 349 43 365 63 q 313 11 333 24 q 260 -2 292 -2 q 174 14 215 -2 q 87 36 132 30 z "},"J":{"ha":868,"x_min":17,"x_max":856,"o":"m 313 764 q 339 801 323 786 q 371 828 354 816 q 404 853 387 840 q 434 885 420 866 l 856 885 q 856 861 856 875 q 854 832 856 847 q 848 804 852 818 q 833 781 844 790 q 799 764 823 776 q 747 738 774 752 q 694 712 719 724 q 660 694 670 700 q 650 687 656 693 q 642 677 644 681 q 644 563 646 622 q 634 446 642 503 q 622 389 628 417 q 606 332 616 361 q 581 267 595 302 q 545 191 566 233 q 508 121 524 149 q 477 76 491 92 q 450 49 465 61 q 417 28 434 38 q 338 4 380 10 q 260 -2 295 -2 q 180 8 222 -2 q 102 38 137 17 q 42 93 66 59 q 17 174 17 127 q 24 214 17 188 q 42 266 31 240 q 68 313 52 293 q 102 332 83 332 q 128 323 115 332 q 156 299 142 314 q 186 265 170 283 q 220 227 201 247 q 286 181 247 203 q 378 153 328 161 q 483 188 432 144 q 517 274 510 248 q 519 343 523 297 q 516 443 516 389 q 514 523 516 483 q 508 596 512 563 q 494 656 503 630 q 469 694 484 682 q 433 712 457 705 q 385 726 410 719 q 339 741 359 733 q 313 764 318 750 z "},"K":{"ha":729,"x_min":17,"x_max":714,"o":"m 295 399 q 281 396 292 399 q 260 385 271 392 q 239 373 248 378 q 226 365 229 368 q 221 327 224 354 q 215 270 219 300 q 210 212 212 240 q 208 174 208 184 q 200 130 207 155 q 179 83 193 106 q 167 63 172 73 q 156 45 161 54 q 104 14 146 28 l 76 21 q 80 82 80 57 q 78 122 80 108 q 72 174 75 149 q 69 208 69 198 l 69 226 q 68 306 69 248 q 63 426 66 363 q 56 546 59 490 q 52 625 54 602 q 45 637 50 628 q 33 660 40 646 q 23 682 26 674 q 17 694 19 691 l 17 703 q 31 741 17 719 q 65 785 45 764 q 107 820 85 806 q 148 835 128 835 q 165 791 155 835 q 186 689 175 747 q 198 633 193 661 q 208 576 203 604 q 219 531 214 549 q 226 503 224 514 q 239 503 229 503 q 252 502 248 502 q 293 511 274 502 q 326 536 311 521 q 351 569 340 550 q 368 604 361 587 q 441 826 366 806 l 556 840 q 460 525 420 557 q 536 466 500 493 q 606 413 573 439 q 683 310 653 375 q 714 127 714 245 q 702 86 714 108 q 674 45 691 64 q 634 13 656 26 q 590 0 611 0 q 576 31 587 0 q 545 109 564 63 q 501 208 526 156 q 444 306 476 260 q 375 378 413 351 q 295 399 337 406 z "},"L":{"ha":642,"x_min":17,"x_max":625,"o":"m 184 722 q 233 767 226 752 q 243 785 240 781 q 298 822 276 807 q 339 844 319 837 q 378 853 358 851 q 431 856 399 856 q 497 843 470 856 q 523 783 523 830 q 512 745 523 766 q 485 706 502 724 q 448 675 469 688 q 408 663 427 663 q 382 669 399 663 q 345 683 365 675 q 306 701 326 691 q 267 719 285 712 q 203 686 241 729 q 151 575 165 642 q 137 434 137 507 q 142 359 137 392 q 155 294 148 326 q 173 229 163 262 q 191 153 182 196 l 208 135 q 306 140 245 137 q 429 136 366 142 q 546 111 491 130 q 625 49 601 92 q 602 31 618 43 q 565 5 585 19 q 528 -21 545 -9 q 503 -38 510 -33 q 484 -49 497 -42 q 469 -56 470 -56 q 425 -52 450 -56 q 377 -41 401 -49 q 331 -22 352 -33 q 295 5 309 -10 l 35 5 q 33 36 35 5 q 29 109 31 66 q 23 199 26 153 q 17 274 19 245 l 17 283 q 25 405 17 345 q 52 517 33 464 q 107 621 73 573 q 184 722 141 668 z "},"M":{"ha":1076,"x_min":16,"x_max":1061,"o":"m 69 540 q 59 571 68 557 q 41 596 50 585 q 23 618 31 608 q 16 639 16 628 q 16 645 16 641 q 17 649 17 649 l 122 757 q 135 760 123 759 q 153 762 148 762 q 180 753 167 766 q 206 726 193 740 q 230 704 219 712 q 253 710 241 696 q 332 741 269 726 q 417 764 398 757 q 466 774 439 773 q 517 776 493 776 q 569 760 549 776 q 608 720 592 741 q 715 734 623 700 q 790 765 760 753 q 833 781 819 776 q 892 791 863 788 q 941 793 922 793 q 985 789 969 793 q 1024 757 1002 785 q 1042 620 1035 681 q 1053 504 1049 559 q 1059 394 1057 450 q 1061 273 1061 339 q 1057 200 1061 247 q 1042 108 1054 153 q 1005 30 1030 63 q 938 -3 981 -3 q 928 -1 934 -3 q 920 2 922 2 l 868 630 q 855 664 866 651 q 828 684 844 677 q 795 698 813 693 q 736 686 780 701 q 677 630 694 672 l 660 613 q 658 587 660 609 q 656 542 656 564 l 656 519 q 660 454 656 484 q 668 394 663 424 q 675 334 672 365 q 679 271 679 304 q 647 132 679 188 q 538 36 615 76 q 531 71 533 52 q 526 110 530 90 q 518 149 523 130 q 503 181 514 168 q 498 314 500 247 q 486 446 497 382 q 448 567 476 510 q 365 667 420 623 q 326 653 342 658 q 302 644 311 648 q 262 606 285 641 q 258 572 262 585 q 247 545 253 559 q 234 515 240 531 q 226 469 227 498 q 225 401 226 450 q 224 299 224 352 q 225 194 224 243 q 226 127 226 146 q 216 88 226 109 q 193 47 207 66 q 161 14 179 28 q 130 0 144 0 q 125 1 128 0 q 122 2 122 2 q 108 30 115 10 q 96 69 101 49 q 89 105 92 89 q 87 127 87 122 q 85 174 87 142 q 82 247 83 207 q 77 333 80 288 q 74 420 75 378 q 71 493 73 462 q 69 540 69 524 z "},"N":{"ha":701,"x_min":16,"x_max":679,"o":"m 69 550 q 59 582 68 568 q 41 607 50 595 q 23 628 31 618 q 16 651 16 639 q 16 657 16 653 q 17 661 17 661 l 122 771 q 135 774 123 773 q 153 776 148 776 q 180 766 167 780 q 206 740 193 753 q 230 718 219 726 q 253 724 241 710 q 332 755 269 740 q 417 778 398 771 q 466 789 439 786 q 517 792 493 792 q 569 775 549 792 q 604 737 590 759 q 635 668 618 715 l 660 623 q 658 598 660 622 q 656 552 656 575 l 656 530 q 660 462 656 493 q 668 401 663 431 q 675 340 672 372 q 679 276 679 309 q 647 135 679 191 q 538 38 615 78 q 531 72 533 52 q 526 113 530 92 q 518 153 523 134 q 503 184 514 172 q 499 319 500 252 q 486 454 498 387 q 447 578 474 521 q 378 668 420 635 q 330 662 349 665 q 302 656 311 660 q 262 616 286 653 q 258 582 262 595 q 247 556 253 569 q 234 524 240 542 q 226 477 227 507 q 225 407 226 457 q 224 304 224 358 q 225 199 224 248 q 226 128 226 149 q 216 90 226 113 q 193 47 207 68 q 161 12 179 26 q 130 -2 144 -2 q 125 0 128 -2 q 122 2 122 2 q 108 30 115 10 q 96 69 101 49 q 89 108 92 90 q 87 128 87 125 q 85 163 87 142 q 82 212 83 184 q 81 273 82 240 q 78 339 80 306 q 72 467 75 406 q 69 550 69 528 z "},"O":{"ha":747,"x_min":16,"x_max":729,"o":"m 17 132 l 17 151 q 16 180 17 163 q 16 207 16 196 l 16 229 q 56 462 16 351 q 164 656 95 573 q 323 789 233 740 q 514 839 413 839 q 583 817 545 839 q 653 760 622 795 q 707 680 684 724 q 729 592 729 635 q 698 431 729 517 q 618 264 667 344 q 512 120 569 184 q 399 24 455 56 q 362 11 384 17 q 318 3 340 5 q 273 -1 295 0 q 233 -2 252 -2 q 165 4 194 -2 q 111 24 135 10 q 65 64 87 38 q 17 132 43 90 m 207 316 q 214 240 207 266 q 238 202 222 214 q 278 189 253 191 q 335 188 302 188 q 405 203 370 188 q 460 233 441 219 q 480 269 469 240 q 501 338 491 299 q 516 418 510 377 q 523 490 523 458 q 510 589 523 556 q 476 635 498 622 q 419 650 453 649 q 342 651 385 651 q 279 618 304 651 q 237 534 253 585 q 214 424 220 483 q 207 316 207 365 z "},"P":{"ha":851,"x_min":17,"x_max":835,"o":"m 122 243 l 122 556 q 149 589 141 575 q 158 625 158 602 q 139 668 158 658 q 95 681 120 677 q 48 688 71 684 q 17 712 24 691 q 72 760 38 741 q 145 793 106 780 q 224 814 184 806 q 295 833 264 823 l 677 833 q 723 820 696 833 q 775 787 750 807 q 818 743 800 767 q 835 694 835 719 q 824 644 835 670 q 793 590 813 618 q 750 532 774 563 q 701 469 726 502 q 648 409 677 434 q 589 365 618 384 q 532 333 559 345 q 486 313 505 321 q 467 305 483 309 q 434 294 451 300 q 401 284 417 288 q 382 278 385 280 q 342 243 354 267 q 325 188 330 219 q 316 123 319 156 q 301 63 313 90 q 266 16 290 35 q 198 -2 243 -2 q 161 29 172 -2 q 144 100 149 59 q 135 181 139 141 q 122 243 132 222 m 313 434 q 367 402 339 408 q 427 396 396 396 l 469 396 q 486 397 474 396 q 512 398 498 398 q 574 434 549 417 q 615 467 599 451 q 644 552 644 497 q 626 609 644 594 q 583 632 608 625 q 536 646 559 639 q 503 677 514 653 l 330 677 q 326 669 330 677 q 315 650 321 661 q 304 627 309 639 q 295 608 299 615 l 295 601 l 295 590 q 298 559 295 582 q 303 511 300 536 q 308 464 306 486 q 313 434 311 443 z "},"Q":{"ha":747,"x_min":16,"x_max":729,"o":"m 17 132 l 17 151 q 16 180 17 163 q 16 207 16 196 l 16 229 q 56 457 16 349 q 164 649 95 566 q 323 781 233 733 q 514 830 413 830 q 583 809 545 830 q 653 753 622 788 q 707 675 684 719 q 729 589 729 632 q 698 427 729 516 q 641 287 667 340 q 601 198 615 234 l 670 45 q 483 75 559 -36 q 448 54 469 66 q 399 26 427 42 q 362 11 384 17 q 318 3 340 5 q 273 1 295 2 q 233 0 252 0 q 165 5 194 0 q 111 24 135 10 q 65 64 87 38 q 17 132 43 90 m 198 363 q 210 285 198 316 q 244 236 222 253 q 294 213 266 219 q 356 207 323 207 l 401 207 q 368 288 413 208 q 368 378 325 368 q 458 352 413 389 q 505 361 503 318 q 474 557 505 486 q 363 625 443 628 q 294 599 325 622 q 242 540 264 576 q 209 457 220 503 q 198 363 198 410 z "},"R":{"ha":955,"x_min":14,"x_max":939,"o":"m 295 660 q 266 676 280 674 q 233 679 252 679 q 175 658 188 679 q 161 631 170 649 q 140 586 151 613 q 122 540 128 559 q 108 509 115 521 q 78 465 99 483 q 14 448 57 448 q 32 530 14 484 q 80 622 50 575 q 149 714 109 670 q 232 792 189 757 q 319 847 274 826 q 399 868 363 868 l 747 868 q 808 857 774 868 q 871 826 842 845 q 918 779 899 806 q 938 720 938 752 q 924 669 938 700 q 891 609 911 639 q 850 557 872 580 q 809 528 828 535 q 778 387 747 417 q 811 358 793 372 q 845 328 828 344 q 911 264 882 299 q 939 174 939 229 q 933 124 939 149 q 915 79 927 99 q 883 45 903 59 q 833 31 863 31 q 774 63 804 31 q 712 130 745 94 q 641 197 679 167 q 556 227 602 227 q 502 211 521 227 q 470 168 483 194 q 450 113 458 142 q 430 57 441 83 q 399 15 418 31 q 347 -2 380 -2 q 323 4 328 -2 q 313 35 318 10 q 308 61 311 43 q 303 97 306 78 q 298 133 300 116 q 295 156 295 149 q 294 215 295 175 q 293 304 293 255 l 293 408 l 293 512 q 294 602 293 563 q 295 660 295 641 m 705 472 q 740 609 753 582 q 694 656 726 635 q 628 686 667 675 q 536 696 590 696 q 512 696 524 696 q 486 694 500 696 q 451 660 460 693 l 451 641 q 451 612 451 627 q 450 583 450 597 l 450 564 q 448 525 450 552 q 448 470 446 498 q 459 419 450 441 q 490 398 469 398 q 613 424 554 398 q 666 450 642 438 q 705 472 689 462 z "},"S":{"ha":885,"x_min":16,"x_max":870,"o":"m 189 61 q 215 121 189 101 q 274 141 241 141 q 353 133 314 141 q 432 116 392 125 q 470 109 451 113 q 510 99 490 104 q 627 155 549 89 q 684 269 705 220 q 609 355 661 332 q 485 382 556 378 q 334 376 415 385 q 174 365 253 366 q 137 372 163 366 q 84 389 111 378 q 36 415 57 399 q 16 451 16 431 q 34 521 16 481 q 82 603 52 561 q 149 688 111 646 q 227 762 188 729 q 306 815 267 795 q 373 835 344 835 q 486 823 432 835 q 593 798 540 811 q 701 773 646 785 q 816 764 755 762 q 817 760 816 762 q 818 755 818 757 q 798 714 818 734 q 749 678 778 693 q 691 653 720 663 q 642 642 661 642 l 347 642 q 308 661 330 660 q 266 661 286 661 q 218 648 231 661 q 199 619 205 635 q 186 584 193 602 q 156 556 179 566 q 209 541 184 550 q 260 523 234 531 q 312 508 285 514 q 372 502 339 502 q 388 503 378 502 q 406 503 398 503 q 424 503 417 503 q 434 503 432 503 q 464 507 441 503 q 512 513 486 510 q 562 518 538 516 q 590 521 585 521 q 674 517 627 521 q 766 500 722 514 q 839 458 809 486 q 870 382 870 431 q 852 312 870 345 q 806 247 833 278 q 778 216 792 231 q 748 188 764 201 q 714 153 733 174 q 670 104 694 132 q 503 0 622 47 l 243 0 q 235 5 241 0 q 220 19 229 10 q 204 36 212 28 q 191 52 196 45 q 190 56 191 52 q 189 61 189 59 z "},"T":{"ha":1024,"x_min":12,"x_max":1007,"o":"m 502 460 q 507 306 502 385 q 521 156 512 227 q 528 112 523 139 q 539 60 533 85 q 550 17 545 35 q 556 0 556 0 l 573 0 q 592 16 580 0 q 615 51 604 31 q 635 91 627 71 q 642 122 642 111 l 642 608 q 660 649 642 635 q 701 670 677 663 q 749 678 724 677 q 790 679 774 679 l 825 679 q 859 674 844 679 q 887 658 875 670 q 934 674 899 648 l 1007 781 l 1007 816 l 399 816 q 269 789 337 816 q 144 717 201 762 q 49 612 87 672 q 12 486 12 552 l 139 486 q 145 539 141 502 q 161 615 149 576 q 192 682 172 653 q 243 712 212 712 l 417 712 q 445 686 425 691 q 487 676 465 681 q 524 661 509 672 q 540 618 540 649 q 534 578 540 597 q 521 541 528 559 q 508 503 514 523 q 502 460 502 483 z "},"U":{"ha":990,"x_min":17,"x_max":962,"o":"m 87 625 q 57 647 69 639 q 36 661 45 655 q 23 674 28 667 q 17 694 19 681 q 36 736 17 712 q 79 781 54 760 q 128 818 104 802 q 165 833 153 833 l 174 833 q 199 740 191 788 q 209 641 207 691 q 210 543 212 592 q 208 450 208 495 l 208 434 q 206 424 208 432 q 201 408 203 417 q 194 391 198 399 q 191 382 191 384 q 208 299 191 345 q 255 214 226 253 q 321 147 285 174 q 398 120 358 120 q 408 121 401 120 q 417 122 415 122 l 587 167 q 611 201 601 184 q 628 233 622 217 q 644 354 644 266 l 644 469 l 644 503 q 643 556 644 528 q 642 608 642 583 l 642 642 q 609 694 630 670 q 589 748 589 719 q 599 787 589 771 q 626 815 609 804 q 663 832 642 826 q 703 837 684 837 q 729 836 714 837 q 758 830 745 835 q 780 813 771 825 q 790 781 790 802 l 790 313 q 808 253 790 278 q 854 211 826 227 q 914 185 882 194 q 962 167 946 175 l 955 118 q 878 104 917 134 q 833 77 858 90 q 781 52 809 64 q 752 59 778 56 q 712 59 726 63 q 689 55 700 57 q 677 52 679 52 q 662 58 670 52 q 644 71 655 64 q 622 83 634 78 q 599 89 611 89 q 566 82 580 89 q 540 68 552 76 q 516 49 528 59 q 486 35 503 40 q 401 6 434 14 q 330 -2 368 -2 l 269 -2 l 250 -2 q 221 -1 236 -2 q 193 0 207 0 l 174 0 q 144 18 160 5 q 116 49 128 31 q 95 87 104 68 q 87 122 87 106 l 87 625 z "},"V":{"ha":854,"x_min":17,"x_max":828,"o":"m 17 582 q 36 643 17 611 q 81 702 54 675 q 139 747 108 729 q 196 766 170 766 q 208 661 233 766 q 222 465 184 556 q 306 286 260 375 q 507 302 351 198 q 537 343 523 323 q 566 380 552 363 q 628 490 594 420 q 594 583 642 587 q 528 590 545 580 q 503 623 510 601 q 490 674 497 646 q 503 741 497 727 q 545 778 510 760 q 621 806 582 797 q 689 814 660 814 q 792 775 755 814 q 828 663 828 736 q 823 578 828 622 q 808 488 818 535 q 783 400 799 441 q 743 325 767 359 q 721 306 741 325 q 668 256 701 286 q 597 188 635 226 q 521 118 559 151 q 451 59 483 85 q 399 24 418 33 q 278 -2 347 -2 q 218 36 248 -2 q 158 130 188 73 q 103 257 128 188 q 59 391 78 326 q 29 507 40 455 q 17 582 17 559 z "},"W":{"ha":1285,"x_min":16,"x_max":1269,"o":"m 156 156 q 105 365 132 260 q 52 573 78 469 q 47 586 52 575 q 34 610 42 597 q 21 635 26 623 q 16 651 16 648 q 16 655 16 653 q 17 660 17 658 q 45 693 28 672 q 83 734 63 714 q 128 768 104 753 q 175 783 151 783 q 188 766 179 783 q 208 722 198 748 q 230 664 219 696 q 252 602 241 632 q 269 551 262 573 q 278 521 276 530 q 284 490 280 512 q 294 444 288 469 q 306 396 300 418 q 313 365 311 373 q 332 347 325 359 q 344 319 339 335 q 353 283 349 302 q 363 243 358 264 q 398 181 372 205 q 462 174 420 160 q 531 194 503 188 q 560 220 554 207 q 573 245 566 233 q 586 271 580 257 q 592 304 592 285 q 568 425 592 363 q 513 545 543 488 q 458 649 483 602 q 432 720 434 696 q 433 725 432 722 q 434 729 434 727 q 468 768 450 747 q 506 809 486 790 q 549 840 526 828 q 599 852 573 852 q 650 820 627 852 q 693 736 674 788 q 728 622 712 684 q 757 498 745 559 q 780 387 769 438 q 799 313 790 337 q 833 280 821 299 q 858 241 845 262 q 873 220 865 231 q 893 200 882 208 q 918 188 905 191 q 948 188 932 184 q 1073 250 997 188 q 1102 365 1094 318 q 1111 460 1111 411 q 1099 569 1111 524 q 1070 644 1087 615 q 1033 691 1054 674 q 996 720 1012 708 q 967 742 979 733 q 955 764 955 752 q 995 809 977 792 q 1030 836 1012 826 q 1071 849 1049 845 q 1128 852 1094 852 q 1207 837 1179 852 q 1248 793 1234 821 q 1266 725 1262 764 q 1269 639 1269 686 q 1245 471 1269 550 q 1181 313 1220 392 q 1163 292 1174 300 q 1144 247 1153 285 q 1124 189 1141 226 q 1080 97 1108 153 q 954 71 1002 83 q 892 49 906 59 q 828 13 859 28 q 781 0 797 -2 q 761 6 774 2 q 738 16 748 10 q 720 26 727 21 q 712 35 712 31 l 712 52 q 677 87 693 76 q 644 120 653 101 q 635 132 641 128 q 615 132 628 135 q 582 116 602 128 q 531 83 563 104 q 464 56 493 69 q 417 31 436 43 q 341 3 378 7 q 286 0 304 0 q 228 17 245 0 q 205 60 212 35 q 190 112 198 85 q 156 156 182 139 z "},"X":{"ha":781,"x_min":12,"x_max":764,"o":"m 274 274 l 247 257 q 197 225 222 240 q 148 191 172 210 q 124 173 135 182 q 103 148 113 163 q 84 112 94 134 q 66 59 75 90 q 24 14 38 7 q 17 266 12 19 q 75 335 61 321 q 89 350 82 342 q 102 367 95 358 q 132 396 109 377 q 191 444 155 415 q 149 524 177 470 q 87 545 122 575 q 58 527 71 530 q 35 531 45 524 q 20 554 24 538 q 16 589 16 569 q 23 615 16 601 q 45 646 31 628 q 75 685 59 663 q 106 733 90 707 q 163 808 135 785 q 240 832 191 832 q 279 768 260 797 q 313 715 297 740 q 406 719 344 667 q 457 764 434 740 q 504 812 481 788 q 553 851 528 835 q 609 870 578 866 q 633 862 622 870 q 644 833 644 854 q 622 762 644 795 q 573 698 599 729 q 547 666 559 682 q 524 635 535 649 q 448 538 500 602 q 483 488 469 510 q 517 436 497 465 q 535 410 528 420 q 549 391 542 399 q 566 373 557 382 q 590 356 575 365 q 603 355 594 356 q 616 354 613 354 q 668 371 648 354 q 712 424 688 387 q 741 345 727 389 q 764 260 755 302 q 705 182 740 227 q 630 97 670 137 q 547 28 589 56 q 483 7 505 -2 q 457 39 469 24 q 434 66 446 54 q 375 161 413 115 q 319 231 339 212 q 274 274 302 250 z "},"Y":{"ha":729,"x_min":16,"x_max":714,"o":"m 68 61 q 79 97 68 80 q 107 128 90 115 q 141 154 123 142 q 174 174 160 165 q 194 184 181 177 q 208 191 207 191 q 227 186 212 191 q 260 174 243 181 q 293 162 278 168 q 313 156 309 156 q 350 152 323 155 q 407 146 377 149 q 465 141 438 142 q 503 139 493 139 q 587 226 589 179 q 582 272 585 248 q 576 318 580 295 q 547 398 568 365 q 484 432 526 432 q 430 418 460 432 q 365 387 399 405 q 292 356 330 370 q 212 342 253 342 q 105 368 144 342 q 46 438 66 394 q 21 536 26 481 q 16 648 16 590 l 16 667 q 16 695 16 681 q 17 724 17 710 l 17 743 q 31 775 21 757 q 55 810 42 793 q 84 838 68 826 q 113 849 101 849 q 145 820 134 849 q 163 749 156 792 q 174 657 170 707 q 188 565 179 608 q 215 494 198 523 q 260 465 233 465 l 455 500 q 510 531 503 507 q 518 579 516 556 q 521 611 521 602 l 521 639 l 503 760 l 503 771 q 517 815 503 795 q 552 850 531 835 q 597 873 573 865 q 642 882 622 882 q 676 856 663 882 q 697 799 689 830 q 708 740 705 767 q 712 708 712 712 l 712 681 q 713 622 712 656 q 714 554 714 589 l 714 500 l 714 458 q 713 396 714 429 q 712 333 712 363 l 712 292 q 694 253 707 274 q 664 211 681 231 q 628 175 648 191 q 557 122 608 160 q 468 59 505 83 q 382 21 431 35 q 289 4 335 9 q 226 0 243 0 q 194 3 219 0 q 141 13 168 5 q 90 33 113 21 q 68 61 68 45 z "},"Z":{"ha":809,"x_min":10,"x_max":774,"o":"m 689 63 q 661 125 689 104 q 597 146 634 146 q 511 137 554 146 q 427 120 469 128 q 384 111 405 115 q 342 101 363 108 q 528 345 299 90 q 766 630 757 599 q 733 705 774 663 q 669 766 703 738 q 604 814 635 793 q 543 846 573 835 q 491 858 514 858 q 368 845 427 858 q 252 819 309 833 q 136 793 194 804 q 14 783 78 781 q 12 779 14 781 q 10 774 10 776 q 32 733 10 753 q 84 695 54 712 q 147 669 115 679 q 198 660 179 660 l 517 660 q 473 621 530 670 q 293 462 417 571 q 83 207 47 247 q 122 162 101 188 q 170 108 142 137 q 351 0 220 50 l 632 0 q 640 6 634 0 q 655 22 646 12 q 673 40 663 31 q 688 54 682 49 q 688 57 688 54 q 689 63 689 61 z "},"[":{"ha":486,"x_min":17,"x_max":453,"o":"m 274 743 q 315 786 297 766 q 354 825 333 806 q 399 859 377 844 q 434 887 422 875 l 453 887 q 438 840 446 865 q 420 786 429 816 q 370 726 403 729 q 253 597 337 726 q 177 399 170 470 q 214 274 184 333 q 280 161 245 215 q 344 80 316 108 l 420 80 q 410 -36 441 -31 q 347 -45 378 -40 q 278 -50 316 -50 q 180 -27 219 -50 q 111 36 141 -3 q 60 130 82 76 q 17 245 38 184 l 17 255 q 29 318 17 280 q 52 403 40 356 q 111 526 68 453 q 274 743 158 606 z "},"\\":{"ha":715,"x_min":33,"x_max":675,"o":"m 656 83 l 658 106 l 309 656 l 207 809 q 194 840 207 825 q 165 867 182 856 q 130 886 148 878 q 102 896 113 894 q 70 887 83 899 q 49 856 57 875 q 36 819 40 837 q 33 792 33 800 q 300 422 42 748 q 498 168 431 259 q 573 63 566 78 q 607 11 587 31 q 658 -9 627 -9 q 668 -8 661 -9 q 675 -7 674 -7 q 672 3 674 -3 q 667 19 670 10 q 659 51 661 40 q 656 83 656 63 z "},"]":{"ha":486,"x_min":17,"x_max":453,"o":"m 196 743 q 155 786 174 766 q 115 825 137 806 q 71 859 94 844 q 36 887 49 875 l 17 887 q 33 840 24 865 q 50 786 42 816 q 101 726 68 729 q 217 597 134 726 q 293 399 300 470 q 255 274 288 332 q 190 161 226 215 q 127 80 155 108 l 50 80 q 59 -36 30 -31 q 123 -45 92 -40 q 193 -50 155 -50 q 291 -27 252 -50 q 359 36 330 -3 q 411 130 389 76 q 453 245 432 184 l 453 255 q 442 318 453 280 q 417 403 431 356 q 358 526 405 451 q 196 743 314 602 z "},"^":{"ha":753,"x_min":28,"x_max":705,"o":"m 705 344 q 687 302 705 323 q 643 263 668 281 q 594 232 618 245 q 559 219 569 219 q 524 250 545 219 q 477 326 503 281 q 424 424 451 372 q 369 517 396 476 q 317 585 342 559 q 273 602 292 611 q 225 564 240 592 q 205 503 210 536 q 201 435 200 469 q 201 378 201 401 l 201 359 q 202 337 201 349 q 203 316 203 325 l 203 309 l 253 255 q 223 219 243 240 q 180 180 203 198 q 130 148 156 161 q 80 135 104 135 q 49 148 59 135 q 34 177 38 160 q 29 214 30 194 q 28 248 28 233 q 44 319 28 273 q 88 424 61 366 q 149 541 115 481 q 221 649 184 601 q 294 729 259 698 q 358 760 330 760 q 477 733 434 760 q 549 661 521 705 q 600 560 578 616 q 655 448 622 503 q 687 398 668 422 q 705 344 705 373 z "},"_":{"ha":615,"x_min":2,"x_max":599,"o":"m 2 -122 q 26 -88 2 -106 q 87 -56 50 -69 q 170 -33 127 -42 q 234 -24 214 -24 l 398 -24 q 512 -30 472 -24 q 599 -64 554 -33 q 566 -114 580 -101 q 531 -135 552 -127 q 493 -148 512 -142 q 444 -158 474 -153 l 115 -168 q 54 -158 69 -168 q 34 -146 47 -155 q 2 -127 21 -137 l 2 -122 z "},"`":{"ha":434,"x_min":33,"x_max":392,"o":"m 248 872 q 269 839 250 868 q 312 776 288 809 q 353 714 335 743 q 372 681 372 686 q 372 667 370 672 q 380 656 375 661 q 389 646 385 651 q 392 632 392 641 l 372 601 q 340 595 361 587 q 298 619 319 602 q 257 654 276 635 q 229 679 238 672 l 33 816 l 94 901 q 128 895 102 892 q 180 899 153 898 q 227 897 207 901 q 248 872 248 892 z "},"a":{"ha":712,"x_min":14,"x_max":696,"o":"m 14 179 q 65 39 14 80 q 208 -2 116 -2 q 288 10 253 -2 q 350 35 323 21 q 398 60 377 49 q 441 71 420 71 q 483 58 470 71 q 503 17 495 45 q 534 14 510 16 q 564 12 557 12 q 610 17 587 12 q 653 34 634 23 q 684 64 672 45 q 696 111 696 83 q 695 127 696 116 q 694 139 694 137 q 689 148 694 141 q 677 165 684 156 q 665 181 670 174 q 660 191 660 189 q 628 373 634 285 q 608 556 622 462 q 587 556 602 556 q 556 556 573 556 q 523 557 538 557 q 503 557 509 557 q 335 534 422 557 q 177 464 248 510 q 60 345 106 417 q 14 179 14 274 m 155 309 q 201 420 155 389 q 330 451 247 451 q 410 438 382 451 q 451 398 438 424 q 468 339 465 373 q 470 260 470 304 q 470 240 470 255 q 470 208 470 226 q 469 175 469 191 q 469 156 469 161 q 418 123 450 127 q 356 120 387 120 q 326 121 349 120 q 295 122 302 122 q 253 166 278 148 q 207 203 229 184 q 170 247 186 222 q 155 309 155 271 z "},"b":{"ha":625,"x_min":16,"x_max":608,"o":"m 16 451 q 24 526 16 486 q 46 607 33 566 q 70 683 59 648 q 87 747 82 719 q 116 773 106 759 q 136 801 127 786 q 158 829 146 816 q 191 851 170 842 q 192 843 191 849 q 193 833 193 837 q 190 813 193 823 q 174 799 188 804 l 174 781 q 173 755 174 769 q 172 729 172 741 l 172 712 q 175 657 172 679 q 185 615 179 635 q 197 573 191 594 q 208 521 203 552 q 216 520 210 521 q 226 519 222 519 q 282 536 253 519 q 342 573 311 552 q 409 610 373 594 q 486 627 444 627 l 531 627 q 573 608 556 627 q 582 580 576 601 q 592 537 587 559 q 602 496 597 516 q 608 469 606 476 l 608 451 l 608 434 q 592 403 604 425 q 566 355 580 380 q 539 308 552 330 q 521 278 526 286 l 509 266 q 499 255 503 260 q 489 245 495 250 q 470 223 483 240 q 434 179 457 207 q 396 133 413 151 q 362 100 378 115 q 329 74 345 85 q 295 50 313 63 q 218 13 259 26 q 139 0 177 0 q 95 28 115 0 q 63 99 76 56 q 40 195 49 142 q 25 299 31 248 q 17 391 19 349 q 16 451 16 432 m 385 181 q 448 274 443 259 q 463 308 457 290 q 469 349 469 326 q 452 409 469 380 q 411 458 436 438 q 354 487 385 481 q 295 493 323 493 q 253 476 274 486 q 226 451 233 465 q 212 417 217 439 q 207 377 207 394 q 205 311 207 351 q 207 233 203 271 q 223 166 210 194 q 267 137 236 137 q 332 147 302 137 q 385 181 363 156 z "},"c":{"ha":500,"x_min":16,"x_max":474,"o":"m 16 186 q 24 89 16 125 q 55 32 33 52 q 114 5 76 12 q 208 -2 151 -2 q 275 -1 236 -2 q 351 10 314 0 q 412 44 387 21 q 438 113 438 68 q 437 126 438 116 q 434 139 436 135 q 332 153 384 144 q 236 183 280 161 q 165 244 193 205 q 137 347 137 283 q 162 420 137 396 q 225 457 188 444 q 306 474 262 469 q 386 492 349 479 q 449 533 424 505 q 474 615 474 561 q 313 579 394 615 q 165 484 231 543 q 57 346 99 424 q 16 186 16 269 z "},"d":{"ha":694,"x_min":16,"x_max":677,"o":"m 434 123 q 374 112 403 123 q 313 87 345 101 q 243 62 281 73 q 155 50 205 50 q 86 57 113 50 q 43 81 59 64 q 22 125 28 97 q 16 194 16 153 q 34 288 16 245 q 82 369 52 332 q 148 437 111 406 q 226 491 186 467 q 278 525 253 510 q 326 554 302 540 q 418 585 377 583 q 490 622 464 587 q 477 672 483 649 q 465 712 470 694 q 457 739 462 729 q 449 754 453 748 q 439 764 444 760 q 427 774 434 767 q 403 802 399 802 q 411 806 406 804 q 427 814 417 809 q 457 829 441 821 q 490 845 474 837 q 518 859 505 854 q 538 868 531 865 q 546 869 540 868 q 556 870 552 870 q 608 846 587 870 q 640 788 628 823 q 655 712 651 753 q 660 632 660 670 l 660 556 l 677 191 l 677 160 q 665 105 677 130 q 633 61 653 80 q 589 26 613 42 q 538 0 564 10 q 510 35 517 14 q 497 76 503 56 q 477 109 490 95 q 434 123 465 123 m 172 330 q 175 268 172 297 q 192 219 179 240 q 233 185 205 198 q 307 172 260 172 l 363 172 q 457 183 411 172 q 526 226 503 194 l 526 243 q 527 269 526 255 q 528 295 528 283 l 528 313 q 524 380 528 351 q 508 429 521 410 q 467 458 495 448 q 389 469 439 469 q 296 464 337 469 q 228 445 255 460 q 187 404 201 431 q 172 330 172 377 z "},"e":{"ha":469,"x_min":16,"x_max":465,"o":"m 16 208 q 44 339 16 271 q 122 464 73 406 q 234 557 170 521 q 365 594 297 594 q 379 594 370 594 q 399 593 389 594 q 420 591 410 592 q 434 590 431 590 q 451 573 450 587 q 453 547 453 559 q 430 449 453 498 q 378 358 406 399 q 323 274 351 316 q 293 208 295 233 l 293 196 q 297 166 293 184 q 313 148 300 148 l 465 148 q 462 131 465 148 q 451 104 458 115 q 405 60 432 80 q 347 26 378 40 q 284 5 316 12 q 220 -2 252 -2 q 62 47 108 -2 q 16 208 16 95 m 155 365 q 158 334 155 358 q 169 288 161 311 q 191 250 177 266 q 226 243 205 234 q 262 269 248 253 q 284 304 276 285 q 294 344 292 323 q 297 385 297 365 q 280 451 297 431 q 217 472 264 472 q 195 470 212 472 q 174 469 179 469 q 156 418 158 441 q 155 365 155 394 z "},"f":{"ha":521,"x_min":17,"x_max":507,"o":"m 156 212 l 139 316 q 78 326 115 319 q 17 351 42 333 q 37 390 24 372 q 65 424 50 408 q 95 457 80 441 q 122 490 109 474 q 192 610 158 545 q 267 731 226 675 q 366 824 309 786 q 507 861 424 861 q 490 793 507 825 q 447 738 474 760 q 385 704 420 715 q 313 698 351 693 q 296 670 299 682 q 293 639 293 658 q 308 555 293 585 q 344 510 323 524 q 390 489 365 495 q 437 479 415 483 q 473 470 458 476 q 488 446 488 464 q 463 393 488 413 q 406 356 438 373 q 347 322 375 339 q 313 281 319 306 q 308 259 311 274 q 303 224 306 243 q 298 188 300 205 q 295 160 295 170 q 294 85 295 139 q 293 -31 293 31 q 294 -147 293 -92 q 295 -222 295 -201 q 275 -265 290 -240 q 240 -313 260 -290 q 198 -353 219 -337 q 156 -370 177 -370 l 156 212 z "},"g":{"ha":625,"x_min":16,"x_max":608,"o":"m 87 -266 l 87 -257 q 153 -188 127 -212 q 199 -155 179 -165 q 235 -145 219 -146 q 273 -144 252 -144 q 325 -140 295 -144 q 399 -118 354 -135 q 421 -102 408 -115 q 434 -83 434 -89 l 434 73 q 421 89 434 87 q 399 92 408 92 q 346 81 372 92 q 296 56 321 69 q 246 32 271 43 q 191 21 220 21 q 63 59 111 21 q 16 177 16 97 q 57 338 16 264 q 165 465 99 411 q 312 549 231 519 q 472 580 392 580 l 493 580 q 532 578 512 580 q 556 576 552 576 l 573 559 q 576 543 573 559 q 581 504 578 526 q 586 458 583 483 q 590 420 589 434 q 595 340 592 391 q 601 241 597 290 q 606 154 604 193 q 608 108 608 115 q 569 -43 604 35 q 477 -183 533 -120 q 352 -287 422 -247 q 208 -328 281 -328 l 170 -328 q 141 -326 156 -328 q 115 -316 127 -323 q 95 -297 102 -309 q 87 -266 87 -285 m 172 347 q 220 213 172 264 q 347 161 267 161 q 419 186 403 161 q 436 266 436 210 q 431 345 436 313 q 413 400 427 378 q 372 432 399 422 q 295 443 344 443 q 281 443 292 443 q 260 442 271 443 q 240 441 250 441 q 226 441 231 441 q 187 399 201 422 q 172 347 172 377 z "},"h":{"ha":625,"x_min":17,"x_max":615,"o":"m 52 104 l 17 521 l 17 540 q 23 601 17 559 q 40 705 30 642 q 52 763 45 736 q 69 810 59 790 q 94 839 80 830 q 128 844 108 849 q 137 743 135 774 q 143 670 139 710 q 155 589 148 630 q 170 512 160 549 q 181 486 177 497 q 190 470 184 476 q 204 463 196 465 q 226 455 212 460 q 290 469 253 462 q 359 503 326 476 q 428 551 392 530 q 503 573 464 573 q 560 555 538 573 q 594 507 582 536 q 610 441 606 477 q 615 366 615 405 q 612 298 615 330 q 609 243 609 266 l 609 226 q 609 200 609 214 q 608 174 608 186 l 608 156 q 564 95 594 122 q 495 68 535 68 q 482 69 491 68 q 469 69 472 69 q 467 142 467 104 q 464 222 467 184 q 456 296 462 260 q 435 359 450 332 q 393 402 420 385 q 323 418 366 418 q 234 384 264 418 q 194 299 205 349 q 186 196 184 250 q 191 104 188 142 q 177 72 188 90 q 153 37 167 54 q 123 10 139 21 q 95 -2 108 -2 q 91 -1 94 -2 q 87 0 89 0 q 75 54 83 24 q 52 104 66 83 z "},"i":{"ha":271,"x_min":24,"x_max":219,"o":"m 24 368 q 36 411 24 389 q 68 453 49 434 q 110 484 87 472 q 156 497 134 497 l 167 497 q 174 493 167 497 q 192 484 182 490 q 210 471 201 477 q 219 460 219 465 l 219 142 q 202 98 219 120 q 164 59 186 76 q 118 26 142 42 q 80 0 94 10 q 68 82 76 36 q 49 177 59 128 q 32 275 40 226 q 24 368 24 325 m 201 825 l 201 733 q 164 711 181 726 q 131 681 148 696 q 96 654 115 665 q 52 642 78 642 q 61 710 52 677 q 88 769 69 743 q 134 810 106 795 q 201 825 161 825 z "},"j":{"ha":351,"x_min":-309,"x_max":319,"o":"m 281 804 l 281 712 q 244 690 260 705 q 211 660 227 675 q 176 633 194 644 q 134 622 158 622 q 141 689 134 656 q 168 748 149 722 q 214 789 186 774 q 281 804 241 804 m 281 469 q 318 215 319 273 q 314 157 316 186 q 307 99 313 128 q 280 -16 299 40 q 219 -156 260 -73 q 151 -271 177 -240 q 90 -319 127 -302 q 11 -343 54 -337 q -66 -349 -31 -349 q -147 -339 -104 -349 q -226 -309 -189 -330 q -286 -254 -262 -288 q -309 -174 -309 -220 q -302 -135 -309 -161 q -285 -82 -295 -108 q -258 -36 -274 -56 q -224 -16 -241 -16 q -198 -25 -212 -16 q -170 -49 -184 -35 q -141 -82 -156 -64 q -104 -120 -125 -101 q -38 -165 -76 -148 q 52 -194 -2 -186 q 156 -160 106 -203 q 191 -73 184 -99 q 193 -4 196 -50 q 189 95 189 42 q 165 259 189 149 q 135 427 142 365 q 281 469 128 490 z "},"k":{"ha":587,"x_min":17,"x_max":559,"o":"m 17 418 q 56 620 17 528 q 181 802 95 712 q 220 826 215 837 q 224 788 224 816 q 195 727 208 753 q 170 682 182 701 q 149 604 149 646 l 149 564 q 153 531 149 549 q 162 499 156 514 q 180 476 168 484 q 208 467 191 467 q 220 468 212 467 q 229 469 229 469 q 239 477 231 469 q 248 488 247 486 q 289 505 259 493 q 354 531 319 517 q 419 558 389 545 q 460 576 450 571 q 464 577 462 576 q 470 578 467 578 q 493 568 486 578 q 500 543 500 557 q 488 484 500 510 q 459 431 476 457 q 431 380 443 406 q 418 323 418 354 q 440 280 418 295 q 489 248 462 264 q 537 215 516 233 q 559 167 559 198 q 555 120 559 146 q 538 71 550 94 q 507 33 526 49 q 460 17 488 17 q 450 18 457 17 q 441 19 443 19 q 429 29 438 21 q 411 45 420 36 q 393 63 401 54 q 384 73 385 71 q 371 76 384 73 q 349 101 358 78 q 325 130 340 123 q 281 156 309 137 l 247 149 q 220 120 231 134 q 201 95 210 106 q 183 75 191 83 q 163 59 175 66 q 125 30 142 45 q 94 0 108 14 l 35 56 q 33 91 35 56 q 28 175 31 127 q 22 275 24 224 q 17 361 19 326 l 17 418 m 295 401 q 250 393 273 401 q 210 371 227 385 q 181 335 193 356 q 170 288 170 314 q 211 297 182 288 q 271 309 240 306 q 326 326 302 313 q 349 363 349 340 q 334 396 349 391 q 295 401 319 401 z "},"l":{"ha":278,"x_min":17,"x_max":274,"o":"m 17 604 q 22 655 17 622 q 36 720 26 688 q 65 777 47 753 q 113 800 83 800 q 118 799 115 800 q 122 799 122 799 q 129 788 123 795 q 140 773 135 781 q 149 759 144 766 q 156 747 155 752 q 161 698 158 731 q 166 624 163 665 q 172 538 168 583 q 179 452 175 493 q 186 378 182 411 q 191 330 189 345 q 201 273 194 299 q 214 222 207 247 q 220 197 219 210 q 225 173 222 184 q 230 155 227 161 q 238 148 233 148 q 260 139 245 148 q 274 122 274 139 q 262 89 274 102 l 245 78 q 230 71 234 73 q 226 69 226 69 l 87 0 q 79 7 85 0 q 69 17 73 14 q 51 80 59 35 q 37 185 43 125 q 28 312 31 245 q 22 438 24 378 q 18 542 19 497 q 17 604 17 587 z "},"m":{"ha":990,"x_min":12,"x_max":974,"o":"m 104 35 l 139 0 q 201 79 181 35 q 230 169 220 123 q 244 260 240 215 q 258 340 248 306 q 286 397 267 375 q 345 418 306 418 q 371 413 354 418 q 403 400 387 408 q 431 383 418 392 q 443 365 443 373 l 443 87 q 457 56 443 63 q 484 50 470 50 q 558 80 533 50 q 595 155 583 109 q 609 251 606 200 q 618 347 611 302 q 641 422 625 392 q 694 451 658 451 q 759 430 738 451 q 786 373 780 408 q 793 293 793 339 q 796 206 793 250 q 809 121 799 161 q 851 52 819 80 q 917 108 892 76 q 954 174 941 139 q 970 252 967 210 q 974 339 974 293 q 974 361 974 345 q 973 395 974 377 q 972 429 972 413 q 972 451 972 444 q 957 490 964 469 q 939 530 950 512 q 915 562 929 549 q 878 575 901 575 q 813 558 845 575 q 750 522 780 542 q 694 485 720 502 q 651 469 668 469 l 642 469 q 608 490 623 476 q 578 518 592 503 q 549 544 564 533 q 512 556 533 556 q 451 542 479 556 q 398 510 424 528 q 344 479 372 493 q 285 465 316 465 q 248 474 262 465 q 223 494 234 483 q 200 514 212 505 q 167 523 188 523 q 118 512 146 523 q 66 485 90 502 q 27 446 42 469 q 17 399 12 424 q 30 372 19 391 q 55 334 40 354 q 83 298 69 314 q 104 278 97 281 l 104 35 z "},"n":{"ha":649,"x_min":16,"x_max":625,"o":"m 16 446 q 32 486 16 469 q 72 515 49 503 q 122 531 95 526 q 167 536 148 536 q 195 527 184 536 q 217 507 207 517 q 239 488 227 497 q 267 479 250 479 q 321 491 297 479 q 370 517 345 503 q 420 543 394 531 q 477 554 446 554 q 532 539 512 554 q 569 507 552 524 q 606 475 587 490 q 622 439 625 460 l 590 392 q 591 350 590 380 q 592 286 592 319 q 591 221 592 252 q 590 179 590 191 q 579 141 589 163 q 555 99 569 118 q 522 67 540 80 q 486 54 503 54 q 468 61 481 54 q 451 73 455 68 q 449 95 450 82 q 448 125 448 108 q 446 223 448 167 q 434 330 444 280 q 401 415 424 380 q 339 450 378 450 q 279 426 297 450 q 253 365 260 403 q 245 280 247 328 q 234 181 243 231 q 205 83 226 130 q 139 0 184 36 q 102 39 115 16 q 87 90 90 63 q 82 135 85 99 q 77 214 80 172 q 73 293 75 257 q 69 339 71 330 q 59 371 68 358 q 41 395 50 384 q 23 418 31 406 q 16 446 16 431 z "},"o":{"ha":642,"x_min":9,"x_max":627,"o":"m 16 189 q 47 349 9 278 q 148 470 85 420 q 292 548 212 521 q 451 575 372 575 q 582 527 536 575 q 627 396 627 479 q 626 378 627 389 q 625 365 625 366 q 573 220 608 288 q 486 103 538 153 q 367 26 434 54 q 217 -2 300 -2 l 198 -2 q 169 -1 184 -2 q 141 0 155 0 l 122 0 q 71 42 92 23 q 37 82 50 61 q 20 130 24 104 q 16 189 16 156 m 172 361 q 223 195 172 253 q 384 137 274 137 q 444 163 420 137 q 469 233 469 189 q 457 321 469 281 q 421 391 446 361 q 359 437 396 420 q 269 453 321 453 q 199 428 226 453 q 172 361 172 403 z "},"p":{"ha":625,"x_min":16,"x_max":609,"o":"m 16 385 q 41 453 16 432 q 102 480 66 474 q 178 484 139 486 q 243 486 217 483 q 299 504 274 490 q 349 535 323 519 q 405 563 375 550 q 477 575 436 575 q 579 549 549 575 q 609 451 609 523 q 591 361 609 394 q 556 295 573 328 q 539 268 547 281 q 524 247 531 255 q 462 146 510 229 l 243 -17 q 238 -76 241 -38 q 223 -152 234 -115 q 190 -217 212 -189 q 130 -245 168 -245 q 126 -244 128 -245 q 122 -243 123 -243 q 96 2 116 -122 q 52 243 76 125 q 30 314 43 281 q 16 385 16 347 m 420 181 q 474 304 483 266 q 462 342 469 323 q 446 377 455 361 q 398 431 427 410 q 321 453 368 453 q 295 450 311 453 q 264 439 280 446 q 237 423 248 432 q 226 399 226 413 l 226 191 q 250 149 226 161 q 304 135 274 137 q 334 133 319 134 q 363 135 349 132 q 391 149 377 139 q 420 181 406 160 z "},"q":{"ha":608,"x_min":24,"x_max":597,"o":"m 363 71 q 320 60 342 71 q 276 36 299 49 q 229 11 253 23 q 181 0 205 0 q 61 43 97 0 q 24 165 24 85 q 37 207 24 179 q 69 272 50 236 q 111 345 87 307 q 161 415 135 382 q 209 472 186 448 q 250 503 233 497 q 359 532 299 524 q 476 540 420 540 q 533 536 505 540 q 580 503 561 531 q 582 435 580 481 q 585 331 583 389 q 589 208 587 273 q 593 86 592 144 q 595 -19 594 28 q 597 -87 597 -66 l 597 -127 q 586 -168 597 -148 q 557 -207 575 -189 q 518 -234 540 -224 q 476 -245 497 -245 q 466 -244 472 -245 q 458 -243 460 -243 q 457 -201 458 -231 q 451 -139 455 -172 q 445 -76 448 -106 q 441 -35 443 -47 q 422 36 438 -2 q 363 71 408 71 m 168 285 q 201 179 168 214 q 304 144 233 144 q 365 147 340 144 q 405 161 391 149 q 427 196 420 174 q 434 259 434 219 q 428 316 434 288 q 408 364 422 344 q 371 395 394 384 q 313 406 347 406 q 280 406 300 406 q 238 400 259 406 q 199 384 217 394 q 174 354 181 373 q 172 340 174 351 q 170 319 170 330 q 169 299 170 309 q 168 285 168 288 z "},"r":{"ha":556,"x_min":16,"x_max":540,"o":"m 16 427 q 16 411 16 422 q 17 399 17 401 q 27 377 19 394 q 43 339 35 359 q 60 300 52 318 q 69 278 68 283 q 78 222 73 262 q 89 138 83 182 q 100 55 95 94 q 104 0 104 16 q 112 -1 106 0 q 122 -2 118 -2 q 158 12 137 -2 q 198 45 179 26 q 230 86 217 64 q 243 122 243 108 l 243 382 q 251 392 243 384 q 270 411 259 401 q 293 433 281 422 q 313 451 304 444 q 315 452 313 451 q 321 453 318 453 q 347 446 335 453 q 371 431 359 439 q 393 413 382 422 q 417 399 405 405 q 447 425 427 408 q 488 465 467 443 q 524 511 509 488 q 540 556 540 535 q 527 586 540 580 q 493 592 514 592 q 430 576 458 592 q 374 538 401 559 q 319 501 347 517 q 259 484 292 484 q 228 493 238 484 q 212 512 219 502 q 196 531 205 523 q 167 540 188 540 q 116 532 142 540 q 68 510 90 524 q 30 476 45 497 q 16 427 16 455 z "},"s":{"ha":521,"x_min":17,"x_max":505,"o":"m 365 191 q 342 150 365 160 q 286 139 319 141 q 214 137 253 137 q 142 125 175 137 q 87 82 109 113 q 64 -9 64 52 q 212 16 134 -9 q 355 84 290 40 q 463 193 420 128 q 505 339 505 257 q 504 360 505 344 q 503 382 503 377 q 424 404 472 401 q 332 410 377 406 q 256 430 288 413 q 224 495 224 446 q 225 508 224 498 q 226 521 226 517 q 292 525 255 523 q 360 538 328 528 q 414 570 392 549 q 436 634 436 592 q 435 647 436 637 q 434 660 434 656 q 309 620 380 649 q 173 547 238 590 q 63 448 108 503 q 17 330 17 392 q 43 305 17 313 q 108 291 69 297 q 191 280 146 285 q 274 266 236 276 q 339 239 313 257 q 365 191 365 220 z "},"t":{"ha":556,"x_min":16,"x_max":542,"o":"m 226 17 q 214 43 222 24 q 197 85 205 63 q 182 128 189 108 q 174 156 175 149 q 168 211 168 175 q 163 285 167 247 q 151 356 160 323 q 122 399 142 389 q 91 407 109 406 q 56 411 73 408 q 27 422 38 413 q 16 451 16 431 q 16 461 16 455 q 17 469 17 467 q 40 489 24 476 q 73 517 56 502 q 87 532 80 526 q 102 544 94 538 q 123 556 111 550 q 156 573 135 563 q 164 614 160 594 q 171 653 168 634 q 182 702 174 672 q 205 774 191 733 q 243 819 219 809 q 286 803 273 819 q 304 760 299 786 q 306 681 309 740 q 323 576 302 622 l 365 573 l 373 573 l 391 573 l 406 573 l 417 573 q 441 570 424 573 q 478 565 458 568 q 515 560 498 563 q 538 556 531 557 q 541 543 540 552 q 542 530 542 533 q 514 474 542 491 q 451 441 486 457 q 378 399 415 422 q 337 354 337 375 q 380 142 337 151 q 433 131 403 135 q 503 122 464 127 q 426 32 481 66 q 313 -2 372 -2 q 268 1 286 -2 q 226 17 250 3 z "},"u":{"ha":694,"x_min":16,"x_max":677,"o":"m 425 123 q 465 103 451 123 q 490 60 479 83 q 511 17 500 36 q 547 -2 523 -2 q 590 9 568 -2 q 632 36 613 19 q 664 76 651 54 q 677 122 677 99 q 671 171 677 144 q 642 208 665 198 q 635 239 641 217 q 625 286 630 260 q 615 333 620 311 q 608 365 609 356 l 590 486 q 582 528 585 514 q 557 542 580 542 q 512 523 531 542 q 481 480 493 505 q 461 427 469 455 q 451 382 453 399 q 447 352 450 373 q 442 305 444 330 q 437 257 439 280 q 434 226 434 234 q 399 191 425 193 q 351 189 373 189 q 266 218 293 189 q 229 289 240 247 q 220 381 219 332 q 220 472 220 431 q 214 544 220 516 q 184 573 208 573 q 128 560 158 573 q 74 526 99 547 q 32 478 49 505 q 16 425 16 451 q 16 420 16 424 q 17 417 17 417 q 39 392 26 403 q 65 371 52 382 q 87 345 78 359 q 95 313 95 332 l 95 69 q 106 47 95 54 q 131 36 116 40 q 160 33 146 33 q 181 33 174 33 q 247 47 217 33 q 306 78 278 61 q 364 109 335 95 q 425 123 392 123 z "},"v":{"ha":712,"x_min":17,"x_max":696,"o":"m 17 417 q 36 361 17 385 q 69 313 56 337 q 122 199 101 255 q 174 98 144 142 q 247 27 203 54 q 365 0 292 0 q 429 31 392 0 q 502 111 465 63 q 573 220 538 160 q 635 336 608 280 q 680 439 663 392 q 696 510 696 486 q 695 545 696 526 q 690 582 694 564 q 674 613 686 601 q 642 625 663 625 q 593 612 618 625 q 544 580 568 599 q 501 540 521 561 q 469 503 481 519 l 521 451 q 521 443 521 451 q 522 423 521 434 q 523 399 523 411 q 523 382 523 389 q 523 324 523 358 q 518 257 524 290 q 497 196 512 224 q 451 156 483 168 q 407 174 432 148 q 355 242 382 200 q 300 337 328 285 q 247 434 273 389 q 200 510 220 479 q 165 540 179 540 q 129 528 155 540 q 80 497 104 516 q 36 457 56 479 q 17 417 17 436 z "},"w":{"ha":1111,"x_min":16,"x_max":1095,"o":"m 477 186 q 415 162 441 186 q 361 109 389 139 q 298 56 333 80 q 207 33 262 33 q 168 49 182 33 q 145 89 155 66 q 131 134 135 111 q 122 168 127 156 q 102 213 116 181 q 72 280 89 245 q 40 345 56 314 q 17 387 24 375 q 16 408 17 392 q 16 429 16 424 q 37 506 16 472 q 113 540 59 540 q 183 515 156 540 q 227 451 210 490 q 254 370 243 413 q 280 288 266 326 q 319 225 295 250 q 384 200 342 200 q 445 221 418 200 q 472 278 472 243 q 471 293 472 283 q 469 302 470 302 l 365 453 q 401 492 385 469 q 432 537 417 516 q 469 575 448 559 q 517 590 490 590 q 575 561 552 590 q 615 486 597 531 q 648 388 632 441 q 686 290 663 335 q 741 214 708 245 q 828 184 774 184 q 919 222 884 184 q 955 319 955 260 q 944 372 955 351 q 915 406 932 392 q 877 431 898 420 q 839 451 856 441 q 809 472 821 462 q 797 497 797 483 q 819 544 797 524 q 872 578 842 564 q 936 598 903 592 q 990 604 969 604 q 1036 592 1016 604 q 1069 560 1056 580 q 1089 516 1082 540 q 1095 470 1095 493 q 1076 380 1095 431 q 1025 278 1057 330 q 950 175 993 226 q 859 85 906 125 q 761 22 811 45 q 667 -2 712 -2 q 618 12 635 -2 q 588 47 601 26 q 566 92 575 68 q 546 137 557 116 q 519 172 535 158 q 477 186 503 186 z "},"x":{"ha":521,"x_min":16,"x_max":503,"o":"m 182 104 q 139 85 155 104 q 124 67 132 75 q 109 52 116 59 q 90 31 102 45 q 59 -3 78 17 l 31 7 q 76 82 59 54 q 99 122 94 111 q 115 163 111 144 q 122 191 120 182 q 122 202 122 193 q 123 217 123 212 q 107 278 123 250 q 69 332 90 306 q 32 382 49 358 q 16 434 16 406 q 33 468 16 450 q 74 502 50 486 q 121 529 97 517 q 156 540 144 540 q 192 529 177 540 q 221 504 207 517 q 251 480 236 491 q 286 469 266 469 l 295 469 q 306 472 299 470 q 323 476 313 474 q 399 542 340 483 l 427 528 q 351 370 340 417 q 377 290 359 323 q 415 236 394 257 q 448 207 432 220 q 477 181 464 194 q 497 154 490 168 q 503 122 503 139 q 486 78 503 101 q 443 37 469 56 q 391 8 417 19 q 347 -3 365 -3 q 299 13 316 -3 q 266 50 281 30 q 234 88 252 71 q 182 104 215 104 z "},"y":{"ha":642,"x_min":16,"x_max":630,"o":"m 486 -52 l 486 -24 q 484 11 486 -14 q 479 63 483 36 q 473 115 476 90 q 469 149 470 139 q 460 150 467 149 q 444 152 453 151 q 427 153 436 153 q 417 153 420 153 q 358 136 384 153 q 308 100 332 120 q 259 63 285 80 q 200 45 233 45 q 141 69 163 45 q 103 124 118 92 q 81 192 89 156 q 69 253 73 227 q 68 286 69 260 q 63 340 66 311 q 56 395 59 370 q 52 427 54 420 q 48 439 52 429 q 37 462 43 450 q 25 484 31 474 q 17 497 19 495 q 16 500 17 497 q 16 505 16 503 q 29 537 16 521 q 61 569 42 554 q 102 592 80 583 q 139 601 123 601 q 168 574 158 601 q 186 506 179 547 q 201 418 193 465 q 225 330 208 372 q 271 261 241 288 q 349 234 300 234 q 411 240 387 234 q 449 262 436 247 q 466 303 462 278 q 470 366 470 328 q 460 445 470 408 q 450 524 450 483 q 477 592 450 566 q 547 618 503 618 q 569 605 559 618 q 589 576 580 592 q 602 547 597 561 q 608 531 608 533 q 625 391 623 465 q 627 252 627 318 q 628 187 627 224 q 628 111 630 149 q 618 36 627 73 q 590 -24 609 0 q 557 -65 582 -36 q 505 -128 533 -94 q 452 -191 477 -161 q 417 -233 427 -220 q 406 -237 413 -234 q 391 -243 399 -240 q 377 -248 384 -247 q 365 -250 370 -250 q 330 -252 356 -250 q 275 -253 304 -253 q 220 -255 247 -253 q 184 -257 194 -257 q 188 -216 184 -241 q 200 -168 191 -191 q 223 -128 208 -144 q 260 -111 238 -111 l 469 -111 q 484 -95 481 -111 q 486 -68 486 -80 l 486 -52 z "},"z":{"ha":521,"x_min":17,"x_max":503,"o":"m 314 365 q 295 389 314 378 q 247 409 276 399 q 184 426 219 418 q 115 439 149 434 q 56 447 82 444 q 17 451 30 450 q 133 541 61 512 q 278 573 205 569 q 323 571 290 573 q 391 566 356 569 q 459 560 427 563 q 503 556 491 557 q 470 505 495 542 q 413 429 444 469 q 384 390 399 410 q 352 347 368 370 q 260 226 323 306 q 268 208 262 222 q 278 191 274 194 q 308 188 286 191 q 355 183 330 186 q 404 178 380 181 q 434 174 427 175 q 450 168 441 172 q 467 158 458 163 q 482 146 476 153 q 488 130 488 139 q 473 92 488 115 q 438 49 458 69 q 392 13 417 28 q 349 -2 368 -2 q 286 5 319 -2 q 220 22 253 12 q 154 40 188 31 q 87 52 120 49 l 87 104 q 116 139 99 115 q 153 188 135 167 q 194 240 170 208 q 220 270 207 253 q 250 302 234 286 q 298 344 281 333 q 314 365 314 354 z "},"{":{"ha":486,"x_min":17,"x_max":453,"o":"m 274 94 q 315 51 297 71 q 354 12 333 31 q 399 -23 377 -7 q 434 -50 422 -38 l 453 -50 q 438 -3 446 -28 q 420 52 429 23 q 370 109 403 109 q 253 240 337 113 q 177 436 170 366 q 214 564 184 503 q 280 675 245 622 q 344 757 316 729 l 420 757 q 410 872 441 868 q 347 882 378 877 q 278 887 316 887 q 180 865 219 887 q 112 801 141 842 q 62 707 83 760 q 17 592 40 653 l 17 582 q 29 519 17 557 q 52 434 40 481 q 111 309 66 389 q 175 219 135 273 q 274 94 215 165 z "},"|":{"ha":278,"x_min":19,"x_max":247,"o":"m 247 175 q 243 111 247 155 q 228 25 240 68 q 198 -49 217 -17 q 151 -82 179 -82 q 146 -77 149 -82 q 142 -73 142 -73 q 123 -43 139 -69 q 108 -10 109 -16 q 102 100 106 24 q 92 262 97 175 q 87 350 89 307 q 82 430 85 392 q 77 496 80 467 q 73 538 75 524 q 63 614 69 580 q 50 681 57 648 q 44 714 47 698 q 39 746 42 731 q 31 792 36 760 q 19 868 26 823 q 34 878 30 875 q 38 880 38 880 l 177 970 q 185 962 179 970 q 194 946 191 953 q 209 896 203 934 q 220 806 215 858 q 230 691 226 753 q 237 564 234 628 q 242 438 240 500 q 246 325 245 377 q 247 233 247 273 q 247 175 247 193 z "},"}":{"ha":486,"x_min":17,"x_max":453,"o":"m 196 94 q 155 51 174 71 q 115 12 137 31 q 71 -23 94 -7 q 36 -50 49 -38 l 17 -50 q 33 -3 24 -28 q 50 52 42 23 q 101 109 68 109 q 217 239 134 111 q 293 436 300 366 q 255 564 286 505 q 190 675 226 622 q 127 757 155 729 l 50 757 q 59 872 30 868 q 123 882 92 877 q 193 887 155 887 q 291 865 252 887 q 359 801 330 842 q 409 707 387 760 q 453 592 431 653 l 453 582 q 442 519 453 557 q 417 434 431 481 q 358 309 405 387 q 196 94 314 233 z "},"~":{"ha":495,"x_min":9,"x_max":476,"o":"m 9 243 q 20 316 9 281 q 52 372 31 351 q 161 422 94 422 q 276 384 203 422 l 274 384 q 303 372 292 377 q 319 366 314 366 q 336 365 328 366 q 357 367 344 363 q 390 387 370 372 q 441 439 410 403 l 476 405 q 463 307 476 344 q 428 252 450 271 q 378 228 406 233 q 319 224 351 224 q 205 264 271 224 q 160 283 174 283 q 143 279 149 283 q 130 267 137 274 q 95 242 115 255 q 38 222 76 229 l 9 243 z "},"":{"ha":799,"x_min":16,"x_max":781,"o":"m 16 68 q 51 201 33 120 q 91 372 69 281 q 140 556 113 464 q 203 722 167 649 q 288 842 240 795 q 399 889 337 889 q 458 859 427 885 q 521 793 490 832 q 581 707 552 753 q 633 618 609 661 q 673 539 656 575 q 694 486 689 503 q 737 330 715 406 q 781 174 759 253 q 781 167 781 170 q 781 160 781 163 q 781 105 781 125 q 781 73 781 85 q 781 62 781 64 q 780 59 781 59 q 696 56 747 59 q 593 49 646 52 q 494 44 540 47 q 425 42 448 42 q 312 35 365 42 q 214 20 259 28 q 131 5 168 12 q 69 -2 94 -2 q 39 1 50 -2 q 23 11 28 3 q 16 31 17 19 q 16 61 16 43 l 16 68 z "},"":{"ha":226,"x_min":16,"x_max":193,"o":"m 16 73 q 30 118 16 95 q 65 157 43 141 q 114 184 87 174 q 167 194 141 194 q 188 176 184 194 q 193 137 193 158 l 193 116 q 188 67 193 101 q 172 0 184 33 q 157 -31 165 -17 q 139 -59 149 -45 q 114 -90 128 -73 q 80 -128 99 -108 q 52 -87 31 -128 q 52 -16 69 -45 q 23 40 31 14 q 16 73 16 66 z "},"":{"ha":521,"x_min":-134,"x_max":507,"o":"m 158 -59 l 139 316 q 78 326 115 319 q 17 351 42 333 q 37 390 24 372 q 65 424 50 408 q 95 457 80 441 q 122 490 109 474 q 192 610 158 545 q 267 731 226 675 q 366 824 309 786 q 507 861 424 861 q 490 793 507 825 q 447 738 474 760 q 385 704 420 715 q 313 698 351 693 q 296 670 299 682 q 293 639 293 658 q 308 555 293 585 q 344 510 323 524 q 390 489 365 495 q 437 479 415 483 q 473 470 458 476 q 488 446 488 464 q 463 393 488 413 q 406 356 438 373 q 347 322 375 339 q 313 281 319 306 q 308 259 311 274 q 303 224 306 243 q 298 188 300 205 q 295 160 295 170 q 294 85 295 139 q 293 -31 293 31 q 278 -76 293 -52 q 239 -128 262 -101 q 189 -181 215 -155 q 139 -229 163 -207 q 100 -268 115 -252 q 85 -292 85 -285 q 52 -319 80 -309 q -10 -336 24 -330 q -80 -344 -45 -342 q -134 -345 -115 -345 l 158 -59 z "},"":{"ha":493,"x_min":16,"x_max":458,"o":"m 16 73 q 30 118 16 95 q 65 157 43 141 q 114 184 87 174 q 167 194 141 194 q 188 176 184 194 q 193 137 193 158 l 193 116 q 188 67 193 101 q 172 0 184 33 q 157 -31 165 -17 q 139 -59 149 -45 q 114 -90 128 -73 q 80 -128 99 -108 q 52 -87 31 -128 q 52 -16 69 -45 q 23 40 31 14 q 16 73 16 66 m 281 73 q 295 118 281 95 q 330 157 309 141 q 378 184 351 174 q 432 194 406 194 q 453 176 448 194 q 458 137 458 158 l 458 116 q 454 67 458 101 q 438 0 450 33 q 423 -31 431 -17 q 404 -59 415 -45 q 378 -90 392 -73 q 345 -128 365 -108 q 316 -87 297 -128 q 316 -16 335 -45 q 289 40 297 14 q 281 73 281 66 z "},"":{"ha":844,"x_min":16,"x_max":731,"o":"m 16 61 q 30 105 16 82 q 69 148 45 128 q 118 179 92 167 q 165 191 144 191 q 202 178 194 191 q 210 141 210 165 q 200 93 210 118 q 172 47 189 68 q 132 12 155 26 q 85 -2 109 -2 q 65 1 73 -2 q 50 10 57 3 q 36 28 43 17 q 17 52 30 38 q 16 55 17 52 q 16 61 16 57 m 276 63 q 292 107 276 83 q 330 149 307 130 q 379 181 352 168 q 427 193 406 193 q 463 180 455 193 q 470 142 470 167 q 460 95 470 120 q 432 49 450 69 q 393 14 415 28 q 345 0 372 0 q 326 3 333 0 q 311 11 318 5 q 297 28 304 17 q 280 54 290 38 q 278 56 280 54 q 276 63 276 59 m 536 61 q 551 105 536 82 q 589 148 566 128 q 639 179 613 167 q 686 191 665 191 q 723 178 715 191 q 731 141 731 165 q 720 93 731 118 q 693 47 710 68 q 653 12 675 26 q 606 -2 630 -2 q 586 1 594 -2 q 571 10 578 3 q 557 28 564 17 q 538 52 550 38 q 537 55 538 52 q 536 61 536 57 z "},"":{"ha":613,"x_min":14,"x_max":580,"o":"m 330 17 q 342 43 333 24 q 359 85 351 63 q 373 128 366 108 q 382 156 380 149 q 388 211 387 175 q 392 285 389 247 q 405 356 396 323 q 434 399 413 389 q 471 413 446 406 q 521 429 497 420 q 563 451 545 438 q 580 486 580 465 q 579 496 580 490 q 578 503 578 502 q 556 523 571 510 q 524 552 540 536 q 503 562 516 561 q 473 561 490 563 q 438 561 457 559 q 399 573 420 563 q 391 614 396 594 q 385 653 387 634 q 373 702 382 672 q 351 774 365 733 q 313 819 337 809 q 270 803 283 819 q 252 760 257 786 q 250 681 247 740 q 233 576 253 622 l 191 573 l 182 573 l 165 573 l 149 573 l 139 573 q 115 570 132 573 q 77 565 97 568 q 40 560 57 563 q 17 556 23 557 q 15 543 16 552 q 14 530 14 533 q 42 474 14 491 q 104 441 69 457 q 177 399 141 422 q 219 354 219 375 q 208 181 219 253 q 198 64 198 109 q 190 40 198 52 q 181 19 182 28 q 191 4 179 10 q 243 -2 203 -2 q 287 1 269 -2 q 330 17 306 3 z "},"":{"ha":613,"x_min":12,"x_max":580,"o":"m 330 17 q 339 42 332 24 q 356 80 347 59 q 372 122 365 101 q 380 153 378 142 q 433 164 399 158 q 499 180 467 170 q 556 201 531 189 q 580 233 580 214 q 578 243 580 238 q 576 252 576 248 q 554 271 569 259 q 523 300 538 283 q 502 309 514 309 q 475 308 490 309 q 442 308 460 307 q 405 316 424 309 q 414 367 408 344 q 434 399 420 391 q 469 415 444 408 q 518 431 493 422 q 562 453 543 441 q 580 486 580 465 q 579 496 580 490 q 578 503 578 502 q 556 523 571 510 q 524 552 540 536 q 503 562 516 561 q 473 561 490 563 q 438 561 457 559 q 399 573 420 563 q 391 614 396 594 q 385 653 387 634 q 373 702 382 672 q 351 774 365 733 q 313 819 337 809 q 270 803 283 819 q 252 760 257 786 q 250 681 247 740 q 233 576 253 622 l 191 573 l 139 573 q 115 570 132 573 q 77 565 97 568 q 40 560 57 563 q 17 556 23 557 q 15 543 16 552 q 14 530 14 533 q 42 474 14 491 q 104 441 69 457 q 177 399 141 422 q 219 354 219 375 l 219 316 l 148 321 l 137 321 q 113 319 130 321 q 76 313 95 316 q 38 306 56 309 q 16 302 21 304 q 13 291 14 300 q 12 276 12 281 q 40 222 12 240 q 102 188 68 205 q 146 173 115 181 q 205 156 177 165 q 200 106 201 128 q 198 64 198 83 q 190 40 198 52 q 181 19 182 28 q 191 4 179 10 q 243 -2 203 -2 q 287 1 269 -2 q 330 17 306 3 z "},"":{"ha":602,"x_min":36,"x_max":578,"o":"m 578 1014 q 563 990 578 1003 q 529 966 549 977 q 489 948 509 955 q 462 941 469 941 q 433 958 450 941 q 396 1003 417 976 q 352 1063 375 1031 q 309 1119 330 1094 q 267 1160 288 1144 q 233 1170 247 1175 q 194 1147 207 1163 q 178 1110 182 1130 q 174 1069 174 1090 q 175 1035 175 1049 l 175 1024 q 176 1010 175 1017 q 177 998 177 1003 l 177 993 l 217 962 q 193 939 208 951 q 157 916 177 927 q 116 897 137 905 q 78 889 95 889 q 53 897 61 889 q 41 915 45 905 q 36 936 36 925 q 36 957 36 948 q 49 999 36 970 q 84 1063 63 1028 q 134 1133 106 1097 q 191 1197 161 1168 q 249 1245 220 1226 q 300 1264 278 1264 q 395 1247 359 1264 q 453 1204 431 1231 q 493 1144 476 1177 q 538 1076 510 1111 q 563 1047 549 1061 q 578 1014 578 1033 z "},"":{"ha":1497,"x_min":7,"x_max":1439,"o":"m 241 90 l 240 113 l 589 663 l 691 816 q 703 847 691 832 q 733 874 715 863 q 767 893 750 885 q 795 903 785 901 q 826 894 813 906 q 847 863 839 882 q 860 826 856 844 q 865 799 865 807 q 597 429 856 757 q 399 175 467 266 q 325 69 332 85 q 291 18 311 38 q 240 -2 271 -2 q 230 -1 236 -2 q 222 0 224 0 q 226 10 224 3 q 229 26 227 17 q 239 58 236 47 q 241 90 241 69 m 363 517 q 315 461 337 474 q 253 448 293 448 q 213 449 236 448 q 170 462 189 450 q 114 511 142 477 q 62 589 85 545 q 23 679 38 632 q 7 767 7 726 q 18 813 7 788 q 45 855 30 837 q 80 886 61 873 q 115 899 99 899 q 208 872 163 899 q 288 799 253 844 q 343 694 323 753 q 363 573 363 635 l 363 559 l 363 531 l 363 517 m 257 681 q 247 760 257 733 q 198 797 236 788 q 159 805 177 802 q 128 799 141 807 q 106 773 115 792 q 97 719 97 753 q 102 683 97 703 q 114 643 108 663 q 126 609 120 623 q 135 589 132 594 q 171 567 146 582 q 215 552 196 552 q 248 576 240 556 q 257 630 257 595 l 257 681 m 1017 80 q 970 22 991 35 q 908 9 948 9 q 867 10 891 9 q 825 23 844 10 q 768 73 797 38 q 715 150 740 108 q 676 240 691 193 q 661 328 661 286 q 673 374 661 351 q 700 416 684 398 q 734 447 715 434 q 767 460 753 460 q 863 433 818 460 q 942 361 908 406 q 997 257 976 316 q 1017 134 1017 198 l 1017 120 l 1017 92 l 1017 80 m 911 241 q 901 322 911 295 q 852 358 891 349 q 813 366 832 365 q 781 360 795 368 q 760 334 767 352 q 752 281 752 316 q 756 244 752 264 q 767 204 760 224 q 780 169 774 184 q 788 149 786 155 q 826 128 800 142 q 870 115 851 115 q 903 136 894 116 q 911 191 911 156 l 911 241 m 1439 69 q 1391 11 1413 24 q 1330 -2 1370 -2 q 1289 0 1313 -2 q 1247 12 1266 2 q 1190 63 1219 30 q 1138 141 1161 97 q 1099 230 1115 184 q 1083 318 1083 276 q 1095 364 1083 340 q 1122 406 1106 387 q 1156 438 1137 425 q 1191 450 1175 450 q 1285 423 1240 450 q 1365 351 1330 396 q 1419 247 1399 306 q 1439 123 1439 188 l 1439 109 l 1439 82 l 1439 69 m 1333 233 q 1323 312 1333 285 q 1274 349 1313 339 q 1235 356 1253 354 q 1204 351 1217 358 q 1182 325 1191 344 q 1174 271 1174 306 q 1179 234 1174 253 q 1190 194 1184 214 q 1202 160 1196 175 q 1212 141 1208 144 q 1247 119 1222 134 q 1292 104 1273 104 q 1325 128 1316 108 q 1333 182 1333 148 l 1333 233 z "},"":{"ha":885,"x_min":16,"x_max":870,"o":"m 189 61 q 215 121 189 101 q 274 141 241 141 q 353 133 314 141 q 432 116 392 125 q 470 109 451 113 q 510 99 490 104 q 627 155 549 89 q 684 269 705 220 q 609 355 661 332 q 485 382 556 378 q 334 376 415 385 q 174 365 253 366 q 137 372 163 366 q 84 389 111 378 q 36 415 57 399 q 16 451 16 431 q 34 521 16 481 q 82 603 52 561 q 149 688 111 646 q 227 762 188 729 q 306 815 267 795 q 373 835 344 835 q 486 823 432 835 q 593 798 540 811 q 701 773 646 785 q 816 764 755 762 q 817 760 816 762 q 818 755 818 757 q 798 714 818 734 q 749 678 778 693 q 691 653 720 663 q 642 642 661 642 l 347 642 q 308 661 330 660 q 266 661 286 661 q 218 648 231 661 q 199 619 205 635 q 186 584 193 602 q 156 556 179 566 q 209 541 184 550 q 260 523 234 531 q 312 508 285 514 q 372 502 339 502 q 388 503 378 502 q 406 503 398 503 q 424 503 417 503 q 434 503 432 503 q 464 507 441 503 q 512 513 486 510 q 562 518 538 516 q 590 521 585 521 q 674 517 627 521 q 766 500 722 514 q 839 458 809 486 q 870 382 870 431 q 852 312 870 345 q 806 247 833 278 q 778 216 792 231 q 748 188 764 201 q 714 153 733 174 q 670 104 694 132 q 503 0 622 47 l 243 0 q 235 5 241 0 q 220 19 229 10 q 204 36 212 28 q 191 52 196 45 q 190 56 191 52 q 189 61 189 59 m 189 1207 q 204 1231 189 1219 q 239 1254 219 1243 q 278 1273 259 1266 q 306 1281 297 1281 q 333 1263 316 1281 q 372 1218 351 1245 q 414 1160 392 1191 q 457 1102 436 1128 q 499 1061 479 1076 q 535 1052 519 1045 q 572 1074 559 1057 q 589 1110 585 1090 q 593 1151 594 1130 q 592 1186 592 1172 l 592 1198 q 591 1211 592 1205 q 590 1222 590 1217 l 590 1227 l 550 1260 q 575 1282 559 1269 q 609 1306 590 1295 q 649 1324 628 1316 q 689 1332 670 1332 q 714 1324 705 1332 q 727 1306 722 1316 q 731 1283 731 1295 q 731 1264 731 1273 q 718 1220 731 1248 q 683 1158 705 1193 q 634 1088 661 1123 q 576 1023 606 1052 q 517 976 545 995 q 467 957 490 957 q 372 973 406 957 q 313 1016 337 990 q 273 1076 290 1043 q 229 1144 255 1109 q 204 1174 219 1160 q 189 1207 189 1188 z "},"":{"ha":576,"x_min":24,"x_max":549,"o":"m 391 83 q 431 102 408 83 q 471 146 453 122 q 502 194 490 170 q 514 231 514 219 q 490 264 514 245 q 431 306 467 283 q 356 356 396 330 q 282 408 316 382 q 230 457 248 434 q 219 500 212 481 q 245 549 231 531 q 275 575 259 566 q 312 585 292 583 q 356 587 332 587 l 373 587 q 397 587 385 587 q 417 587 408 587 l 425 587 q 484 587 460 578 q 523 614 509 595 q 543 656 536 632 q 549 705 549 681 q 531 753 549 747 q 484 760 514 760 q 418 743 462 760 q 322 698 373 726 q 218 633 271 670 q 122 557 165 595 q 52 484 80 519 q 24 418 24 448 q 57 299 24 344 q 141 225 90 253 q 255 173 193 196 q 375 118 318 149 q 386 105 387 111 q 381 94 385 99 q 376 86 377 89 q 391 83 375 83 z "},"":{"ha":1257,"x_min":17,"x_max":1245,"o":"m 747 684 q 686 611 726 656 q 613 497 646 566 q 582 430 595 464 q 557 366 568 396 q 542 314 547 337 q 536 281 536 292 q 559 156 536 215 l 365 156 q 283 194 321 156 q 214 281 245 231 q 177 394 184 337 q 253 568 170 457 q 370 681 337 681 q 402 681 385 682 q 434 679 418 681 q 493 676 464 677 q 559 675 523 675 q 681 694 625 675 q 781 769 738 712 q 740 811 771 799 q 671 826 708 823 q 596 827 634 830 q 538 825 559 825 l 517 825 q 486 824 503 825 q 453 823 469 823 l 434 823 q 399 799 422 813 q 354 767 377 785 q 315 734 333 752 q 274 696 297 715 q 111 503 158 573 q 52 396 66 439 q 29 321 40 354 q 17 266 17 288 l 17 257 q 62 157 40 205 q 112 74 83 109 q 180 18 141 38 q 278 -2 219 -2 q 347 1 316 -2 q 411 8 378 3 q 477 20 443 12 q 556 38 510 28 q 580 61 566 52 q 611 76 594 69 q 689 19 644 40 q 790 -2 734 -2 q 863 3 830 -2 q 929 16 896 7 q 997 38 962 24 q 1076 73 1031 52 q 1101 96 1083 78 q 1134 127 1118 115 q 1146 141 1142 135 q 1156 160 1149 148 q 1163 177 1163 177 q 1156 188 1163 181 q 1146 194 1149 194 q 1044 172 1094 188 q 943 156 995 156 q 919 158 934 156 q 903 160 905 160 q 874 170 894 161 q 832 191 854 179 q 789 214 809 203 q 764 229 769 224 q 747 262 748 245 q 745 299 745 280 q 769 359 745 340 q 832 388 793 378 q 916 402 870 398 q 1004 417 962 406 q 1081 451 1047 427 q 1128 524 1115 476 l 1106 524 q 1072 524 1090 524 q 1038 524 1054 524 l 1016 524 q 898 516 955 524 q 780 507 842 507 q 747 524 750 507 q 745 566 745 542 q 745 592 745 580 q 747 615 745 604 q 759 639 750 627 q 786 667 767 651 q 840 705 823 698 q 861 712 858 712 l 878 712 q 930 714 892 712 q 1009 718 967 715 q 1088 723 1050 720 q 1139 729 1125 726 q 1168 751 1149 740 q 1202 775 1186 762 q 1232 802 1219 788 q 1245 833 1245 816 q 1242 855 1245 840 q 1226 868 1240 870 l 965 851 q 898 788 934 813 q 840 750 878 776 q 747 684 802 724 z "},"":{"ha":809,"x_min":10,"x_max":774,"o":"m 689 63 q 661 125 689 104 q 597 146 634 146 q 511 137 554 146 q 427 120 469 128 q 384 111 405 115 q 342 101 363 108 q 528 345 299 90 q 766 630 757 599 q 733 705 774 663 q 669 766 703 738 q 604 814 635 793 q 543 846 573 835 q 491 858 514 858 q 368 845 427 858 q 252 819 309 833 q 136 793 194 804 q 14 783 78 781 q 12 779 14 781 q 10 774 10 776 q 32 733 10 753 q 84 695 54 712 q 147 669 115 679 q 198 660 179 660 l 517 660 q 473 621 530 670 q 293 462 417 571 q 83 207 47 247 q 122 162 101 188 q 170 108 142 137 q 351 0 220 50 l 632 0 q 640 6 634 0 q 655 22 646 12 q 673 40 663 31 q 688 54 682 49 q 688 57 688 54 q 689 63 689 61 m 122 1207 q 136 1174 122 1188 q 163 1144 151 1160 q 207 1076 189 1109 q 247 1016 224 1043 q 304 973 269 990 q 399 957 339 957 q 451 976 422 957 q 509 1023 479 995 q 566 1088 538 1052 q 615 1158 594 1123 q 650 1220 637 1193 q 663 1264 663 1248 q 663 1283 663 1273 q 660 1306 663 1295 q 648 1324 656 1316 q 622 1332 639 1332 q 582 1324 602 1332 q 543 1306 563 1316 q 508 1282 524 1295 q 483 1260 491 1269 l 524 1227 l 524 1222 q 524 1211 524 1217 q 524 1198 524 1205 l 524 1186 q 525 1151 524 1172 q 522 1110 526 1130 q 505 1074 517 1090 q 469 1052 493 1057 q 433 1061 453 1045 q 391 1102 413 1076 q 347 1160 370 1128 q 304 1218 325 1191 q 266 1263 283 1245 q 240 1281 250 1281 q 211 1273 231 1281 q 171 1254 191 1266 q 136 1231 151 1243 q 122 1207 122 1219 z "},"":{"ha":260,"x_min":17,"x_max":226,"o":"m 226 767 q 205 806 226 788 q 156 840 184 825 q 102 867 128 856 q 66 889 75 878 l 17 837 l 17 663 q 32 626 17 648 q 69 585 47 604 q 114 553 90 566 q 155 540 137 540 q 166 541 156 540 q 177 542 175 542 q 180 569 177 550 q 186 611 182 589 q 192 653 189 634 q 196 681 194 672 q 201 697 196 684 q 211 724 205 710 q 221 751 217 738 q 226 767 226 764 z "},"":{"ha":260,"x_min":17,"x_max":227,"o":"m 17 767 q 39 806 17 788 q 89 840 61 825 q 143 867 116 856 q 179 889 170 878 l 227 837 l 227 663 q 213 626 227 648 q 176 585 198 604 q 131 553 155 566 q 90 540 108 540 q 78 541 87 540 q 66 542 69 542 q 64 569 66 550 q 59 611 63 589 q 53 653 56 634 q 49 681 50 672 q 43 697 49 684 q 33 724 38 710 q 23 751 28 738 q 17 767 17 764 z "},"":{"ha":531,"x_min":17,"x_max":490,"o":"m 226 774 q 205 813 226 795 q 156 847 184 832 q 102 874 128 863 q 66 896 75 885 l 17 844 l 17 670 q 32 633 17 655 q 69 592 47 611 q 114 560 90 573 q 155 547 137 547 q 166 548 156 547 q 177 549 175 549 q 180 576 177 557 q 186 618 182 595 q 192 660 189 641 q 196 688 194 679 q 201 704 196 691 q 211 731 205 717 q 221 758 217 745 q 226 774 226 771 m 490 767 q 469 806 490 788 q 420 840 448 825 q 365 867 392 856 q 330 889 339 878 l 281 837 l 281 663 q 296 626 281 648 q 332 585 311 604 q 378 553 354 566 q 418 540 401 540 q 430 541 420 540 q 441 542 439 542 q 444 569 441 550 q 450 611 446 589 q 456 653 453 634 q 460 681 458 672 q 464 697 460 684 q 475 724 469 710 q 485 751 481 738 q 490 767 490 764 z "},"":{"ha":531,"x_min":17,"x_max":491,"o":"m 281 774 q 303 813 281 795 q 352 847 325 832 q 407 874 380 863 q 443 896 434 885 l 491 844 l 491 670 q 477 633 491 655 q 440 592 462 611 q 395 560 418 573 q 354 547 372 547 q 342 548 351 547 q 330 549 333 549 q 328 576 330 557 q 323 618 326 595 q 317 660 319 641 q 313 688 314 679 q 307 704 313 691 q 297 731 302 717 q 286 758 292 745 q 281 774 281 771 m 17 767 q 39 806 17 788 q 89 840 61 825 q 143 867 116 856 q 179 889 170 878 l 227 837 l 227 663 q 213 626 227 648 q 176 585 198 604 q 131 553 155 566 q 90 540 108 540 q 78 541 87 540 q 66 542 69 542 q 64 569 66 550 q 59 611 63 589 q 53 653 56 634 q 49 681 50 672 q 43 697 49 684 q 33 724 38 710 q 23 751 28 738 q 17 767 17 764 z "},"":{"ha":557,"x_min":12,"x_max":502,"o":"m 12 278 q 191 554 12 486 q 273 579 234 571 q 361 587 313 587 q 465 549 429 587 q 502 443 502 510 q 501 428 502 436 q 500 418 500 420 q 494 397 498 413 q 484 362 490 380 q 474 326 479 344 q 469 306 469 309 q 415 223 439 257 q 360 168 391 189 q 286 135 330 146 q 174 125 241 125 l 158 125 q 135 126 148 125 q 113 127 123 127 l 97 127 q 56 160 73 144 q 30 193 40 175 q 16 230 21 210 q 12 278 12 250 z "},"":{"ha":490,"x_min":16,"x_max":460,"o":"m 16 359 q 34 404 16 380 q 80 446 52 427 q 141 477 109 465 q 189 490 174 490 l 311 490 q 396 483 365 490 q 460 434 424 477 q 436 368 446 385 q 410 340 425 351 q 382 323 396 330 q 345 309 368 316 l 101 297 q 56 309 69 297 q 39 326 49 316 q 16 351 30 337 l 16 359 z "},"":{"ha":712,"x_min":16,"x_max":679,"o":"m 16 359 q 34 404 16 380 q 80 446 52 427 q 141 477 109 465 q 189 490 174 490 l 531 491 q 615 484 585 491 q 679 436 642 479 q 655 370 665 387 q 628 342 644 352 q 601 325 615 332 q 566 311 587 318 l 101 297 q 56 309 69 297 q 39 326 49 316 q 16 351 30 337 l 16 359 z "},"":{"ha":495,"x_min":14,"x_max":481,"o":"m 14 939 q 26 1011 14 977 q 59 1068 38 1045 q 167 1118 99 1118 q 281 1080 208 1118 l 281 1080 q 308 1068 297 1073 q 325 1063 319 1063 q 342 1061 333 1063 q 363 1063 351 1059 q 395 1082 375 1066 q 446 1135 415 1099 l 481 1101 q 468 1003 481 1038 q 434 948 455 967 q 385 924 413 929 q 325 920 358 920 q 210 960 276 920 q 165 979 179 979 q 149 975 156 979 q 135 964 142 970 q 102 938 122 951 q 45 918 82 925 l 14 939 z "},"":{"ha":1108,"x_min":12,"x_max":1054,"o":"m 257 743 q 266 785 257 767 q 276 823 276 802 q 268 845 276 839 q 250 852 260 851 q 229 856 240 854 q 215 870 219 858 l 128 870 q 103 855 113 870 q 88 821 94 840 q 79 783 82 802 q 76 757 76 764 l 12 757 q 31 820 12 790 q 79 873 50 851 q 141 909 108 896 q 207 922 175 922 l 510 922 l 510 905 l 474 851 q 450 844 455 837 q 436 852 443 851 q 420 852 429 852 l 401 852 q 380 852 392 852 q 356 847 368 851 q 336 837 344 844 q 328 818 328 830 l 328 575 q 324 560 328 569 q 314 540 319 550 q 303 522 309 530 q 293 514 297 514 l 285 514 q 281 529 285 516 q 273 561 278 542 q 267 592 267 580 q 260 668 262 628 q 257 743 257 707 m 559 790 q 543 819 556 807 q 531 840 531 830 l 531 845 l 585 899 q 591 900 585 899 q 601 901 597 901 q 615 897 608 903 q 628 884 622 891 q 639 872 634 877 q 649 875 644 868 q 664 884 655 880 q 689 892 674 887 q 715 897 705 894 q 733 903 726 899 q 756 907 743 906 q 781 908 769 908 q 808 900 797 908 q 826 880 819 892 q 880 887 835 872 q 919 903 905 898 q 941 911 934 908 q 969 916 955 915 q 995 917 983 917 q 1016 915 1009 917 q 1036 899 1024 913 q 1043 831 1040 861 q 1049 773 1047 800 q 1053 719 1052 747 q 1054 656 1054 691 q 1052 620 1054 642 q 1044 575 1050 597 q 1025 535 1038 552 q 991 517 1012 517 q 987 519 990 517 q 983 521 984 521 l 957 837 q 938 863 957 856 q 921 870 927 868 q 892 865 915 872 q 863 837 872 856 l 852 826 q 852 813 852 825 q 851 792 851 802 l 851 781 q 857 717 851 745 q 863 656 863 689 q 846 587 863 615 q 793 538 830 559 q 786 576 788 554 q 774 611 785 599 q 772 677 773 642 q 766 744 771 712 q 747 805 760 776 q 705 854 733 833 q 687 847 694 851 q 674 843 679 844 q 655 823 668 842 q 652 806 655 813 q 646 793 649 800 q 640 778 642 786 q 635 755 637 769 q 635 721 635 745 q 635 670 635 698 q 635 618 635 642 q 635 583 635 594 q 631 564 635 575 q 620 544 627 554 q 604 528 613 535 q 589 521 595 521 l 585 521 q 576 535 580 524 q 571 556 573 545 q 568 574 569 566 q 566 583 566 582 q 564 625 566 595 q 562 688 563 655 q 560 750 561 720 q 559 790 559 780 z "},"":{"ha":521,"x_min":-5,"x_max":536,"o":"m 365 191 q 339 240 365 222 q 275 266 314 257 q 192 281 236 276 q 109 291 148 286 q 43 305 69 295 q 17 330 17 314 q 63 448 17 392 q 173 547 108 503 q 309 620 238 590 q 434 660 380 649 q 435 647 434 656 q 436 634 436 637 q 414 571 436 594 q 360 538 392 549 q 292 525 328 528 q 226 521 255 523 q 225 508 226 517 q 224 495 224 498 q 239 444 224 462 q 278 420 253 427 q 332 411 302 413 q 394 406 363 408 q 454 400 425 405 q 503 382 483 396 q 504 360 503 377 q 505 339 505 344 q 463 194 505 259 q 355 84 420 128 q 213 16 290 40 q 64 -9 135 -9 q 77 65 64 36 q 111 109 90 94 q 159 131 132 125 q 214 137 186 137 q 267 137 241 137 q 317 141 295 137 q 352 157 339 146 q 365 191 365 168 m -5 1057 q 10 1081 -5 1068 q 44 1104 24 1094 q 83 1122 64 1115 q 111 1130 102 1130 q 139 1112 122 1130 q 177 1067 156 1094 q 220 1009 198 1040 q 263 952 241 977 q 305 911 285 927 q 340 901 325 896 q 378 924 365 906 q 395 961 391 941 q 398 1002 399 981 q 398 1036 398 1023 l 398 1047 q 397 1060 398 1054 q 396 1073 396 1066 l 396 1078 l 356 1109 q 380 1132 365 1120 q 415 1155 396 1144 q 455 1174 434 1167 q 495 1182 476 1182 q 519 1174 510 1182 q 532 1156 528 1167 q 536 1134 536 1146 q 536 1115 536 1122 q 523 1071 536 1099 q 489 1009 510 1043 q 439 938 467 974 q 381 873 411 903 q 323 826 351 844 q 273 807 295 807 q 177 824 212 807 q 119 866 142 840 q 78 926 95 892 q 35 995 61 960 q 10 1024 24 1010 q -5 1057 -5 1038 z "},"":{"ha":576,"x_min":24,"x_max":549,"o":"m 182 83 q 141 102 163 83 q 102 146 120 122 q 71 194 83 170 q 59 231 59 219 q 82 264 59 245 q 141 306 106 283 q 217 356 177 330 q 290 408 257 382 q 342 457 323 434 q 352 500 361 481 q 328 549 342 531 q 298 575 314 566 q 260 585 281 583 q 217 587 240 587 l 198 587 q 175 587 188 587 q 156 587 163 587 l 148 587 q 88 587 111 578 q 50 614 64 595 q 30 656 36 632 q 24 705 24 681 q 42 753 24 747 q 87 760 59 760 q 155 743 111 760 q 250 698 198 726 q 354 633 302 670 q 450 557 406 595 q 521 484 493 519 q 549 418 549 448 q 516 299 549 344 q 431 225 483 253 q 316 173 378 196 q 198 118 253 149 q 186 105 184 111 q 192 94 188 99 q 197 86 196 89 q 182 83 198 83 z "},"":{"ha":790,"x_min":16,"x_max":769,"o":"m 319 224 q 325 155 319 182 q 253 176 288 163 q 194 211 219 189 q 153 266 168 233 q 137 347 137 300 q 162 421 137 398 q 225 457 188 444 q 306 474 262 469 q 386 492 349 479 q 449 533 424 505 q 474 615 474 561 q 313 579 394 615 q 165 484 231 543 q 57 346 99 424 q 16 186 16 269 q 24 89 16 127 q 55 32 33 52 q 114 5 76 12 q 208 -2 151 -2 q 253 -2 227 -2 q 306 2 280 -2 q 359 13 333 5 q 403 36 384 21 q 524 14 448 14 q 589 21 556 14 q 653 42 622 28 q 710 75 684 56 q 755 120 736 94 q 766 147 762 130 q 769 163 769 163 l 616 163 q 601 181 604 163 q 597 212 597 200 l 597 224 q 628 290 601 248 q 684 373 656 332 q 734 464 712 415 q 757 563 757 514 q 755 589 757 575 q 740 606 753 602 q 724 607 734 606 q 703 608 714 608 q 683 609 693 608 q 670 609 674 609 q 538 573 601 609 q 427 479 476 536 q 349 354 378 422 q 319 224 319 286 m 458 380 q 460 433 458 410 q 477 484 462 457 q 500 486 483 484 q 521 488 517 488 q 584 467 568 488 q 601 401 601 446 q 598 359 601 380 q 588 319 595 339 q 566 284 580 300 q 531 259 552 267 q 497 266 510 250 q 474 304 483 281 q 462 350 465 326 q 458 380 458 373 z "},"":{"ha":521,"x_min":-3,"x_max":538,"o":"m 314 365 q 295 389 314 378 q 247 409 276 399 q 184 426 219 418 q 115 439 149 434 q 56 447 82 444 q 17 451 30 450 q 133 541 61 512 q 278 573 205 569 q 323 571 290 573 q 391 566 356 569 q 459 560 427 563 q 503 556 491 557 q 470 505 495 542 q 413 429 444 469 q 384 390 399 410 q 352 347 368 370 q 260 226 323 306 q 268 208 262 222 q 278 191 274 194 q 308 188 286 191 q 355 183 330 186 q 404 178 380 181 q 434 174 427 175 q 450 168 441 172 q 467 158 458 163 q 482 146 476 153 q 488 130 488 139 q 473 92 488 115 q 438 49 458 69 q 392 13 417 28 q 349 -2 368 -2 q 286 5 319 -2 q 220 22 253 12 q 154 40 188 31 q 87 52 120 49 l 87 104 q 116 139 99 115 q 153 188 135 167 q 194 240 170 208 q 220 270 207 253 q 250 302 234 286 q 298 344 281 333 q 314 365 314 354 m -3 1047 q 11 1071 -3 1059 q 46 1095 26 1083 q 86 1114 66 1106 q 115 1122 106 1122 q 141 1103 125 1122 q 179 1058 158 1085 q 222 1000 200 1031 q 266 943 245 969 q 308 901 288 917 q 344 892 328 885 q 380 914 368 898 q 397 951 392 931 q 400 991 401 970 q 399 1026 399 1012 l 399 1038 q 399 1051 399 1045 q 399 1063 399 1057 l 399 1068 l 358 1101 q 383 1122 366 1109 q 418 1146 399 1135 q 457 1164 438 1156 q 497 1172 477 1172 q 523 1164 514 1172 q 535 1146 531 1156 q 538 1123 538 1135 q 538 1104 538 1113 q 525 1061 538 1089 q 490 998 512 1033 q 441 928 469 964 q 384 864 413 892 q 326 816 354 835 q 274 797 297 797 q 179 813 214 797 q 122 857 144 830 q 82 917 99 884 q 38 984 64 950 q 11 1014 26 1000 q -3 1047 -3 1028 z "},"":{"ha":729,"x_min":16,"x_max":714,"o":"m 68 61 q 79 97 68 80 q 107 128 90 115 q 141 154 123 142 q 174 174 160 165 q 194 184 181 177 q 208 191 207 191 q 227 186 212 191 q 260 174 243 181 q 293 162 278 168 q 313 156 309 156 q 350 152 323 155 q 407 146 377 149 q 465 141 438 142 q 503 139 493 139 q 587 226 589 179 q 582 272 585 248 q 576 318 580 295 q 547 398 568 365 q 484 432 526 432 q 430 418 460 432 q 365 387 399 405 q 292 356 330 370 q 212 342 253 342 q 105 368 144 342 q 46 438 66 394 q 21 536 26 481 q 16 648 16 590 l 16 667 q 16 695 16 681 q 17 724 17 710 l 17 743 q 31 775 21 757 q 55 810 42 793 q 84 838 68 826 q 113 849 101 849 q 145 820 134 849 q 163 749 156 792 q 174 657 170 707 q 188 565 179 608 q 215 494 198 523 q 260 465 233 465 l 455 500 q 510 531 503 507 q 518 579 516 556 q 521 611 521 602 l 521 639 l 503 760 l 503 771 q 517 815 503 795 q 552 850 531 835 q 597 873 573 865 q 642 882 622 882 q 676 856 663 882 q 697 799 689 830 q 708 740 705 767 q 712 708 712 712 l 712 681 q 713 622 712 656 q 714 554 714 589 l 714 500 l 714 458 q 713 396 714 429 q 712 333 712 363 l 712 292 q 694 253 707 274 q 664 211 681 231 q 628 175 648 191 q 557 122 608 160 q 468 59 505 83 q 382 21 431 35 q 289 4 335 9 q 226 0 243 0 q 194 3 219 0 q 141 13 168 5 q 90 33 113 21 q 68 61 68 45 m 123 1017 q 139 1062 123 1038 q 177 1103 155 1085 q 227 1135 200 1122 q 274 1148 253 1148 q 310 1135 302 1148 q 318 1095 318 1122 q 307 1049 318 1073 q 280 1003 297 1024 q 240 969 262 983 q 193 955 219 955 q 173 957 181 955 q 158 966 165 960 q 144 983 151 972 q 127 1009 137 993 q 125 1010 127 1009 q 123 1017 123 1012 m 443 1017 q 458 1063 443 1038 q 497 1105 474 1087 q 546 1136 519 1123 q 594 1149 573 1149 q 629 1135 622 1149 q 637 1097 637 1122 q 627 1049 637 1075 q 599 1003 616 1024 q 560 969 582 983 q 512 955 538 955 q 492 958 500 955 q 477 968 484 962 q 464 984 470 974 q 446 1010 457 995 q 444 1012 446 1010 q 443 1017 443 1014 z "},"":{"ha":688,"x_min":0,"x_max":0,"o":""},"":{"ha":278,"x_min":14,"x_max":274,"o":"m 271 488 q 266 530 271 503 q 252 584 262 557 q 223 631 241 611 q 177 651 205 651 q 170 650 174 651 q 167 649 167 649 q 149 628 163 644 q 132 606 135 611 q 128 565 130 592 q 124 504 127 538 q 118 434 122 470 q 111 364 115 398 q 104 304 108 330 q 97 266 101 278 q 88 218 94 240 q 75 177 82 196 q 63 137 68 158 q 52 116 59 116 q 28 108 45 116 q 14 94 14 108 q 26 68 14 80 l 45 59 q 58 52 54 54 q 63 50 63 50 l 201 -3 q 210 2 205 -3 q 219 9 215 7 q 238 62 229 24 q 252 148 247 99 q 260 250 257 196 q 266 352 264 304 q 270 437 269 399 q 271 488 271 474 m 274 861 q 258 817 274 840 q 219 774 241 793 q 170 743 196 755 q 123 731 144 731 q 87 744 94 731 q 80 781 80 757 q 90 829 80 804 q 118 875 101 854 q 157 910 135 896 q 205 924 179 924 q 225 921 217 924 q 240 912 233 918 q 253 896 247 906 q 271 870 260 885 q 273 867 271 870 q 274 861 274 865 z "},"":{"ha":523,"x_min":9,"x_max":467,"o":"m 9 321 q 17 224 9 260 q 48 168 26 188 q 107 141 69 148 q 201 134 144 134 l 257 134 q 269 62 262 92 q 285 17 276 31 q 294 7 288 14 q 302 0 300 0 l 332 40 q 344 84 340 56 q 351 148 347 113 q 407 181 384 158 q 431 247 431 205 q 405 247 431 250 q 351 240 378 243 q 350 290 351 267 q 347 330 349 313 q 340 375 344 344 q 333 445 337 406 q 326 529 330 484 q 321 613 323 573 q 377 626 351 618 q 423 648 403 634 q 455 688 443 663 q 467 750 467 712 q 389 741 427 750 q 314 717 351 733 q 313 733 313 726 q 313 747 313 741 q 305 759 309 752 q 295 773 300 766 q 285 788 290 781 q 278 799 280 795 q 274 799 278 799 q 267 800 271 800 q 238 788 248 800 q 224 758 227 776 q 222 716 220 740 q 226 670 224 693 q 141 602 181 641 q 71 517 101 563 q 25 422 42 472 q 9 321 9 372 m 233 595 q 234 538 233 576 q 236 451 234 500 q 240 347 238 403 q 247 238 243 292 q 187 264 210 247 q 151 311 163 281 q 135 382 139 340 q 130 483 130 424 q 160 561 130 536 q 233 595 189 585 z "},"":{"ha":859,"x_min":12,"x_max":826,"o":"m 12 405 l 12 396 q 36 370 26 380 q 52 352 45 359 q 99 342 66 342 l 220 347 q 219 316 219 332 q 219 286 219 302 l 219 278 q 224 201 220 247 q 230 113 227 156 q 234 39 233 69 q 236 9 236 9 l 497 9 q 532 -20 510 -9 q 578 -38 554 -31 q 627 -49 602 -45 q 670 -52 651 -52 q 685 -45 672 -52 q 705 -36 698 -38 q 729 -18 712 -31 q 766 9 747 -5 q 803 34 786 23 q 826 52 819 45 q 747 114 802 94 q 630 140 693 134 q 507 143 568 146 q 410 139 446 141 l 392 156 q 365 260 378 217 q 344 352 351 304 l 432 358 q 469 372 455 365 q 497 387 483 378 q 505 392 503 392 q 508 394 507 392 q 510 405 509 396 q 517 439 510 413 q 455 488 483 483 q 370 495 424 495 l 340 495 q 359 603 344 552 q 405 689 373 655 q 469 722 443 733 q 507 704 486 714 q 547 686 528 694 q 583 672 566 677 q 609 667 601 667 q 649 679 628 667 q 687 708 670 691 q 714 747 703 726 q 724 786 724 767 q 698 845 724 833 q 632 858 672 858 q 580 855 601 858 q 540 845 559 852 q 499 824 521 839 q 444 788 477 809 q 434 771 441 783 q 385 726 427 753 q 308 623 342 670 q 253 521 274 576 q 245 493 248 509 l 158 491 q 111 479 142 491 q 50 448 80 467 q 29 435 36 439 q 17 427 21 431 q 13 418 14 424 q 12 405 12 413 z "},"":{"ha":757,"x_min":24,"x_max":719,"o":"m 149 561 l 45 688 l 128 769 l 198 635 q 242 659 219 648 q 286 678 266 670 q 326 691 307 686 q 356 696 344 696 q 411 691 387 696 q 456 680 434 686 q 499 667 477 674 q 549 656 521 660 l 622 752 l 712 677 l 608 599 q 633 553 620 578 q 655 504 646 528 q 663 461 663 481 q 651 429 663 441 q 653 392 651 413 q 651 347 655 372 q 636 299 648 323 q 601 248 625 274 l 719 165 l 622 94 l 536 170 q 496 148 512 158 q 464 134 479 139 q 435 132 450 128 q 399 151 420 135 q 331 133 361 135 q 277 136 300 130 q 239 154 253 142 q 214 177 224 165 l 137 83 l 24 172 l 151 260 q 126 293 139 274 q 104 332 113 311 q 95 376 95 354 q 108 413 94 398 q 96 498 92 465 q 149 561 101 531 m 201 418 l 219 436 q 214 364 205 394 q 234 314 224 333 q 266 276 248 288 q 304 260 285 264 q 340 256 323 255 q 372 257 358 257 q 427 247 399 233 q 483 288 455 260 q 519 324 503 309 q 545 352 535 339 q 558 378 556 365 q 554 410 561 392 q 534 484 549 450 q 490 542 519 517 q 447 575 474 563 q 380 597 420 587 q 317 573 345 583 q 260 547 288 563 q 227 520 240 535 q 210 489 215 505 q 204 454 205 472 q 201 418 203 436 z "},"":{"ha":885,"x_min":16,"x_max":856,"o":"m 363 660 l 363 651 q 386 627 377 637 q 403 609 396 616 q 422 597 410 602 q 448 597 434 592 l 530 623 q 534 603 530 616 q 543 575 538 590 q 552 545 549 559 q 554 524 556 531 q 542 514 552 517 q 516 507 531 510 q 484 503 500 503 q 455 500 469 502 l 260 465 q 215 494 233 465 q 189 565 198 523 q 175 657 181 608 q 163 749 170 707 q 145 820 156 792 q 113 849 134 849 q 84 838 101 849 q 55 810 68 826 q 31 775 42 793 q 17 743 21 757 l 17 724 l 16 648 q 21 536 16 590 q 46 438 26 481 q 105 368 66 394 q 212 342 144 342 q 292 356 253 342 q 365 387 330 370 q 430 418 399 405 q 484 432 460 432 q 532 413 516 432 q 549 365 549 394 q 507 361 530 365 q 467 345 484 358 q 443 333 453 337 q 426 328 432 330 q 417 322 420 326 q 413 309 413 318 l 413 300 q 437 276 427 286 q 453 259 446 266 q 498 247 467 247 l 583 250 q 586 238 585 243 q 587 226 587 233 l 587 224 q 503 139 587 177 q 465 141 493 139 q 407 146 438 142 q 350 152 377 149 q 313 156 323 155 l 208 191 q 194 184 207 191 q 174 174 181 177 q 170 172 172 172 q 168 170 170 172 q 135 152 153 163 q 103 127 118 141 q 78 96 89 113 q 68 61 68 80 q 90 33 68 45 q 141 14 113 21 q 194 3 168 7 q 226 0 219 0 q 289 4 243 0 q 382 21 335 9 q 468 59 431 35 q 557 122 505 83 l 628 175 q 665 212 648 191 q 696 255 682 233 l 743 259 q 763 255 755 257 q 776 253 771 253 q 787 253 781 252 q 802 257 793 253 l 830 273 q 843 280 837 273 q 856 309 849 286 q 792 358 823 351 q 712 365 760 365 l 714 458 l 714 554 q 713 583 714 569 q 712 613 712 597 q 726 615 719 615 q 738 615 731 615 l 757 615 q 779 615 769 615 q 795 620 788 615 q 807 623 802 623 l 823 622 q 836 628 830 622 q 849 658 842 635 q 785 707 816 700 q 754 711 774 710 q 712 714 734 712 q 707 753 712 726 q 694 810 703 781 q 674 860 686 839 q 642 882 661 882 q 597 873 622 882 q 552 851 573 865 q 517 816 531 837 q 503 771 503 795 l 503 760 l 510 717 l 497 717 q 455 714 476 717 q 417 698 434 710 q 392 686 403 689 q 376 680 382 682 q 366 674 370 677 q 363 660 363 670 z "},"":{"ha":278,"x_min":19,"x_max":247,"o":"m 247 175 q 243 111 247 155 q 228 25 240 68 q 198 -49 217 -17 q 151 -82 179 -82 q 146 -77 149 -82 q 142 -73 142 -73 q 123 -43 139 -69 q 108 -10 109 -16 q 102 100 106 24 q 92 262 97 175 q 87 350 89 307 q 82 430 85 392 q 77 496 80 467 q 73 538 75 524 q 63 614 69 580 q 50 681 57 648 q 44 714 47 698 q 39 746 42 731 q 31 792 36 760 q 19 868 26 823 q 34 878 30 875 q 38 880 38 880 l 177 970 q 185 962 179 970 q 194 946 191 953 q 209 896 203 934 q 220 806 215 858 q 230 691 226 753 q 237 564 234 628 q 242 438 240 500 q 246 325 245 377 q 247 233 247 273 q 247 175 247 193 z "},"":{"ha":885,"x_min":14,"x_max":868,"o":"m 694 773 q 693 778 694 774 q 691 781 691 781 q 679 797 688 788 q 662 814 670 806 q 648 828 655 823 q 641 833 642 833 l 378 833 q 212 729 260 785 q 169 681 188 700 q 135 646 151 661 q 106 616 120 630 q 78 587 92 602 q 32 522 50 556 q 14 451 14 488 q 34 387 14 410 q 85 352 54 365 q 155 338 116 340 q 229 335 193 335 q 255 281 236 302 q 309 233 274 260 l 325 233 q 348 233 337 233 q 372 233 359 233 l 385 233 q 479 234 444 233 q 536 245 514 236 q 570 271 557 253 q 601 318 583 288 q 661 297 632 309 q 726 278 691 285 q 698 249 705 267 q 684 214 691 231 q 665 185 677 198 q 618 172 653 172 q 589 160 608 172 q 549 135 569 148 q 510 113 528 122 q 483 113 491 104 l 236 153 q 188 153 217 156 q 132 139 160 149 q 85 114 104 128 q 66 78 66 99 q 66 74 66 76 q 66 69 66 71 q 183 60 128 71 q 291 36 238 49 q 398 10 344 23 q 510 -2 451 -2 q 576 18 538 -2 q 655 71 615 38 q 734 146 696 104 q 802 230 773 188 q 850 313 832 273 q 868 382 868 352 q 847 418 868 403 q 799 444 826 434 q 746 461 773 455 q 710 469 719 467 q 685 468 698 469 q 660 465 672 467 q 661 483 661 470 q 622 574 661 550 q 516 597 583 597 q 460 601 484 597 q 413 604 436 604 q 383 602 398 604 q 351 594 368 601 q 273 555 299 573 q 234 505 247 536 q 214 531 224 517 q 198 564 205 545 q 257 679 177 613 q 372 734 337 745 q 412 725 392 729 q 451 717 432 720 q 530 701 490 708 q 608 693 569 693 q 668 713 642 693 q 694 773 694 733 m 524 370 q 516 315 524 335 q 483 292 509 295 q 457 293 474 292 q 423 298 441 295 q 390 304 405 300 q 370 311 375 307 q 360 331 366 316 q 348 365 354 345 q 337 405 342 385 q 332 441 332 425 q 347 510 332 491 q 387 528 363 528 q 410 526 392 528 q 446 523 427 524 q 477 521 465 523 q 483 519 490 519 q 510 510 502 516 q 523 492 519 503 q 525 464 526 481 q 524 420 524 446 l 524 370 z "},"":{"ha":576,"x_min":26,"x_max":540,"o":"m 26 988 q 42 1032 26 1009 q 80 1075 57 1056 q 129 1106 102 1094 q 177 1118 156 1118 q 213 1105 205 1118 q 220 1066 220 1092 q 210 1020 220 1045 q 182 974 200 995 q 143 939 165 953 q 95 925 122 925 q 76 928 83 925 q 61 937 68 931 q 47 953 54 943 q 30 979 40 964 q 28 981 30 979 q 26 988 26 983 m 345 990 q 361 1034 345 1010 q 399 1076 377 1057 q 449 1107 422 1094 q 497 1120 476 1120 q 532 1107 524 1120 q 540 1068 540 1094 q 530 1021 540 1045 q 502 976 519 997 q 463 941 484 955 q 415 927 441 927 q 395 930 403 927 q 380 938 387 932 q 366 955 373 944 q 349 981 359 965 q 347 983 349 981 q 345 990 345 984 z "},"":{"ha":747,"x_min":16,"x_max":729,"o":"m 17 132 q 65 64 43 90 q 111 24 87 38 q 165 4 135 10 q 233 -2 194 -2 q 319 4 273 -2 q 399 24 365 10 q 474 81 436 45 q 549 163 512 116 q 619 265 587 210 q 675 376 651 319 q 714 488 700 432 q 729 592 729 543 q 707 680 729 635 q 654 760 686 724 q 583 817 622 795 q 514 839 545 839 q 323 789 413 839 q 164 656 233 740 q 56 462 95 573 q 16 229 16 351 l 16 207 q 16 180 16 196 q 17 151 17 163 l 17 132 m 148 240 q 155 317 148 273 q 174 409 161 361 q 206 503 188 457 q 245 586 224 550 q 289 645 266 622 q 337 668 313 668 q 425 669 380 668 q 506 660 470 670 q 564 618 542 649 q 587 523 587 587 q 571 444 587 490 q 534 353 556 398 q 490 274 512 309 q 460 233 469 240 q 438 213 451 226 q 410 186 425 200 q 377 162 394 172 q 344 153 359 153 q 276 148 311 153 q 213 146 241 142 q 166 169 184 149 q 148 240 148 189 m 234 368 q 239 319 234 337 q 254 292 243 302 q 284 278 266 281 q 332 274 302 274 q 365 274 345 274 q 403 280 385 274 q 433 297 420 285 q 446 330 446 309 q 446 337 446 333 q 444 344 446 342 q 393 352 420 347 q 345 367 366 356 q 309 398 323 378 q 295 448 295 417 q 308 485 295 474 q 339 503 321 497 q 379 511 358 509 q 420 521 401 514 q 451 541 439 528 q 464 582 464 554 q 384 563 424 582 q 310 516 344 545 q 255 448 276 486 q 234 368 234 410 z "},"":{"ha":538,"x_min":17,"x_max":497,"o":"m 17 634 q 49 750 17 700 q 132 833 82 800 q 243 883 182 866 q 361 899 304 899 l 373 899 q 398 898 385 899 q 420 898 410 898 l 434 898 q 448 770 444 832 q 470 642 451 708 q 474 635 470 641 q 483 624 477 630 q 491 613 488 618 q 495 606 495 608 q 496 597 495 604 q 497 587 497 590 q 488 553 497 566 q 465 532 479 540 q 436 521 451 524 q 403 517 420 517 q 382 517 398 517 q 361 521 366 517 q 345 549 354 540 q 318 559 337 559 q 287 550 302 559 q 253 533 273 542 q 210 516 234 524 q 155 507 186 507 q 53 536 89 507 q 17 634 17 564 m 116 726 q 127 681 116 698 q 154 649 137 663 q 187 623 170 635 q 215 594 203 611 q 236 593 220 594 q 257 592 252 592 q 302 595 281 592 q 337 618 323 597 l 337 630 l 337 677 l 337 691 q 335 746 337 720 q 325 788 333 771 q 295 815 316 806 q 240 825 274 825 q 149 803 182 825 q 116 726 116 781 z "},"":{"ha":1127,"x_min":24,"x_max":1085,"o":"m 391 83 q 431 102 408 83 q 471 146 453 122 q 502 194 490 170 q 514 231 514 219 q 490 264 514 245 q 431 306 467 283 q 356 356 396 330 q 282 408 316 382 q 230 457 248 434 q 219 500 212 481 q 245 549 231 531 q 275 575 259 566 q 312 585 292 583 q 356 587 332 587 l 373 587 q 397 587 385 587 q 417 587 408 587 l 425 587 q 484 587 460 578 q 523 614 509 595 q 543 656 536 632 q 549 705 549 681 q 531 753 549 747 q 484 760 514 760 q 418 743 462 760 q 322 698 373 726 q 218 633 271 670 q 122 557 165 595 q 52 484 80 519 q 24 418 24 448 q 57 299 24 344 q 141 225 90 253 q 255 173 193 196 q 375 118 318 149 q 386 105 387 111 q 381 94 385 99 q 376 86 377 89 q 391 83 375 83 m 927 83 q 967 102 944 83 q 1007 146 990 122 q 1037 194 1024 170 q 1050 231 1050 219 q 1027 264 1050 245 q 968 306 1003 283 q 891 356 932 330 q 818 408 851 382 q 766 457 785 434 q 755 500 747 481 q 781 549 767 531 q 812 575 795 566 q 848 585 828 583 q 892 587 868 587 l 910 587 q 932 587 920 587 q 953 587 944 587 l 962 587 q 1021 587 997 578 q 1059 614 1045 595 q 1079 656 1073 632 q 1085 705 1085 681 q 1068 753 1085 747 q 1021 760 1050 760 q 953 743 997 760 q 859 698 910 726 q 754 633 807 670 q 658 557 701 595 q 587 484 615 519 q 559 418 559 448 q 593 299 559 344 q 678 225 627 253 q 792 173 729 196 q 911 118 854 149 q 922 105 924 111 q 917 94 920 99 q 912 86 913 89 q 927 83 911 83 z "},"":{"ha":712,"x_min":16,"x_max":679,"o":"m 16 359 l 16 351 q 39 326 30 337 q 56 309 49 316 q 101 297 69 297 l 500 302 l 495 118 q 526 116 503 118 q 571 111 549 115 q 615 106 594 108 q 642 104 635 104 l 637 139 q 651 182 646 144 q 660 268 656 220 q 668 364 663 316 q 679 436 672 411 q 615 484 646 477 q 531 491 580 491 l 189 490 q 141 477 174 490 q 80 446 109 465 q 34 404 52 427 q 16 359 16 380 z "},"":{"ha":408,"x_min":16,"x_max":372,"o":"m 16 359 q 34 404 16 380 q 80 446 52 427 q 141 477 109 465 q 189 490 174 490 l 222 490 q 307 483 276 490 q 372 434 335 477 q 347 368 358 385 q 321 340 337 351 q 293 323 307 330 q 257 309 280 316 l 101 297 q 56 309 69 297 q 39 326 49 316 q 16 351 30 337 l 16 359 z "},"":{"ha":747,"x_min":16,"x_max":729,"o":"m 17 132 q 65 64 43 90 q 111 24 87 38 q 165 4 135 10 q 233 -2 194 -2 q 319 4 273 -2 q 399 24 365 10 q 474 81 436 45 q 549 163 512 116 q 619 265 587 210 q 675 376 651 319 q 714 488 700 432 q 729 592 729 543 q 707 680 729 635 q 654 760 686 724 q 583 817 622 795 q 514 839 545 839 q 323 789 413 839 q 164 656 233 740 q 56 462 95 573 q 16 229 16 351 l 16 207 q 16 180 16 196 q 17 151 17 163 l 17 132 m 148 240 q 155 317 148 273 q 174 409 161 361 q 206 503 188 457 q 245 586 224 550 q 289 645 266 622 q 337 668 313 668 q 425 669 380 668 q 506 660 470 670 q 564 618 542 649 q 587 523 587 587 q 571 444 587 490 q 534 353 556 398 q 490 274 512 309 q 460 233 469 240 q 438 213 451 226 q 410 186 425 200 q 377 162 394 172 q 344 153 359 153 q 276 148 311 153 q 213 146 241 142 q 166 169 184 149 q 148 240 148 189 m 247 472 q 254 497 247 486 q 273 514 262 507 q 299 524 285 521 q 323 528 313 528 q 339 523 333 528 q 347 514 344 519 q 354 504 351 509 q 370 500 358 500 q 399 509 385 500 q 427 528 413 517 q 455 546 441 538 q 486 554 469 554 q 503 551 497 554 q 510 536 510 549 q 503 515 510 526 q 484 491 495 503 q 464 470 474 479 q 448 458 453 462 q 425 473 436 462 q 399 484 415 484 q 398 484 399 484 q 396 483 396 483 q 375 464 389 476 q 361 448 361 451 l 361 319 q 354 300 361 311 q 339 280 347 290 q 319 264 330 271 q 302 257 309 257 q 296 258 299 257 q 292 259 293 259 q 290 286 292 267 q 285 327 288 306 q 279 369 281 349 q 274 398 276 389 q 271 409 274 399 q 262 428 267 418 q 253 446 257 438 q 248 458 248 455 q 247 464 248 458 q 247 472 247 469 z "},"":{"ha":615,"x_min":3,"x_max":601,"o":"m 3 1050 q 28 1084 3 1066 q 90 1116 52 1102 q 173 1139 128 1130 q 238 1148 217 1148 l 399 1148 q 516 1142 476 1148 q 601 1108 557 1139 q 569 1058 583 1071 q 535 1038 556 1045 q 496 1024 516 1030 q 448 1014 476 1019 l 118 1003 q 57 1014 73 1003 q 37 1026 50 1017 q 3 1045 24 1035 l 3 1050 z "},"":{"ha":398,"x_min":3,"x_max":359,"o":"m 359 526 l 359 538 l 359 566 l 359 580 q 339 703 359 644 q 286 807 319 762 q 207 879 252 852 q 111 906 161 906 q 77 894 95 906 q 42 863 59 882 q 14 820 24 844 q 3 774 3 797 q 19 687 3 733 q 58 597 35 641 q 111 520 82 554 q 168 469 141 486 q 209 457 186 458 q 252 455 233 455 q 286 457 271 455 q 313 468 300 460 q 336 490 325 476 q 359 526 347 503 m 253 689 q 253 639 253 663 q 250 599 253 616 q 238 572 247 582 q 212 561 229 563 q 192 564 205 561 q 168 574 179 568 q 146 587 156 580 q 132 597 135 594 q 122 615 128 601 q 109 650 115 630 q 98 691 102 670 q 94 727 94 712 q 102 781 94 762 q 124 808 111 800 q 156 813 137 816 q 196 806 175 811 q 243 768 233 795 q 253 689 253 741 z "},"":{"ha":490,"x_min":21,"x_max":451,"o":"m 21 399 q 23 412 21 408 q 29 419 24 417 q 43 425 33 422 q 66 438 52 429 q 111 461 94 457 q 156 465 128 465 l 177 590 q 274 597 198 632 l 295 465 q 380 458 351 465 q 444 410 408 453 q 436 379 438 385 q 431 376 434 373 q 426 382 429 378 q 415 378 424 385 q 401 369 408 373 q 387 362 394 365 q 360 355 380 359 q 309 349 340 351 l 295 238 q 191 224 267 196 l 177 342 l 108 337 q 61 347 75 337 q 44 365 54 354 q 21 391 35 375 l 21 399 m 26 69 q 29 82 26 80 q 35 85 31 85 q 49 87 40 85 q 73 97 59 89 q 133 129 101 116 q 181 142 165 142 l 302 142 q 387 135 358 142 q 451 87 415 128 q 442 55 444 61 q 437 49 439 49 q 431 53 434 50 q 420 50 429 56 q 392 33 406 40 q 358 19 378 26 l 113 7 q 66 17 80 7 q 49 35 59 24 q 26 61 40 45 l 26 69 z "},"":{"ha":469,"x_min":3,"x_max":425,"o":"m 33 863 q 57 818 3 814 q 102 822 85 821 q 128 823 120 823 q 187 831 156 823 q 245 845 217 839 q 302 816 266 851 q 332 753 344 781 q 260 698 316 705 q 233 695 247 696 q 203 694 219 694 q 122 681 165 698 q 52 635 80 663 q 14 533 16 599 q 31 462 14 469 q 104 455 50 457 q 151 453 134 453 q 177 453 170 453 q 233 459 205 453 q 286 472 260 465 q 340 485 313 479 q 399 490 368 491 l 399 497 q 390 516 399 507 q 367 531 380 524 q 340 542 354 538 q 316 545 326 545 l 182 538 q 148 540 163 535 q 122 545 134 545 q 109 545 113 547 q 105 541 106 543 q 106 536 104 538 q 108 538 108 535 q 118 556 108 545 q 145 579 128 568 q 180 598 161 590 q 214 606 198 606 q 227 608 217 606 q 249 613 238 609 q 271 619 260 616 q 285 622 281 622 q 326 622 302 622 q 372 631 351 623 q 410 654 394 639 q 425 694 425 668 q 416 732 425 714 q 392 767 406 750 q 378 782 385 774 q 365 797 372 790 q 347 815 358 804 q 325 842 337 826 q 241 899 302 873 l 111 899 q 110 898 111 899 q 108 896 109 898 q 82 885 104 892 q 33 863 61 878 z "},"":{"ha":420,"x_min":10,"x_max":392,"o":"m 281 816 q 230 850 250 837 q 198 870 210 863 q 163 899 175 884 l 21 908 q 12 902 14 910 q 10 892 10 894 q 17 875 10 882 q 34 862 24 868 q 53 850 43 856 q 68 837 63 844 q 95 836 76 837 q 138 833 115 835 q 181 831 161 832 q 208 830 200 830 l 215 830 l 219 830 q 230 826 220 830 q 259 807 240 823 q 280 781 280 790 q 281 755 281 774 q 280 734 281 743 q 262 726 278 726 q 199 730 229 726 q 135 734 168 734 l 122 734 q 104 734 115 734 q 87 733 94 733 l 73 733 q 98 696 80 708 q 140 679 116 684 q 188 672 163 674 q 233 666 212 670 q 267 651 253 661 q 281 620 281 641 q 280 602 281 609 q 271 585 280 594 q 257 576 267 582 q 234 565 247 571 q 211 555 222 559 q 196 549 200 550 l 174 549 q 120 556 146 549 q 66 566 94 563 q 59 563 63 566 q 56 559 56 559 q 59 549 56 559 q 64 540 63 542 q 71 533 66 538 q 89 516 80 526 q 101 503 99 507 q 145 490 127 497 q 181 477 163 483 q 217 470 200 472 q 257 467 234 467 q 313 478 288 467 q 356 510 339 490 q 383 557 373 531 q 392 611 392 583 q 382 655 392 622 q 351 719 372 688 q 313 779 335 755 q 281 816 292 802 z "},"":{"ha":434,"x_min":35,"x_max":385,"o":"m 170 872 q 151 839 170 868 q 109 778 132 811 q 68 715 87 745 q 49 681 49 686 q 43 648 52 665 q 35 615 35 630 l 56 585 q 85 580 66 569 q 124 609 104 590 q 163 650 144 628 q 191 679 182 672 l 385 816 l 326 901 q 293 895 318 892 q 240 899 267 898 q 191 897 212 901 q 170 872 170 892 z "},"":{"ha":859,"x_min":16,"x_max":825,"o":"m 460 -5 l 356 -5 q 341 -3 344 -5 q 332 0 339 0 q 317 -2 326 0 q 307 9 307 -3 l 307 16 q 265 23 283 16 q 233 42 247 31 q 209 60 219 52 q 194 68 200 68 q 193 49 193 68 q 194 3 193 31 q 195 -58 194 -24 q 195 -121 196 -92 q 192 -170 194 -149 q 184 -193 189 -191 l 59 -253 q 56 -235 59 -253 q 49 -201 52 -217 q 45 -184 45 -186 q 45 -167 42 -184 q 54 -123 49 -149 q 66 -67 59 -97 q 80 -8 73 -36 q 91 42 87 21 q 95 69 95 63 l 95 313 q 87 345 95 332 q 65 371 78 359 q 39 392 52 382 q 17 417 26 403 q 16 420 17 417 q 16 425 16 424 q 32 478 16 451 q 74 526 49 505 q 128 560 99 547 q 184 573 158 573 q 214 544 208 573 q 220 472 220 516 l 220 394 q 219 384 219 391 q 224 313 219 347 q 243 250 229 278 q 283 206 257 222 q 351 189 309 189 l 373 189 q 410 195 392 189 q 434 226 427 201 q 437 257 434 234 q 442 305 439 280 q 447 352 444 330 q 451 382 450 373 q 461 427 453 399 q 482 480 469 455 q 513 523 495 505 q 557 542 531 542 q 582 528 580 542 q 590 486 585 514 l 608 365 q 611 324 609 356 q 615 255 613 292 q 619 188 616 219 q 623 149 622 156 q 634 148 627 148 q 673 155 648 148 q 724 169 698 161 q 774 184 750 177 q 813 191 799 191 q 825 184 825 191 q 808 148 825 168 q 766 108 792 128 q 707 68 740 87 q 643 33 674 49 q 586 8 613 17 q 547 -2 559 -2 q 517 -3 524 -2 q 507 -3 510 -3 q 495 -4 503 -3 q 460 -5 486 -5 z "},"":{"ha":833,"x_min":16,"x_max":816,"o":"m 292 76 q 283 94 292 80 q 274 111 274 108 l 274 120 q 292 240 274 177 q 309 365 309 302 q 294 392 309 385 q 255 398 280 399 q 201 391 231 396 q 145 383 172 385 q 95 385 118 380 q 64 410 73 391 q 47 466 56 424 q 31 557 38 509 q 20 649 24 606 q 16 712 16 693 q 30 745 16 729 q 63 773 43 760 q 104 792 87 786 q 387 851 125 800 q 587 889 519 877 q 660 903 655 901 q 691 894 677 906 q 713 863 705 882 q 725 826 720 844 q 729 799 729 807 q 734 737 731 781 q 740 642 736 693 q 745 548 743 592 q 747 486 747 503 q 773 434 766 469 q 784 358 780 399 q 794 273 788 316 q 816 191 800 229 l 816 182 q 803 128 816 156 q 768 74 790 99 q 720 32 747 49 q 667 16 693 16 q 635 30 646 16 q 621 65 625 43 q 617 115 616 87 q 618 174 618 144 q 620 237 618 193 q 621 335 622 281 q 615 446 620 389 q 599 550 611 503 q 566 628 587 597 q 514 658 545 658 l 476 658 q 407 654 443 658 q 347 639 372 649 q 383 564 366 618 q 407 439 399 510 q 414 292 415 368 q 398 152 413 215 q 353 47 384 89 q 274 5 323 5 q 265 6 271 5 q 257 7 259 7 q 259 18 257 10 q 264 35 260 26 q 270 50 267 43 q 274 59 273 57 q 283 68 274 61 q 292 76 292 75 z "},"":{"ha":267,"x_min":14,"x_max":208,"o":"m 14 344 q 30 389 14 365 q 68 431 45 413 q 116 463 90 450 q 163 476 142 476 q 201 462 193 476 q 208 424 208 448 q 198 376 208 401 q 170 330 188 351 q 130 295 153 309 q 83 281 108 281 q 63 285 71 281 q 49 294 56 288 q 35 311 42 300 q 17 337 28 321 q 16 339 17 337 q 14 344 14 340 z "},"":{"ha":226,"x_min":-62,"x_max":201,"o":"m -62 -184 q -40 -172 -62 -179 q 14 -155 -17 -165 q 73 -134 45 -146 q 111 -108 101 -122 q 110 -94 113 -102 q 105 -75 108 -85 q 99 -54 102 -64 q 95 -38 95 -43 q 91 -32 95 -35 q 80 -27 87 -30 q 67 -21 73 -24 q 59 -12 61 -17 q 54 9 54 -2 q 61 16 54 14 q 78 18 68 17 q 101 19 89 19 q 122 19 113 19 q 149 -14 141 -3 q 163 -33 158 -24 q 171 -50 168 -42 q 181 -78 174 -59 q 197 -145 193 -111 q 201 -194 201 -179 l 201 -215 q 197 -254 201 -236 q 175 -273 193 -273 q 109 -266 149 -273 q 30 -250 68 -260 q -36 -223 -9 -240 q -62 -184 -62 -207 z "},"":{"ha":257,"x_min":17,"x_max":226,"o":"m 170 884 l 174 825 l 174 733 l 174 642 q 171 621 174 635 q 168 578 168 606 q 174 551 168 557 q 192 542 181 545 q 213 537 203 538 q 226 536 222 536 q 194 502 212 517 q 154 476 175 486 q 109 460 132 465 q 64 455 85 455 q 55 457 61 455 q 42 458 49 458 q 26 459 33 458 q 17 460 19 460 q 36 491 24 479 q 61 514 49 503 q 83 535 73 524 q 99 561 94 545 q 95 675 95 620 q 94 786 94 731 q 81 802 90 797 q 61 812 71 807 q 41 820 50 816 q 24 835 31 825 q 43 857 35 844 q 60 880 52 870 q 78 898 68 891 q 104 905 89 905 q 148 896 127 905 q 170 884 170 887 z "},"":{"ha":398,"x_min":3,"x_max":359,"o":"m 359 526 l 359 538 l 359 566 l 359 580 q 339 703 359 644 q 286 807 319 762 q 207 879 252 852 q 111 906 161 906 q 77 894 95 906 q 42 863 59 882 q 14 820 24 844 q 3 774 3 797 q 19 687 3 733 q 58 597 35 641 q 111 520 82 554 q 168 469 141 486 q 209 457 186 458 q 252 455 233 455 q 286 457 271 455 q 313 468 300 460 q 336 490 325 476 q 359 526 347 503 m 253 689 q 253 639 253 663 q 250 599 253 616 q 238 572 247 582 q 212 561 229 563 q 192 564 205 561 q 168 574 179 568 q 146 587 156 580 q 132 597 135 594 q 122 615 128 601 q 109 650 115 630 q 98 691 102 670 q 94 727 94 712 q 102 781 94 762 q 124 808 111 800 q 156 813 137 816 q 196 806 175 811 q 243 768 233 795 q 253 689 253 741 z "},"":{"ha":1127,"x_min":24,"x_max":1085,"o":"m 719 83 q 677 102 698 83 q 638 146 656 122 q 607 194 620 170 q 594 231 594 219 q 618 264 594 245 q 677 306 642 283 q 753 356 712 330 q 826 408 793 382 q 878 457 859 434 q 889 500 898 481 q 865 549 878 531 q 833 575 851 566 q 796 585 816 583 q 753 587 776 587 l 734 587 q 712 587 724 587 q 691 587 700 587 l 684 587 q 624 587 648 578 q 587 614 601 595 q 566 656 573 632 q 559 705 559 681 q 576 753 559 747 q 623 760 594 760 q 691 743 648 760 q 786 698 734 726 q 890 633 837 670 q 986 557 943 595 q 1057 484 1030 519 q 1085 418 1085 448 q 1051 299 1085 344 q 966 225 1017 253 q 852 173 915 196 q 733 118 790 149 q 722 105 720 111 q 728 94 724 99 q 733 86 733 89 q 719 83 733 83 m 182 83 q 141 102 163 83 q 102 146 120 122 q 71 194 83 170 q 59 231 59 219 q 82 264 59 245 q 141 306 106 283 q 217 356 177 330 q 290 408 257 382 q 342 457 323 434 q 352 500 361 481 q 328 549 342 531 q 298 575 314 566 q 260 585 281 583 q 217 587 240 587 l 198 587 q 175 587 188 587 q 156 587 163 587 l 148 587 q 88 587 111 578 q 50 614 64 595 q 30 656 36 632 q 24 705 24 681 q 42 753 24 747 q 87 760 59 760 q 155 743 111 760 q 250 698 198 726 q 354 633 302 670 q 450 557 406 595 q 521 484 493 519 q 549 418 549 448 q 516 299 549 344 q 431 225 483 253 q 316 173 378 196 q 198 118 253 149 q 186 105 184 111 q 192 94 188 99 q 197 86 196 89 q 182 83 198 83 z "},"":{"ha":955,"x_min":7,"x_max":920,"o":"m 97 82 l 94 104 l 444 656 l 545 809 q 558 839 545 823 q 589 866 571 854 q 623 885 606 878 q 649 894 641 892 q 681 886 668 899 q 703 855 694 873 q 715 818 712 837 q 719 790 719 799 q 453 420 712 748 q 255 167 323 257 q 181 61 188 76 q 147 10 167 31 q 94 -10 127 -10 q 86 -10 92 -10 q 78 -9 80 -9 q 82 3 80 -5 q 85 17 83 10 q 95 49 92 38 q 97 82 97 61 m 875 73 q 877 57 875 63 q 882 42 878 52 q 885 28 882 33 l 877 28 q 841 50 852 28 q 823 101 830 73 q 807 153 816 128 q 781 184 799 177 q 752 193 771 191 q 717 194 733 194 l 698 194 q 659 196 681 194 q 611 205 637 198 q 556 271 556 212 q 556 302 556 280 q 558 350 557 325 q 561 398 559 375 q 564 427 563 420 q 566 441 564 432 q 573 459 568 450 q 584 476 578 469 q 599 479 590 483 q 613 475 604 479 q 629 464 622 470 q 643 451 637 458 q 649 436 649 443 l 649 271 q 660 266 649 269 q 677 262 670 264 l 684 262 q 697 261 689 262 q 712 260 705 260 l 724 260 l 733 260 q 748 261 740 260 q 764 262 757 262 l 773 262 q 781 302 774 274 q 799 358 788 330 q 823 406 809 385 q 858 427 837 427 q 898 414 875 427 q 920 385 920 401 q 906 351 920 365 q 885 323 892 337 q 864 267 870 295 q 858 207 858 240 q 868 144 858 174 q 877 87 877 113 l 875 73 m 163 823 l 163 731 l 163 641 q 160 618 163 634 q 156 575 156 602 q 163 549 156 557 q 181 539 170 542 q 201 536 191 536 q 215 533 212 535 q 141 474 186 495 q 52 453 97 453 q 44 454 50 453 q 31 455 38 455 q 16 456 23 455 q 7 457 9 457 q 26 489 14 476 q 50 512 38 502 q 73 533 63 523 q 87 559 83 543 q 84 672 85 616 q 83 783 83 727 q 70 799 80 793 q 50 810 61 806 q 30 819 40 814 q 14 832 19 823 q 32 854 24 842 q 49 877 40 866 q 68 894 57 887 q 94 901 78 901 q 135 892 115 901 q 160 880 160 885 l 163 823 z "},"":{"ha":1003,"x_min":7,"x_max":976,"o":"m 97 82 l 94 104 l 444 656 l 545 809 q 558 839 545 823 q 589 866 571 854 q 623 885 606 878 q 649 894 641 892 q 681 886 668 899 q 703 855 694 873 q 715 818 712 837 q 719 790 719 799 q 453 420 712 748 q 255 167 323 257 q 181 61 188 76 q 147 10 167 31 q 94 -10 127 -10 q 86 -10 92 -10 q 78 -9 80 -9 q 82 3 80 -5 q 85 17 83 10 q 95 49 92 38 q 97 82 97 61 m 163 823 l 163 731 l 163 641 q 160 618 163 634 q 156 575 156 602 q 163 549 156 557 q 181 539 170 542 q 201 536 191 536 q 215 533 212 535 q 141 474 186 495 q 52 453 97 453 q 44 454 50 453 q 31 455 38 455 q 16 456 23 455 q 7 457 9 457 q 26 489 14 476 q 50 512 38 502 q 73 533 63 523 q 87 559 83 543 q 84 672 85 616 q 83 783 83 727 q 70 799 80 793 q 50 810 61 806 q 30 819 40 814 q 14 832 19 823 q 32 854 24 842 q 49 877 40 866 q 68 894 57 887 q 94 901 78 901 q 135 892 115 901 q 160 880 160 885 l 163 823 m 583 418 q 633 441 611 434 q 658 451 655 448 q 661 454 660 453 q 661 455 661 455 l 792 455 q 875 398 851 427 q 898 371 887 382 q 915 352 908 359 q 929 338 922 345 q 943 323 936 330 q 966 287 957 306 q 976 250 976 269 q 960 209 976 224 q 923 188 944 194 q 877 179 901 181 q 835 177 852 177 q 821 174 832 177 q 799 169 811 172 q 778 164 788 167 q 764 161 767 161 q 730 154 748 161 q 695 135 712 146 q 668 112 679 123 q 658 94 658 101 q 657 93 658 92 q 656 95 656 94 q 660 101 656 99 q 672 101 663 102 q 699 95 684 101 q 733 94 714 90 l 866 101 q 891 97 877 101 q 918 87 905 94 q 940 71 931 80 q 950 52 950 63 l 950 45 q 891 42 918 47 q 836 29 863 36 q 783 15 809 21 q 727 9 757 9 l 701 9 q 681 10 691 9 q 655 10 670 10 q 609 14 627 12 q 582 17 592 16 q 564 89 564 24 q 602 191 566 156 q 673 236 630 219 q 753 250 715 253 q 783 251 769 250 q 811 253 797 252 q 882 309 866 260 q 852 372 894 337 q 795 401 816 406 q 737 386 767 394 q 679 378 707 378 q 653 378 670 378 q 608 373 635 377 q 583 418 554 370 z "},"":{"ha":1108,"x_min":14,"x_max":1066,"o":"m 241 90 l 240 113 l 589 663 l 691 816 q 703 847 691 832 q 733 874 715 863 q 767 893 750 885 q 795 903 785 901 q 826 894 813 906 q 847 863 839 882 q 860 826 856 844 q 865 799 865 807 q 597 429 856 757 q 399 175 467 266 q 325 69 332 85 q 291 18 311 38 q 240 -2 271 -2 q 230 -1 236 -2 q 222 0 224 0 q 226 10 224 3 q 229 26 227 17 q 239 58 236 47 q 241 90 241 69 m 1019 82 q 1021 66 1019 71 q 1026 50 1023 61 q 1030 36 1026 42 l 1021 36 q 986 58 997 36 q 968 108 976 80 q 951 161 960 135 q 925 193 943 186 q 896 201 915 198 q 861 203 877 203 l 842 203 q 803 205 825 203 q 755 212 781 207 q 700 280 700 220 q 701 311 700 288 q 703 359 701 333 q 706 405 705 384 q 708 436 707 427 q 710 450 708 441 q 717 468 712 458 q 728 484 722 477 q 743 488 734 490 q 757 484 748 488 q 773 473 766 479 q 788 459 781 467 q 795 444 795 451 l 795 280 q 805 275 795 278 q 821 271 814 273 l 828 271 q 841 270 833 271 q 858 269 849 269 l 868 269 l 878 269 q 893 270 885 269 q 908 271 901 271 l 917 271 q 926 310 920 283 q 943 365 932 337 q 968 415 953 394 q 1003 436 983 436 q 1043 423 1019 436 q 1066 392 1066 410 q 1052 359 1066 373 q 1030 332 1038 345 q 1009 274 1014 302 q 1003 215 1003 247 q 1012 153 1003 182 q 1021 94 1021 122 l 1019 82 m 285 799 q 316 761 295 785 q 354 701 337 738 q 385 637 375 670 q 396 594 396 604 q 386 540 396 566 q 359 494 377 514 q 316 461 342 474 q 260 448 290 448 q 220 451 238 448 q 186 460 203 455 q 148 472 168 465 q 104 486 128 479 q 92 499 101 490 q 73 516 83 509 q 68 523 69 521 q 63 531 66 524 q 59 539 59 536 q 59 542 59 542 q 63 545 59 542 q 69 549 66 549 q 123 538 97 545 q 177 531 149 531 l 198 531 q 214 536 203 531 q 238 547 226 542 q 260 558 250 552 q 274 566 271 564 q 283 584 281 576 q 285 601 285 592 q 272 633 285 623 q 238 648 259 642 q 191 655 217 653 q 142 661 165 656 q 102 679 120 667 q 76 715 83 691 l 90 715 q 108 716 97 715 q 125 717 118 717 l 139 717 q 201 713 170 717 q 266 708 233 708 q 283 717 281 708 q 285 738 285 726 q 281 764 285 755 q 260 788 281 773 q 234 809 243 806 q 222 813 224 813 l 219 813 l 212 813 q 183 814 203 813 q 141 816 163 816 q 99 818 118 816 q 71 819 80 819 q 56 832 66 826 q 36 844 45 837 q 21 858 28 851 q 14 875 14 865 q 16 885 14 877 q 24 891 17 892 l 167 882 q 181 865 172 873 q 201 851 191 858 q 233 832 212 844 q 285 799 253 819 z "},"":{"ha":885,"x_min":14,"x_max":868,"o":"m 795 73 q 750 160 858 170 q 661 152 696 155 q 608 149 625 149 q 490 135 550 149 q 373 106 431 122 q 257 165 333 94 q 198 288 179 234 q 254 366 217 339 q 344 401 292 394 q 399 406 372 405 q 457 406 427 408 q 602 432 517 405 q 760 528 689 457 q 795 609 830 599 q 724 615 759 620 q 616 573 691 608 q 510 536 542 536 q 497 536 505 536 q 477 537 486 536 q 458 538 467 538 q 448 538 450 538 q 420 541 443 538 q 371 546 398 543 q 321 551 344 549 q 293 554 299 554 q 209 550 257 554 q 117 532 161 547 q 43 488 73 517 q 14 406 14 458 q 32 332 14 370 q 71 253 50 295 q 94 212 82 233 q 120 170 106 191 q 205 90 146 128 q 378 -2 260 50 l 641 -2 q 649 5 642 -2 q 664 14 651 10 q 697 24 677 17 q 742 43 717 31 q 795 73 767 56 m 868 830 q 852 786 868 809 q 813 744 837 762 q 765 713 790 726 q 719 700 740 700 q 681 713 689 700 q 674 752 674 726 q 684 799 674 774 q 712 844 694 823 q 752 878 729 865 q 799 892 774 892 q 819 890 811 892 q 833 881 826 887 q 847 865 840 875 q 865 839 854 854 q 866 837 865 839 q 868 830 868 835 z "},"":{"ha":799,"x_min":16,"x_max":785,"o":"m 16 68 q 30 150 16 89 q 67 291 45 212 q 115 457 89 370 q 168 622 142 545 q 213 752 193 698 q 243 816 233 806 q 273 843 253 830 q 315 866 293 856 q 359 883 337 877 q 399 889 382 889 q 556 816 488 889 q 564 799 559 814 q 575 765 569 783 q 585 732 580 747 q 590 712 590 717 q 615 657 601 686 q 645 600 630 628 q 673 543 660 571 q 694 486 686 514 q 737 330 715 406 q 781 174 759 253 q 783 161 781 172 q 785 144 785 149 q 783 132 785 141 q 781 122 781 123 l 677 17 q 671 16 677 17 q 661 16 665 16 q 619 25 644 16 q 590 52 594 35 l 556 260 q 530 286 538 271 q 511 316 521 302 q 489 339 502 330 q 451 347 476 349 q 379 339 427 345 q 286 316 332 332 q 205 275 240 300 q 170 212 170 250 q 177 176 170 189 q 191 153 184 163 q 204 132 198 142 q 210 104 210 122 q 195 61 210 80 q 160 28 181 42 q 115 6 139 14 q 69 -2 90 -2 q 37 2 49 -2 q 22 13 26 5 q 16 34 17 21 q 16 68 16 47 m 189 424 q 202 381 189 399 q 241 363 215 363 q 283 372 259 363 q 332 394 307 382 q 381 418 358 406 q 417 434 405 431 q 421 443 418 436 q 426 458 424 450 q 431 475 429 467 q 434 486 434 483 l 434 503 q 424 562 434 531 q 396 618 413 592 q 354 661 378 644 q 304 679 330 679 q 245 650 267 679 q 210 581 222 622 q 194 497 198 540 q 189 424 189 453 m 365 1208 q 373 1191 365 1205 q 396 1156 382 1177 q 425 1112 410 1135 q 455 1069 441 1089 q 477 1034 469 1049 q 486 1017 486 1019 q 488 1003 484 1009 q 496 992 491 997 q 504 982 500 988 q 509 969 509 976 l 488 938 q 456 931 476 922 q 414 956 436 939 q 372 990 392 972 q 344 1016 352 1009 l 149 1151 l 208 1238 q 243 1230 219 1227 q 295 1235 267 1233 q 344 1234 323 1238 q 365 1208 365 1229 z "},"":{"ha":799,"x_min":16,"x_max":785,"o":"m 16 68 q 30 150 16 89 q 67 291 45 212 q 115 457 89 370 q 168 622 142 545 q 213 752 193 698 q 243 816 233 806 q 273 843 253 830 q 315 866 293 856 q 359 883 337 877 q 399 889 382 889 q 556 816 488 889 q 564 799 559 814 q 575 765 569 783 q 585 732 580 747 q 590 712 590 717 q 615 657 601 686 q 645 600 630 628 q 673 543 660 571 q 694 486 686 514 q 737 330 715 406 q 781 174 759 253 q 783 161 781 172 q 785 144 785 149 q 783 132 785 141 q 781 122 781 123 l 677 17 q 671 16 677 17 q 661 16 665 16 q 619 25 644 16 q 590 52 594 35 l 556 260 q 530 286 538 271 q 511 316 521 302 q 489 339 502 330 q 451 347 476 349 q 379 339 427 345 q 286 316 332 332 q 205 275 240 300 q 170 212 170 250 q 177 176 170 189 q 191 153 184 163 q 204 132 198 142 q 210 104 210 122 q 195 61 210 80 q 160 28 181 42 q 115 6 139 14 q 69 -2 90 -2 q 37 2 49 -2 q 22 13 26 5 q 16 34 17 21 q 16 68 16 47 m 189 424 q 202 381 189 399 q 241 363 215 363 q 283 372 259 363 q 332 394 307 382 q 381 418 358 406 q 417 434 405 431 q 421 443 418 436 q 426 458 424 450 q 431 475 429 467 q 434 486 434 483 l 434 503 q 424 562 434 531 q 396 618 413 592 q 354 661 378 644 q 304 679 330 679 q 245 650 267 679 q 210 581 222 622 q 194 497 198 540 q 189 424 189 453 m 420 1212 q 441 1237 420 1233 q 489 1240 462 1241 q 541 1235 516 1238 q 575 1241 566 1233 l 635 1156 l 439 1019 q 411 997 431 1012 q 367 970 391 983 q 323 951 344 957 q 292 962 302 946 l 271 991 q 276 1002 271 1000 q 286 1006 281 1003 q 294 1010 290 1009 q 297 1021 299 1012 q 316 1053 297 1024 q 358 1115 335 1082 q 400 1179 380 1149 q 420 1212 420 1208 z "},"":{"ha":799,"x_min":16,"x_max":785,"o":"m 16 68 q 30 150 16 89 q 67 291 45 212 q 115 457 89 370 q 168 622 142 545 q 213 752 193 698 q 243 816 233 806 q 273 843 253 830 q 315 866 293 856 q 359 883 337 877 q 399 889 382 889 q 556 816 488 889 q 564 799 559 814 q 575 765 569 783 q 585 732 580 747 q 590 712 590 717 q 615 657 601 686 q 645 600 630 628 q 673 543 660 571 q 694 486 686 514 q 737 330 715 406 q 781 174 759 253 q 783 161 781 172 q 785 144 785 149 q 783 132 785 141 q 781 122 781 123 l 677 17 q 671 16 677 17 q 661 16 665 16 q 619 25 644 16 q 590 52 594 35 l 556 260 q 530 286 538 271 q 511 316 521 302 q 489 339 502 330 q 451 347 476 349 q 379 339 427 345 q 286 316 332 332 q 205 275 240 300 q 170 212 170 250 q 177 176 170 189 q 191 153 184 163 q 204 132 198 142 q 210 104 210 122 q 195 61 210 80 q 160 28 181 42 q 115 6 139 14 q 69 -2 90 -2 q 37 2 49 -2 q 22 13 26 5 q 16 34 17 21 q 16 68 16 47 m 189 424 q 202 381 189 399 q 241 363 215 363 q 283 372 259 363 q 332 394 307 382 q 381 418 358 406 q 417 434 405 431 q 421 443 418 436 q 426 458 424 450 q 431 475 429 467 q 434 486 434 483 l 434 503 q 424 562 434 531 q 396 618 413 592 q 354 661 378 644 q 304 679 330 679 q 245 650 267 679 q 210 581 222 622 q 194 497 198 540 q 189 424 189 453 m 670 1045 q 656 1021 670 1033 q 622 997 642 1009 q 582 978 601 986 q 554 970 563 970 q 527 989 543 970 q 490 1034 510 1007 q 446 1092 469 1061 q 402 1149 424 1123 q 360 1190 380 1175 q 325 1200 340 1205 q 287 1177 300 1193 q 271 1141 274 1161 q 267 1101 267 1122 q 267 1066 267 1080 l 267 1054 q 268 1041 267 1047 q 269 1030 269 1035 l 269 1024 l 309 991 q 286 970 302 983 q 250 945 269 957 q 210 927 231 934 q 170 920 189 920 q 146 927 155 920 q 133 944 137 934 q 128 967 128 955 q 128 988 128 979 q 142 1030 128 1002 q 177 1094 156 1059 q 226 1163 198 1128 q 284 1227 253 1198 q 342 1276 314 1257 q 392 1295 370 1295 q 489 1278 453 1295 q 547 1234 524 1260 q 587 1175 569 1208 q 630 1108 604 1142 q 656 1078 642 1092 q 670 1045 670 1064 z "},"":{"ha":799,"x_min":16,"x_max":785,"o":"m 16 68 q 30 150 16 89 q 67 291 45 212 q 115 457 89 370 q 168 622 142 545 q 213 752 193 698 q 243 816 233 806 q 273 843 253 830 q 315 866 293 856 q 359 883 337 877 q 399 889 382 889 q 556 816 488 889 q 564 799 559 814 q 575 765 569 783 q 585 732 580 747 q 590 712 590 717 q 615 657 601 686 q 645 600 630 628 q 673 543 660 571 q 694 486 686 514 q 737 330 715 406 q 781 174 759 253 q 783 161 781 172 q 785 144 785 149 q 783 132 785 141 q 781 122 781 123 l 677 17 q 671 16 677 17 q 661 16 665 16 q 619 25 644 16 q 590 52 594 35 l 556 260 q 530 286 538 271 q 511 316 521 302 q 489 339 502 330 q 451 347 476 349 q 379 339 427 345 q 286 316 332 332 q 205 275 240 300 q 170 212 170 250 q 177 176 170 189 q 191 153 184 163 q 204 132 198 142 q 210 104 210 122 q 195 61 210 80 q 160 28 181 42 q 115 6 139 14 q 69 -2 90 -2 q 37 2 49 -2 q 22 13 26 5 q 16 34 17 21 q 16 68 16 47 m 189 424 q 202 381 189 399 q 241 363 215 363 q 283 372 259 363 q 332 394 307 382 q 381 418 358 406 q 417 434 405 431 q 421 443 418 436 q 426 458 424 450 q 431 475 429 467 q 434 486 434 483 l 434 503 q 424 562 434 531 q 396 618 413 592 q 354 661 378 644 q 304 679 330 679 q 245 650 267 679 q 210 581 222 622 q 194 497 198 540 q 189 424 189 453 m 153 1002 q 166 1065 153 1040 q 200 1113 179 1090 q 309 1163 240 1163 q 424 1123 351 1163 l 422 1123 q 451 1112 439 1116 q 467 1108 462 1108 q 484 1105 476 1108 q 504 1107 491 1102 q 537 1127 517 1111 q 587 1179 557 1142 l 622 1144 q 609 1050 622 1083 q 574 1002 595 1017 q 524 984 552 986 q 464 983 497 983 q 349 1023 415 983 q 304 1042 318 1042 q 288 1037 295 1042 q 274 1026 281 1033 q 240 1001 260 1014 q 184 981 220 988 l 153 1002 z "},"":{"ha":799,"x_min":16,"x_max":785,"o":"m 16 68 q 30 150 16 89 q 67 291 45 212 q 115 457 89 370 q 168 622 142 545 q 213 752 193 698 q 243 816 233 806 q 273 843 253 830 q 315 866 293 856 q 359 883 337 877 q 399 889 382 889 q 556 816 488 889 q 564 799 559 814 q 575 765 569 783 q 585 732 580 747 q 590 712 590 717 q 615 657 601 686 q 645 600 630 628 q 673 543 660 571 q 694 486 686 514 q 737 330 715 406 q 781 174 759 253 q 783 161 781 172 q 785 144 785 149 q 783 132 785 141 q 781 122 781 123 l 677 17 q 671 16 677 17 q 661 16 665 16 q 619 25 644 16 q 590 52 594 35 l 556 260 q 530 286 538 271 q 511 316 521 302 q 489 339 502 330 q 451 347 476 349 q 379 339 427 345 q 286 316 332 332 q 205 275 240 300 q 170 212 170 250 q 177 176 170 189 q 191 153 184 163 q 204 132 198 142 q 210 104 210 122 q 195 61 210 80 q 160 28 181 42 q 115 6 139 14 q 69 -2 90 -2 q 37 2 49 -2 q 22 13 26 5 q 16 34 17 21 q 16 68 16 47 m 189 424 q 202 381 189 399 q 241 363 215 363 q 283 372 259 363 q 332 394 307 382 q 381 418 358 406 q 417 434 405 431 q 421 443 418 436 q 426 458 424 450 q 431 475 429 467 q 434 486 434 483 l 434 503 q 424 562 434 531 q 396 618 413 592 q 354 661 378 644 q 304 679 330 679 q 245 650 267 679 q 210 581 222 622 q 194 497 198 540 q 189 424 189 453 m 128 1078 q 144 1122 128 1099 q 182 1165 160 1146 q 232 1196 205 1184 q 280 1208 259 1208 q 316 1195 309 1208 q 323 1156 323 1182 q 313 1110 323 1135 q 285 1064 302 1085 q 246 1030 267 1043 q 198 1016 224 1016 q 178 1018 186 1016 q 163 1027 170 1021 q 149 1043 156 1033 q 132 1069 142 1054 q 130 1071 132 1069 q 128 1078 128 1073 m 448 1080 q 464 1124 448 1101 q 502 1166 479 1148 q 551 1197 524 1184 q 599 1210 578 1210 q 635 1197 628 1210 q 642 1158 642 1184 q 632 1111 642 1135 q 604 1066 622 1087 q 565 1031 587 1045 q 517 1017 543 1017 q 497 1020 505 1017 q 483 1029 490 1023 q 469 1045 476 1035 q 451 1071 462 1056 q 450 1073 451 1071 q 448 1080 448 1075 z "},"":{"ha":799,"x_min":16,"x_max":785,"o":"m 16 68 q 30 150 16 89 q 67 291 45 212 q 115 457 89 370 q 168 622 142 545 q 213 752 193 698 q 243 816 233 806 q 273 843 253 830 q 315 866 293 856 q 359 883 337 877 q 399 889 382 889 q 556 816 488 889 q 564 799 559 814 q 575 765 569 783 q 585 732 580 747 q 590 712 590 717 q 615 657 601 686 q 645 600 630 628 q 673 543 660 571 q 694 486 686 514 q 737 330 715 406 q 781 174 759 253 q 783 161 781 172 q 785 144 785 149 q 783 132 785 141 q 781 122 781 123 l 677 17 q 671 16 677 17 q 661 16 665 16 q 619 25 644 16 q 590 52 594 35 l 556 260 q 530 286 538 271 q 511 316 521 302 q 489 339 502 330 q 451 347 476 349 q 379 339 427 345 q 286 316 332 332 q 205 275 240 300 q 170 212 170 250 q 177 176 170 189 q 191 153 184 163 q 204 132 198 142 q 210 104 210 122 q 195 61 210 80 q 160 28 181 42 q 115 6 139 14 q 69 -2 90 -2 q 37 2 49 -2 q 22 13 26 5 q 16 34 17 21 q 16 68 16 47 m 189 424 q 202 381 189 399 q 241 363 215 363 q 283 372 259 363 q 332 394 307 382 q 381 418 358 406 q 417 434 405 431 q 421 443 418 436 q 426 458 424 450 q 431 475 429 467 q 434 486 434 483 l 434 503 q 424 562 434 531 q 396 618 413 592 q 354 661 378 644 q 304 679 330 679 q 245 650 267 679 q 210 581 222 622 q 194 497 198 540 q 189 424 189 453 m 516 1054 q 477 1017 500 1028 q 432 1005 455 1007 l 351 1002 q 320 1010 333 1002 q 290 1030 307 1017 q 244 1063 262 1045 q 214 1103 226 1080 q 198 1157 203 1127 q 193 1229 193 1188 q 204 1275 193 1252 q 231 1318 215 1299 q 266 1349 247 1337 q 300 1361 285 1361 q 393 1344 351 1361 q 469 1293 436 1326 q 520 1208 502 1259 q 538 1094 538 1158 l 516 1054 m 432 1203 l 432 1214 q 431 1243 432 1234 q 426 1253 431 1252 q 413 1255 422 1255 q 385 1260 403 1255 q 345 1267 365 1266 q 313 1261 326 1269 q 292 1235 300 1253 q 283 1182 283 1217 q 293 1135 283 1149 q 309 1111 302 1122 q 346 1089 321 1104 q 391 1075 372 1075 q 424 1098 415 1078 q 432 1153 432 1118 l 432 1203 z "},"":{"ha":1299,"x_min":16,"x_max":1266,"o":"m 767 700 q 720 646 750 677 q 663 566 691 615 q 623 641 642 604 q 590 712 604 677 q 585 732 590 717 q 575 765 580 747 q 564 799 569 783 q 556 816 559 814 q 399 889 488 889 q 359 883 382 889 q 315 866 337 877 q 273 843 293 856 q 243 816 253 830 q 213 751 233 804 q 168 622 193 698 q 115 457 142 545 q 67 291 89 370 q 30 150 45 212 q 16 68 16 89 q 16 34 16 47 q 22 13 17 21 q 37 2 26 5 q 69 -2 49 -2 q 115 6 90 -2 q 160 28 139 14 q 195 61 181 42 q 210 104 210 80 q 204 132 210 122 q 191 153 198 142 q 177 176 184 163 q 170 212 170 189 q 205 275 170 250 q 286 316 240 300 q 379 339 332 332 q 451 347 427 345 q 489 339 476 349 q 511 316 502 330 q 530 286 521 302 q 556 260 538 271 l 590 52 q 619 25 594 35 q 661 16 644 16 q 671 16 665 16 q 677 17 677 17 l 701 42 q 811 16 752 16 q 884 20 851 16 q 950 33 917 24 q 1017 56 983 42 q 1097 89 1052 69 q 1122 112 1104 94 q 1155 142 1139 130 q 1167 158 1163 153 q 1177 177 1170 163 q 1184 193 1184 193 q 1177 205 1184 198 q 1167 212 1170 212 q 1065 189 1115 205 q 964 174 1016 174 q 940 175 955 174 q 924 177 925 177 q 895 187 915 177 q 852 207 875 196 q 810 229 830 219 q 785 247 790 240 q 767 278 769 260 q 766 316 766 295 q 790 377 766 358 q 852 405 814 396 q 937 418 891 413 q 1025 433 983 422 q 1102 468 1068 444 q 1149 540 1135 491 l 1127 540 q 1093 541 1111 540 q 1059 542 1075 542 l 1036 542 q 919 533 976 542 q 800 524 863 524 q 768 542 771 524 q 766 582 766 559 q 766 608 766 595 q 768 632 766 622 q 780 655 771 642 q 807 684 788 668 q 861 721 844 714 q 882 727 878 729 l 899 727 q 951 730 913 727 q 1030 735 988 733 q 1109 740 1071 738 q 1160 747 1146 743 q 1188 768 1170 757 q 1223 792 1207 780 q 1253 818 1240 804 q 1266 851 1266 832 q 1263 872 1266 858 q 1247 885 1260 885 l 986 866 q 918 806 955 830 q 861 766 899 793 q 767 700 823 740 m 189 424 q 194 497 189 453 q 210 581 198 540 q 245 650 222 622 q 304 679 267 679 q 354 661 330 679 q 396 618 378 644 q 424 562 413 592 q 434 503 434 531 l 434 486 q 431 475 434 483 q 426 458 429 467 q 421 443 424 450 q 417 434 418 436 q 381 418 405 431 q 332 394 358 406 q 283 372 307 382 q 241 363 259 363 q 202 381 215 363 q 189 424 189 399 z "},"":{"ha":799,"x_min":17,"x_max":781,"o":"m 156 -168 q 184 -208 156 -191 q 250 -236 212 -226 q 328 -252 288 -247 q 394 -257 368 -257 q 417 -239 413 -257 q 420 -200 420 -220 l 420 -179 q 417 -129 420 -163 q 399 -62 413 -95 q 391 -41 394 -49 q 386 -27 389 -33 q 380 -15 384 -21 q 368 2 377 -9 q 454 15 411 5 q 556 38 497 24 q 589 66 568 56 q 631 88 611 76 q 667 114 651 99 q 682 156 682 128 l 365 156 q 283 194 321 156 q 214 281 245 231 q 177 394 184 340 q 253 568 170 458 q 370 681 337 681 q 402 681 385 682 q 434 679 418 681 q 493 676 464 677 q 559 675 523 675 q 681 694 625 675 q 781 769 738 712 q 740 811 771 799 q 671 826 708 823 q 596 827 634 830 q 538 825 559 825 l 517 825 q 486 824 503 825 q 453 823 469 823 l 434 823 q 399 799 422 813 q 354 767 377 785 q 315 734 333 752 q 274 696 297 715 q 111 503 161 575 q 52 396 66 439 q 29 321 40 354 q 17 266 17 288 l 17 257 q 62 158 40 205 q 112 76 83 111 q 180 19 141 40 q 278 -2 219 -2 l 281 -2 q 302 -12 288 -9 q 316 -24 316 -16 q 319 -38 316 -28 q 326 -59 323 -49 q 330 -78 328 -69 q 330 -92 332 -87 q 292 -119 319 -108 q 234 -140 264 -130 q 180 -156 203 -149 q 156 -168 156 -163 z "},"":{"ha":747,"x_min":16,"x_max":724,"o":"m 226 681 q 319 747 281 720 q 377 786 358 774 q 444 847 413 809 l 705 865 q 721 852 719 866 q 724 830 724 837 q 711 799 724 813 q 681 773 698 785 q 647 749 665 760 q 618 726 628 738 q 567 721 604 724 q 488 715 530 719 q 409 710 446 712 q 358 708 372 708 l 347 708 l 340 708 q 319 702 337 710 q 266 663 302 694 q 238 636 247 649 q 227 612 229 623 q 224 589 224 601 q 224 563 224 576 q 227 521 224 538 q 259 503 229 503 q 378 513 321 503 q 495 523 434 523 l 517 523 q 551 522 533 523 q 585 521 569 521 l 608 521 q 560 449 594 472 q 484 414 526 425 q 395 398 441 403 q 311 385 349 394 q 248 357 273 377 q 224 295 224 337 q 226 259 224 276 q 243 226 227 241 q 268 210 248 220 q 311 188 288 200 q 353 168 333 177 q 382 156 373 158 q 398 155 384 156 q 422 155 413 155 q 523 169 474 155 q 625 191 573 184 q 635 184 628 191 q 642 174 642 177 q 635 156 642 174 q 625 139 628 144 q 613 123 622 134 q 580 93 597 111 q 556 69 563 75 q 476 36 510 50 q 408 13 441 23 q 342 0 375 3 q 269 -3 309 -3 q 165 19 212 -3 q 85 81 118 42 q 34 170 52 120 q 16 278 16 220 q 21 312 16 288 q 36 364 26 335 q 61 427 47 392 q 92 493 75 462 q 165 609 125 564 q 226 681 205 653 m 425 1217 q 434 1199 425 1214 q 457 1163 443 1184 q 486 1120 470 1142 q 516 1077 502 1097 q 538 1043 530 1057 q 547 1024 547 1028 q 549 1011 545 1017 q 556 1001 552 1005 q 565 990 561 997 q 569 976 569 984 l 549 946 q 517 939 538 931 q 475 964 497 948 q 433 999 453 981 q 406 1024 413 1017 l 210 1160 l 269 1247 q 305 1239 280 1236 q 357 1244 330 1241 q 405 1242 384 1247 q 425 1217 425 1238 z "},"":{"ha":747,"x_min":16,"x_max":724,"o":"m 226 681 q 319 747 281 720 q 377 786 358 774 q 444 847 413 809 l 705 865 q 721 852 719 866 q 724 830 724 837 q 711 799 724 813 q 681 773 698 785 q 647 749 665 760 q 618 726 628 738 q 567 721 604 724 q 488 715 530 719 q 409 710 446 712 q 358 708 372 708 l 347 708 l 340 708 q 319 702 337 710 q 266 663 302 694 q 238 636 247 649 q 227 612 229 623 q 224 589 224 601 q 224 563 224 576 q 227 521 224 538 q 259 503 229 503 q 378 513 321 503 q 495 523 434 523 l 517 523 q 551 522 533 523 q 585 521 569 521 l 608 521 q 560 449 594 472 q 484 414 526 425 q 395 398 441 403 q 311 385 349 394 q 248 357 273 377 q 224 295 224 337 q 226 259 224 276 q 243 226 227 241 q 268 210 248 220 q 311 188 288 200 q 353 168 333 177 q 382 156 373 158 q 398 155 384 156 q 422 155 413 155 q 523 169 474 155 q 625 191 573 184 q 635 184 628 191 q 642 174 642 177 q 635 156 642 174 q 625 139 628 144 q 613 123 622 134 q 580 93 597 111 q 556 69 563 75 q 476 36 510 50 q 408 13 441 23 q 342 0 375 3 q 269 -3 309 -3 q 165 19 212 -3 q 85 81 118 42 q 34 170 52 120 q 16 278 16 220 q 21 312 16 288 q 36 364 26 335 q 61 427 47 392 q 92 493 75 462 q 165 609 125 564 q 226 681 205 653 m 417 1210 q 438 1235 417 1231 q 485 1237 458 1240 q 537 1232 512 1234 q 573 1240 563 1229 l 632 1153 l 436 1017 q 407 995 427 1010 q 365 967 387 979 q 321 949 342 955 q 288 958 300 943 l 267 990 q 273 999 267 997 q 283 1003 278 1002 q 292 1008 288 1005 q 295 1017 295 1010 q 313 1051 295 1023 q 355 1114 332 1080 q 398 1176 378 1148 q 417 1210 417 1205 z "},"":{"ha":747,"x_min":16,"x_max":724,"o":"m 226 681 q 319 747 281 720 q 377 786 358 774 q 444 847 413 809 l 705 865 q 721 852 719 866 q 724 830 724 837 q 711 799 724 813 q 681 773 698 785 q 647 749 665 760 q 618 726 628 738 q 567 721 604 724 q 488 715 530 719 q 409 710 446 712 q 358 708 372 708 l 347 708 l 340 708 q 319 702 337 710 q 266 663 302 694 q 238 636 247 649 q 227 612 229 623 q 224 589 224 601 q 224 563 224 576 q 227 521 224 538 q 259 503 229 503 q 378 513 321 503 q 495 523 434 523 l 517 523 q 551 522 533 523 q 585 521 569 521 l 608 521 q 560 449 594 472 q 484 414 526 425 q 395 398 441 403 q 311 385 349 394 q 248 357 273 377 q 224 295 224 337 q 226 259 224 276 q 243 226 227 241 q 268 210 248 220 q 311 188 288 200 q 353 168 333 177 q 382 156 373 158 q 398 155 384 156 q 422 155 413 155 q 523 169 474 155 q 625 191 573 184 q 635 184 628 191 q 642 174 642 177 q 635 156 642 174 q 625 139 628 144 q 613 123 622 134 q 580 93 597 111 q 556 69 563 75 q 476 36 510 50 q 408 13 441 23 q 342 0 375 3 q 269 -3 309 -3 q 165 19 212 -3 q 85 81 118 42 q 34 170 52 120 q 16 278 16 220 q 21 312 16 288 q 36 364 26 335 q 61 427 47 392 q 92 493 75 462 q 165 609 125 564 q 226 681 205 653 m 675 1049 q 661 1025 675 1038 q 626 1001 646 1012 q 586 983 606 990 q 559 976 566 976 q 530 993 547 976 q 493 1038 514 1010 q 450 1097 472 1066 q 406 1154 427 1128 q 365 1194 385 1179 q 330 1205 344 1210 q 292 1181 304 1198 q 275 1145 280 1165 q 272 1104 271 1125 q 273 1069 273 1083 l 273 1059 q 273 1045 273 1052 q 274 1033 274 1038 l 274 1028 l 314 997 q 290 974 306 986 q 254 951 274 962 q 214 931 234 939 q 175 924 193 924 q 150 931 158 924 q 138 950 142 939 q 134 970 134 960 q 134 991 134 983 q 147 1034 134 1005 q 181 1097 160 1063 q 231 1168 203 1132 q 288 1232 259 1203 q 346 1280 318 1260 q 398 1299 375 1299 q 492 1282 457 1299 q 550 1239 528 1266 q 590 1179 573 1212 q 635 1111 608 1146 q 661 1082 646 1095 q 675 1049 675 1068 z "},"":{"ha":747,"x_min":16,"x_max":724,"o":"m 226 681 q 319 747 281 720 q 377 786 358 774 q 444 847 413 809 l 705 865 q 721 852 719 866 q 724 830 724 837 q 711 799 724 813 q 681 773 698 785 q 647 749 665 760 q 618 726 628 738 q 567 721 604 724 q 488 715 530 719 q 409 710 446 712 q 358 708 372 708 l 347 708 l 340 708 q 319 702 337 710 q 266 663 302 694 q 238 636 247 649 q 227 612 229 623 q 224 589 224 601 q 224 563 224 576 q 227 521 224 538 q 259 503 229 503 q 378 513 321 503 q 495 523 434 523 l 517 523 q 551 522 533 523 q 585 521 569 521 l 608 521 q 560 449 594 472 q 484 414 526 425 q 395 398 441 403 q 311 385 349 394 q 248 357 273 377 q 224 295 224 337 q 226 259 224 276 q 243 226 227 241 q 268 210 248 220 q 311 188 288 200 q 353 168 333 177 q 382 156 373 158 q 398 155 384 156 q 422 155 413 155 q 523 169 474 155 q 625 191 573 184 q 635 184 628 191 q 642 174 642 177 q 635 156 642 174 q 625 139 628 144 q 613 123 622 134 q 580 93 597 111 q 556 69 563 75 q 476 36 510 50 q 408 13 441 23 q 342 0 375 3 q 269 -3 309 -3 q 165 19 212 -3 q 85 81 118 42 q 34 170 52 120 q 16 278 16 220 q 21 312 16 288 q 36 364 26 335 q 61 427 47 392 q 92 493 75 462 q 165 609 125 564 q 226 681 205 653 m 146 1054 q 161 1098 146 1075 q 200 1141 177 1122 q 248 1172 222 1160 q 295 1184 274 1184 q 332 1171 325 1184 q 340 1134 340 1158 q 330 1086 340 1111 q 302 1040 319 1061 q 262 1005 285 1019 q 215 991 240 991 q 195 994 203 991 q 181 1003 188 997 q 167 1021 174 1010 q 149 1045 160 1031 q 148 1048 149 1045 q 146 1054 146 1050 m 465 1056 q 481 1100 465 1076 q 519 1142 497 1123 q 568 1174 542 1161 q 615 1186 594 1186 q 652 1173 644 1186 q 660 1135 660 1160 q 649 1088 660 1113 q 622 1042 639 1063 q 582 1007 604 1021 q 535 993 559 993 q 515 996 523 993 q 500 1004 507 998 q 486 1021 493 1010 q 469 1047 479 1031 q 467 1049 469 1047 q 465 1056 465 1052 z "},"":{"ha":451,"x_min":17,"x_max":434,"o":"m 87 36 q 86 45 87 38 q 85 56 85 52 q 95 100 85 80 q 122 146 104 120 q 121 214 122 165 q 120 318 120 264 q 121 421 120 372 q 122 490 122 470 q 125 513 122 495 q 131 553 128 531 q 136 594 134 575 q 139 616 139 613 l 139 627 q 122 660 139 648 q 85 678 106 672 q 44 687 64 684 q 17 689 24 689 q 80 754 42 726 q 161 802 118 783 q 252 830 205 821 q 339 839 299 839 q 358 837 344 839 q 385 835 372 835 q 415 834 401 835 q 434 833 429 833 q 396 772 420 795 q 345 729 372 748 q 295 689 318 710 q 260 635 273 668 q 278 427 274 531 q 278 219 281 323 q 307 189 288 200 q 347 172 326 179 q 387 156 368 165 q 417 128 406 148 q 380 85 396 108 q 349 43 365 63 q 313 11 333 24 q 260 -2 292 -2 q 174 14 215 -2 q 87 36 132 30 m 238 1233 q 247 1214 238 1229 q 269 1179 255 1200 q 299 1135 283 1158 q 328 1093 314 1113 q 351 1058 342 1073 q 359 1040 359 1043 q 361 1026 358 1031 q 369 1016 365 1021 q 378 1005 373 1010 q 382 991 382 1000 l 361 962 q 330 954 351 946 q 287 979 309 962 q 246 1014 266 997 q 219 1038 226 1031 l 23 1175 l 82 1260 q 117 1254 92 1252 q 169 1259 142 1257 q 217 1257 196 1260 q 238 1233 238 1253 z "},"":{"ha":451,"x_min":17,"x_max":462,"o":"m 87 36 q 86 45 87 38 q 85 56 85 52 q 95 100 85 80 q 122 146 104 120 q 121 214 122 165 q 120 318 120 264 q 121 421 120 372 q 122 490 122 470 q 125 513 122 495 q 131 553 128 531 q 136 594 134 575 q 139 616 139 613 l 139 627 q 122 660 139 648 q 85 678 106 672 q 44 687 64 684 q 17 689 24 689 q 80 754 42 726 q 161 802 118 783 q 252 830 205 821 q 339 839 299 839 q 358 837 344 839 q 385 835 372 835 q 415 834 401 835 q 434 833 429 833 q 396 772 420 795 q 345 729 372 748 q 295 689 318 710 q 260 635 273 668 q 278 427 274 531 q 278 219 281 323 q 307 189 288 200 q 347 172 326 179 q 387 156 368 165 q 417 128 406 148 q 380 85 396 108 q 349 43 365 63 q 313 11 333 24 q 260 -2 292 -2 q 174 14 215 -2 q 87 36 132 30 m 247 1217 q 267 1242 247 1238 q 315 1244 288 1247 q 367 1239 342 1241 q 401 1247 392 1236 l 462 1160 l 266 1024 q 237 1002 257 1017 q 194 974 217 986 q 149 956 170 962 q 118 965 128 950 l 97 997 q 102 1006 97 1003 q 112 1010 108 1009 q 121 1015 116 1012 q 123 1024 125 1017 q 142 1058 123 1030 q 184 1121 161 1087 q 227 1183 207 1155 q 247 1217 247 1212 z "},"":{"ha":451,"x_min":-23,"x_max":503,"o":"m 87 36 q 86 45 87 38 q 85 56 85 52 q 95 100 85 80 q 122 146 104 120 q 121 214 122 165 q 120 318 120 264 q 121 421 120 372 q 122 490 122 470 q 125 513 122 495 q 131 553 128 531 q 136 594 134 575 q 139 616 139 613 l 139 627 q 122 660 139 648 q 85 678 106 672 q 44 687 64 684 q 17 689 24 689 q 80 754 42 726 q 161 802 118 783 q 252 830 205 821 q 339 839 299 839 q 358 837 344 839 q 385 835 372 835 q 415 834 401 835 q 434 833 429 833 q 396 772 420 795 q 345 729 372 748 q 295 689 318 710 q 260 635 273 668 q 278 427 274 531 q 278 219 281 323 q 307 189 288 200 q 347 172 326 179 q 387 156 368 165 q 417 128 406 148 q 380 85 396 108 q 349 43 365 63 q 313 11 333 24 q 260 -2 292 -2 q 174 14 215 -2 q 87 36 132 30 m 503 1056 q 489 1032 503 1045 q 454 1008 474 1019 q 414 990 434 997 q 385 983 394 983 q 359 999 375 983 q 326 1041 344 1016 q 287 1094 307 1066 q 247 1146 267 1122 q 207 1183 226 1170 q 174 1191 189 1196 q 136 1171 149 1184 q 119 1141 123 1158 q 115 1107 115 1125 q 116 1075 116 1089 l 116 1064 q 117 1051 116 1057 q 118 1038 118 1045 l 118 1033 l 158 1002 q 134 979 149 991 q 99 956 118 967 q 59 937 80 944 q 19 929 38 929 q -5 937 3 929 q -18 955 -14 944 q -23 976 -23 965 q -23 997 -23 990 q -10 1038 -23 1010 q 25 1098 3 1066 q 75 1164 47 1130 q 133 1225 102 1198 q 191 1269 163 1252 q 241 1286 219 1286 q 334 1273 302 1286 q 386 1237 366 1260 q 421 1183 406 1214 q 462 1118 436 1153 q 489 1089 474 1102 q 503 1056 503 1075 z "},"":{"ha":451,"x_min":-17,"x_max":497,"o":"m 87 36 q 86 45 87 38 q 85 56 85 52 q 95 100 85 80 q 122 146 104 120 q 121 214 122 165 q 120 318 120 264 q 121 421 120 372 q 122 490 122 470 q 125 513 122 495 q 131 553 128 531 q 136 594 134 575 q 139 616 139 613 l 139 627 q 122 660 139 648 q 85 678 106 672 q 44 687 64 684 q 17 689 24 689 q 80 754 42 726 q 161 802 118 783 q 252 830 205 821 q 339 839 299 839 q 358 837 344 839 q 385 835 372 835 q 415 834 401 835 q 434 833 429 833 q 396 772 420 795 q 345 729 372 748 q 295 689 318 710 q 260 635 273 668 q 278 427 274 531 q 278 219 281 323 q 307 189 288 200 q 347 172 326 179 q 387 156 368 165 q 417 128 406 148 q 380 85 396 108 q 349 43 365 63 q 313 11 333 24 q 260 -2 292 -2 q 174 14 215 -2 q 87 36 132 30 m -17 1045 q -2 1090 -17 1066 q 36 1133 14 1115 q 86 1164 59 1151 q 134 1177 113 1177 q 170 1163 163 1177 q 177 1125 177 1149 q 167 1077 177 1102 q 139 1031 156 1052 q 100 997 122 1010 q 52 983 78 983 q 32 986 40 983 q 17 996 24 990 q 3 1012 10 1002 q -14 1038 -3 1023 q -16 1040 -14 1038 q -17 1045 -17 1042 m 302 1047 q 318 1091 302 1068 q 356 1134 333 1115 q 405 1165 378 1153 q 453 1177 432 1177 q 490 1164 483 1177 q 497 1127 497 1151 q 486 1079 497 1104 q 458 1033 476 1054 q 419 998 441 1012 q 372 984 398 984 q 352 987 359 984 q 337 997 344 990 q 323 1014 330 1003 q 306 1038 316 1024 q 304 1041 306 1038 q 302 1047 302 1043 z "},"":{"ha":929,"x_min":14,"x_max":891,"o":"m 14 373 l 14 365 q 37 340 28 351 q 54 323 47 330 q 101 311 68 311 l 278 316 q 286 199 281 255 q 304 97 292 142 q 335 25 316 52 q 385 -2 354 -2 q 419 0 399 -2 q 458 3 439 2 q 495 10 477 5 q 525 19 512 14 q 556 36 538 24 q 589 59 573 47 q 617 80 606 71 q 628 92 628 89 l 689 142 q 812 326 767 253 q 866 441 856 399 q 891 594 891 523 q 860 708 891 661 q 784 786 830 755 q 680 830 738 816 q 566 844 622 844 q 444 841 517 844 q 297 821 372 839 q 227 799 260 813 q 167 766 194 786 q 120 720 139 747 q 92 658 101 693 l 231 658 q 260 615 252 658 q 271 503 267 571 l 188 503 q 140 491 172 503 q 80 460 108 479 q 33 418 52 441 q 14 373 14 394 m 627 156 q 506 142 543 134 q 453 174 469 151 q 438 227 441 191 q 427 321 434 262 l 564 325 q 601 339 587 332 q 628 356 615 345 q 653 384 642 366 q 677 450 663 401 q 615 498 642 493 q 530 505 583 505 l 391 503 q 386 536 387 519 q 385 569 385 552 q 412 662 385 628 q 498 696 439 696 q 595 684 554 696 q 642 667 616 677 q 698 641 668 656 q 711 622 703 635 q 726 595 719 609 q 740 567 733 580 q 752 549 747 554 q 760 528 753 542 q 767 512 767 514 q 773 473 769 502 q 767 411 776 444 q 747 352 759 380 q 627 156 736 323 z "},"":{"ha":701,"x_min":16,"x_max":679,"o":"m 69 550 q 59 582 68 568 q 41 607 50 595 q 23 628 31 618 q 16 651 16 639 q 16 657 16 653 q 17 661 17 661 l 122 771 q 135 774 123 773 q 153 776 148 776 q 180 766 167 780 q 206 740 193 753 q 230 718 219 726 q 253 724 241 710 q 332 755 269 740 q 417 778 398 771 q 466 789 439 786 q 517 792 493 792 q 569 775 549 792 q 604 737 590 759 q 635 668 618 715 l 660 623 q 658 598 660 622 q 656 552 656 575 l 656 530 q 660 462 656 493 q 668 401 663 431 q 675 340 672 372 q 679 276 679 309 q 647 135 679 191 q 538 38 615 78 q 531 72 533 52 q 526 113 530 92 q 518 153 523 134 q 503 184 514 172 q 499 319 500 252 q 486 454 498 387 q 447 578 474 521 q 378 668 420 635 q 330 662 349 665 q 302 656 311 660 q 262 616 286 653 q 258 582 262 595 q 247 556 253 569 q 234 524 240 542 q 226 477 227 507 q 225 407 226 457 q 224 304 224 358 q 225 199 224 248 q 226 128 226 149 q 216 90 226 113 q 193 47 207 68 q 161 12 179 26 q 130 -2 144 -2 q 125 0 128 -2 q 122 2 122 2 q 108 30 115 10 q 96 69 101 49 q 89 108 92 90 q 87 128 87 125 q 85 163 87 142 q 82 212 83 184 q 81 273 82 240 q 78 339 80 306 q 72 467 75 406 q 69 550 69 528 m 108 974 q 121 1037 108 1012 q 155 1085 134 1063 q 262 1135 194 1135 q 378 1095 304 1135 l 377 1095 q 404 1084 392 1089 q 420 1080 415 1080 q 438 1077 429 1080 q 458 1079 446 1075 q 490 1099 470 1083 q 542 1151 510 1115 l 576 1116 q 563 1023 576 1056 q 529 974 550 990 q 478 957 507 958 q 418 955 450 955 q 302 995 370 955 q 259 1014 273 1014 q 242 1010 248 1014 q 229 998 236 1005 q 194 973 214 986 q 137 953 175 960 l 108 974 z "},"":{"ha":747,"x_min":14,"x_max":729,"o":"m 17 132 l 17 151 l 16 207 l 14 229 q 55 462 14 351 q 164 656 95 573 q 323 789 233 740 q 514 839 413 839 q 583 817 545 839 q 653 760 622 795 q 707 680 684 724 q 729 592 729 635 q 698 431 729 517 q 618 265 667 344 q 511 122 569 186 q 399 26 453 57 q 317 3 365 7 q 233 -2 269 -2 q 165 4 194 -2 q 111 24 135 10 q 65 64 87 38 q 17 132 43 90 m 207 316 q 214 241 207 267 q 235 203 220 215 q 273 189 250 191 q 326 188 295 188 l 335 188 q 405 203 370 188 q 460 233 441 219 q 480 269 469 240 q 501 338 491 299 q 516 418 510 377 q 523 490 523 458 q 513 577 523 545 q 487 626 503 609 q 445 647 470 642 q 389 651 420 651 l 365 651 l 342 651 q 279 618 304 651 q 237 534 253 585 q 214 424 220 483 q 207 316 207 365 m 373 1217 q 383 1199 373 1214 q 406 1163 392 1184 q 435 1120 420 1142 q 464 1077 450 1097 q 487 1043 477 1057 q 497 1024 497 1028 l 497 1021 q 507 999 497 1007 q 517 976 517 991 l 497 946 q 479 938 490 938 q 446 950 465 938 q 410 976 427 962 q 377 1003 392 990 q 354 1024 361 1017 l 158 1160 l 219 1247 q 247 1240 226 1240 q 287 1242 266 1240 q 328 1245 309 1245 q 360 1239 347 1245 q 373 1217 373 1233 z "},"":{"ha":747,"x_min":16,"x_max":729,"o":"m 17 132 l 17 151 q 16 180 17 163 q 16 207 16 196 l 16 229 q 56 462 16 351 q 164 656 95 573 q 323 789 233 740 q 514 839 413 839 q 583 817 545 839 q 653 760 622 795 q 707 680 684 724 q 729 592 729 635 q 698 431 729 517 q 618 264 667 344 q 512 120 569 184 q 399 24 455 56 q 362 11 384 17 q 318 3 340 5 q 273 -1 295 0 q 233 -2 252 -2 q 165 4 194 -2 q 111 24 135 10 q 65 64 87 38 q 17 132 43 90 m 207 316 q 214 240 207 266 q 238 202 222 214 q 278 189 253 191 q 335 188 302 188 q 405 203 370 188 q 460 233 441 219 q 480 269 469 240 q 501 338 491 299 q 516 418 510 377 q 523 490 523 458 q 510 589 523 556 q 476 635 498 622 q 419 650 453 649 q 342 651 385 651 q 279 618 304 651 q 237 534 253 585 q 214 424 220 483 q 207 316 207 365 m 427 1198 q 448 1222 427 1219 q 496 1224 469 1226 q 548 1220 523 1222 q 582 1226 573 1217 l 642 1141 l 446 1003 q 418 982 438 997 q 374 954 398 967 q 330 936 351 941 q 299 946 309 931 l 278 976 q 283 987 278 984 q 293 991 288 990 q 301 995 297 993 q 304 1005 306 997 q 323 1038 304 1010 q 365 1101 342 1066 q 407 1164 387 1135 q 427 1198 427 1193 z "},"":{"ha":747,"x_min":16,"x_max":729,"o":"m 17 132 l 17 151 q 16 180 17 163 q 16 207 16 196 l 16 229 q 56 462 16 351 q 164 656 95 573 q 323 789 233 740 q 514 839 413 839 q 583 817 545 839 q 653 760 622 795 q 707 680 684 724 q 729 592 729 635 q 698 431 729 517 q 618 264 667 344 q 512 120 569 184 q 399 24 455 56 q 362 11 384 17 q 318 3 340 5 q 273 -1 295 0 q 233 -2 252 -2 q 165 4 194 -2 q 111 24 135 10 q 65 64 87 38 q 17 132 43 90 m 207 316 q 214 240 207 266 q 238 202 222 214 q 278 189 253 191 q 335 188 302 188 q 405 203 370 188 q 460 233 441 219 q 480 269 469 240 q 501 338 491 299 q 516 418 510 377 q 523 490 523 458 q 510 589 523 556 q 476 635 498 622 q 419 650 453 649 q 342 651 385 651 q 279 618 304 651 q 237 534 253 585 q 214 424 220 483 q 207 316 207 365 m 675 1036 q 661 1012 675 1024 q 626 989 646 1000 q 586 970 606 977 q 559 962 566 962 q 530 980 547 962 q 493 1025 514 998 q 450 1083 472 1052 q 406 1141 427 1115 q 365 1181 385 1167 q 330 1191 344 1196 q 292 1168 304 1184 q 275 1133 280 1153 q 272 1092 271 1113 q 273 1057 273 1071 l 273 1045 q 273 1032 273 1038 q 274 1021 274 1026 l 274 1016 l 314 983 q 290 961 306 974 q 254 938 274 948 q 214 919 234 927 q 175 911 193 911 q 150 919 158 911 q 138 938 142 927 q 134 958 134 948 q 134 979 134 970 q 147 1022 134 993 q 181 1085 160 1050 q 231 1155 203 1120 q 288 1220 259 1191 q 346 1267 318 1248 q 398 1286 375 1286 q 492 1270 457 1286 q 550 1227 528 1253 q 590 1167 573 1200 q 635 1099 608 1134 q 661 1069 646 1083 q 675 1036 675 1056 z "},"":{"ha":747,"x_min":16,"x_max":729,"o":"m 17 132 l 17 151 q 16 180 17 163 q 16 207 16 196 l 16 229 q 56 462 16 351 q 164 656 95 573 q 323 789 233 740 q 514 839 413 839 q 583 817 545 839 q 653 760 622 795 q 707 680 684 724 q 729 592 729 635 q 698 431 729 517 q 618 264 667 344 q 512 120 569 184 q 399 24 455 56 q 362 11 384 17 q 318 3 340 5 q 273 -1 295 0 q 233 -2 252 -2 q 165 4 194 -2 q 111 24 135 10 q 65 64 87 38 q 17 132 43 90 m 207 316 q 214 240 207 266 q 238 202 222 214 q 278 189 253 191 q 335 188 302 188 q 405 203 370 188 q 460 233 441 219 q 480 269 469 240 q 501 338 491 299 q 516 418 510 377 q 523 490 523 458 q 510 589 523 556 q 476 635 498 622 q 419 650 453 649 q 342 651 385 651 q 279 618 304 651 q 237 534 253 585 q 214 424 220 483 q 207 316 207 365 m 198 997 q 211 1060 198 1035 q 245 1108 224 1085 q 352 1156 285 1156 q 469 1118 394 1156 l 467 1118 q 494 1106 483 1111 q 510 1101 505 1101 q 528 1099 519 1101 q 549 1102 536 1097 q 581 1122 561 1106 q 632 1174 601 1137 l 667 1139 q 654 1044 667 1078 q 619 996 641 1010 q 569 978 597 981 q 509 976 540 976 q 392 1017 460 976 q 349 1036 363 1036 q 332 1032 339 1036 q 319 1021 326 1028 q 285 996 304 1009 q 227 976 266 983 l 198 997 z "},"":{"ha":747,"x_min":16,"x_max":729,"o":"m 17 132 l 17 151 q 16 180 17 163 q 16 207 16 196 l 16 229 q 56 462 16 351 q 164 656 95 573 q 323 789 233 740 q 514 839 413 839 q 583 817 545 839 q 653 760 622 795 q 707 680 684 724 q 729 592 729 635 q 698 431 729 517 q 618 264 667 344 q 512 120 569 184 q 399 24 455 56 q 362 11 384 17 q 318 3 340 5 q 273 -1 295 0 q 233 -2 252 -2 q 165 4 194 -2 q 111 24 135 10 q 65 64 87 38 q 17 132 43 90 m 207 316 q 214 240 207 266 q 238 202 222 214 q 278 189 253 191 q 335 188 302 188 q 405 203 370 188 q 460 233 441 219 q 480 269 469 240 q 501 338 491 299 q 516 418 510 377 q 523 490 523 458 q 510 589 523 556 q 476 635 498 622 q 419 650 453 649 q 342 651 385 651 q 279 618 304 651 q 237 534 253 585 q 214 424 220 483 q 207 316 207 365 m 163 1019 q 178 1063 163 1040 q 216 1106 193 1087 q 266 1137 240 1125 q 313 1149 292 1149 q 350 1136 342 1149 q 358 1099 358 1123 q 347 1051 358 1076 q 319 1005 337 1026 q 280 970 302 984 q 233 957 257 957 q 212 959 219 957 q 198 969 205 962 q 184 986 191 976 q 165 1010 177 997 q 164 1013 165 1010 q 163 1019 163 1016 m 483 1021 q 497 1065 483 1042 q 536 1108 512 1089 q 585 1139 559 1127 q 632 1151 611 1151 q 669 1138 661 1151 q 677 1101 677 1125 q 667 1053 677 1078 q 639 1007 656 1028 q 599 972 622 986 q 552 958 576 958 q 531 961 538 958 q 517 970 524 964 q 503 986 510 976 q 484 1012 497 997 q 484 1015 484 1012 q 483 1021 483 1017 z "},"":{"ha":521,"x_min":16,"x_max":491,"o":"m 170 299 q 127 280 142 299 q 112 261 120 269 q 97 247 104 253 q 78 226 90 240 q 47 191 66 212 l 19 201 q 63 277 47 248 q 87 316 80 306 q 103 358 99 339 q 109 385 108 377 q 110 397 109 387 q 111 411 111 406 q 95 465 111 444 q 63 504 80 486 q 30 540 45 523 q 16 585 16 557 q 33 618 16 601 q 74 652 50 635 q 121 680 97 668 q 156 691 144 691 q 192 680 177 691 q 221 655 207 668 q 251 631 236 642 q 286 620 266 620 l 295 620 q 306 622 299 622 q 323 627 313 623 q 399 691 340 632 l 427 677 q 351 519 340 566 q 359 484 354 497 q 371 463 365 470 q 385 448 377 455 q 403 431 392 441 q 436 402 420 415 q 464 376 451 389 q 484 348 476 363 q 491 316 491 333 q 473 273 491 295 q 430 232 455 250 q 378 202 405 214 q 335 191 351 191 q 286 207 304 191 q 254 245 269 224 q 221 282 240 266 q 170 299 203 299 z "},"":{"ha":747,"x_min":16,"x_max":729,"o":"m 75 50 q 72 18 75 30 q 63 -14 69 7 q 58 -31 59 -24 q 56 -40 57 -38 q 63 -41 57 -40 q 73 -42 69 -42 q 117 -28 99 -42 q 148 9 135 -14 q 233 -2 182 -2 q 273 -1 252 -2 q 318 3 295 0 q 362 11 340 5 q 399 24 384 17 q 512 120 455 56 q 618 264 569 184 q 698 431 667 344 q 729 592 729 517 q 716 659 729 625 q 681 724 703 693 q 698 759 696 748 q 694 786 698 767 q 681 823 689 804 q 659 854 672 842 q 628 863 646 866 q 597 852 616 859 q 559 828 578 844 q 514 839 533 839 q 323 789 413 839 q 164 656 233 740 q 56 462 95 573 q 16 229 16 351 l 16 207 q 16 180 16 196 q 17 151 17 163 l 17 132 q 73 54 45 83 l 75 50 m 224 405 q 227 496 224 455 q 243 565 231 536 q 278 609 255 594 q 337 623 300 623 q 413 608 378 623 l 231 323 q 224 405 224 361 m 431 389 q 465 433 448 411 q 497 474 483 455 q 505 368 505 427 q 495 277 505 306 q 465 233 484 248 q 356 207 427 207 q 297 219 323 207 q 359 298 325 255 q 431 389 392 340 z "},"":{"ha":990,"x_min":17,"x_max":962,"o":"m 87 625 q 57 647 69 639 q 36 661 45 655 q 23 674 28 667 q 17 694 19 681 q 36 736 17 712 q 79 781 54 760 q 128 818 104 802 q 165 833 153 833 l 174 833 q 199 740 191 788 q 209 641 207 691 q 210 543 212 592 q 208 450 208 495 l 208 434 q 206 424 208 432 q 201 408 203 417 q 194 391 198 399 q 191 382 191 384 q 208 299 191 345 q 255 214 226 253 q 321 147 285 174 q 398 120 358 120 q 408 121 401 120 q 417 122 415 122 l 587 167 q 611 201 601 184 q 628 233 622 217 q 644 354 644 266 l 644 469 l 644 503 q 643 556 644 528 q 642 608 642 583 l 642 642 q 609 694 630 670 q 589 748 589 719 q 599 787 589 771 q 626 815 609 804 q 663 832 642 826 q 703 837 684 837 q 729 836 714 837 q 758 830 745 835 q 780 813 771 825 q 790 781 790 802 l 790 313 q 808 253 790 278 q 854 211 826 227 q 914 185 882 194 q 962 167 946 175 l 955 118 q 878 104 917 134 q 833 77 858 90 q 781 52 809 64 q 752 59 778 56 q 712 59 726 63 q 689 55 700 57 q 677 52 679 52 q 662 58 670 52 q 644 71 655 64 q 622 83 634 78 q 599 89 611 89 q 566 82 580 89 q 540 68 552 76 q 516 49 528 59 q 486 35 503 40 q 401 6 434 14 q 330 -2 368 -2 l 269 -2 l 250 -2 q 221 -1 236 -2 q 193 0 207 0 l 174 0 q 144 18 160 5 q 116 49 128 31 q 95 87 104 68 q 87 122 87 106 l 87 625 m 408 1205 q 418 1188 408 1203 q 441 1153 427 1174 q 470 1109 455 1132 q 498 1066 484 1087 q 522 1031 512 1045 q 531 1014 531 1017 q 533 1000 530 1005 q 541 990 536 995 q 549 979 545 984 q 552 965 552 974 l 531 934 q 501 928 521 920 q 458 952 481 936 q 417 987 436 969 q 389 1012 398 1005 l 193 1149 l 253 1234 q 287 1228 262 1226 q 339 1233 313 1231 q 387 1230 366 1234 q 408 1205 408 1226 z "},"":{"ha":990,"x_min":17,"x_max":962,"o":"m 87 625 q 57 647 69 639 q 36 661 45 655 q 23 674 28 667 q 17 694 19 681 q 36 736 17 712 q 79 781 54 760 q 128 818 104 802 q 165 833 153 833 l 174 833 q 199 740 191 788 q 209 641 207 691 q 210 543 212 592 q 208 450 208 495 l 208 434 q 206 424 208 432 q 201 408 203 417 q 194 391 198 399 q 191 382 191 384 q 208 299 191 345 q 255 214 226 253 q 321 147 285 174 q 398 120 358 120 q 408 121 401 120 q 417 122 415 122 l 587 167 q 611 201 601 184 q 628 233 622 217 q 644 354 644 266 l 644 469 l 644 503 q 643 556 644 528 q 642 608 642 583 l 642 642 q 609 694 630 670 q 589 748 589 719 q 599 787 589 771 q 626 815 609 804 q 663 832 642 826 q 703 837 684 837 q 729 836 714 837 q 758 830 745 835 q 780 813 771 825 q 790 781 790 802 l 790 313 q 808 253 790 278 q 854 211 826 227 q 914 185 882 194 q 962 167 946 175 l 955 118 q 878 104 917 134 q 833 77 858 90 q 781 52 809 64 q 752 59 778 56 q 712 59 726 63 q 689 55 700 57 q 677 52 679 52 q 662 58 670 52 q 644 71 655 64 q 622 83 634 78 q 599 89 611 89 q 566 82 580 89 q 540 68 552 76 q 516 49 528 59 q 486 35 503 40 q 401 6 434 14 q 330 -2 368 -2 l 269 -2 l 250 -2 q 221 -1 236 -2 q 193 0 207 0 l 174 0 q 144 18 160 5 q 116 49 128 31 q 95 87 104 68 q 87 122 87 106 l 87 625 m 464 1189 q 484 1214 464 1210 q 532 1216 505 1219 q 584 1211 559 1214 q 620 1219 609 1208 l 679 1132 l 483 997 q 455 974 476 990 q 411 946 434 958 q 368 928 389 934 q 337 938 347 922 l 316 969 q 320 978 316 976 q 330 983 325 981 q 339 987 335 984 q 342 997 344 990 q 360 1030 342 1002 q 402 1093 378 1059 q 444 1155 425 1127 q 464 1189 464 1184 z "},"":{"ha":990,"x_min":17,"x_max":962,"o":"m 87 625 q 57 647 69 639 q 36 661 45 655 q 23 674 28 667 q 17 694 19 681 q 36 736 17 712 q 79 781 54 760 q 128 818 104 802 q 165 833 153 833 l 174 833 q 199 740 191 788 q 209 641 207 691 q 210 543 212 592 q 208 450 208 495 l 208 434 q 206 424 208 432 q 201 408 203 417 q 194 391 198 399 q 191 382 191 384 q 208 299 191 345 q 255 214 226 253 q 321 147 285 174 q 398 120 358 120 q 408 121 401 120 q 417 122 415 122 l 587 167 q 611 201 601 184 q 628 233 622 217 q 644 354 644 266 l 644 469 l 644 503 q 643 556 644 528 q 642 608 642 583 l 642 642 q 609 694 630 670 q 589 748 589 719 q 599 787 589 771 q 626 815 609 804 q 663 832 642 826 q 703 837 684 837 q 729 836 714 837 q 758 830 745 835 q 780 813 771 825 q 790 781 790 802 l 790 313 q 808 253 790 278 q 854 211 826 227 q 914 185 882 194 q 962 167 946 175 l 955 118 q 878 104 917 134 q 833 77 858 90 q 781 52 809 64 q 752 59 778 56 q 712 59 726 63 q 689 55 700 57 q 677 52 679 52 q 662 58 670 52 q 644 71 655 64 q 622 83 634 78 q 599 89 611 89 q 566 82 580 89 q 540 68 552 76 q 516 49 528 59 q 486 35 503 40 q 401 6 434 14 q 330 -2 368 -2 l 269 -2 l 250 -2 q 221 -1 236 -2 q 193 0 207 0 l 174 0 q 144 18 160 5 q 116 49 128 31 q 95 87 104 68 q 87 122 87 106 l 87 625 m 720 1069 q 706 1046 720 1059 q 671 1022 691 1033 q 632 1003 651 1010 q 604 997 613 997 q 576 1014 594 997 q 538 1059 559 1031 q 496 1118 517 1087 q 452 1174 474 1149 q 411 1215 431 1200 q 375 1226 391 1231 q 338 1202 351 1219 q 320 1166 325 1186 q 317 1125 316 1146 q 318 1090 318 1104 l 318 1080 q 319 1066 318 1073 q 319 1054 319 1059 l 319 1049 l 359 1017 q 335 995 351 1007 q 300 971 319 983 q 260 952 281 960 q 220 944 240 944 q 196 952 205 944 q 183 970 188 960 q 179 991 179 981 q 179 1012 179 1003 q 192 1055 179 1026 q 227 1118 205 1083 q 276 1188 248 1153 q 334 1253 304 1224 q 392 1300 365 1281 q 443 1319 420 1319 q 538 1303 503 1319 q 596 1260 573 1286 q 637 1200 620 1233 q 681 1132 655 1167 q 706 1102 691 1116 q 720 1069 720 1089 z "},"":{"ha":990,"x_min":17,"x_max":962,"o":"m 87 625 q 57 647 69 639 q 36 661 45 655 q 23 674 28 667 q 17 694 19 681 q 36 736 17 712 q 79 781 54 760 q 128 818 104 802 q 165 833 153 833 l 174 833 q 199 740 191 788 q 209 641 207 691 q 210 543 212 592 q 208 450 208 495 l 208 434 q 206 424 208 432 q 201 408 203 417 q 194 391 198 399 q 191 382 191 384 q 208 299 191 345 q 255 214 226 253 q 321 147 285 174 q 398 120 358 120 q 408 121 401 120 q 417 122 415 122 l 587 167 q 611 201 601 184 q 628 233 622 217 q 644 354 644 266 l 644 469 l 644 503 q 643 556 644 528 q 642 608 642 583 l 642 642 q 609 694 630 670 q 589 748 589 719 q 599 787 589 771 q 626 815 609 804 q 663 832 642 826 q 703 837 684 837 q 729 836 714 837 q 758 830 745 835 q 780 813 771 825 q 790 781 790 802 l 790 313 q 808 253 790 278 q 854 211 826 227 q 914 185 882 194 q 962 167 946 175 l 955 118 q 878 104 917 134 q 833 77 858 90 q 781 52 809 64 q 752 59 778 56 q 712 59 726 63 q 689 55 700 57 q 677 52 679 52 q 662 58 670 52 q 644 71 655 64 q 622 83 634 78 q 599 89 611 89 q 566 82 580 89 q 540 68 552 76 q 516 49 528 59 q 486 35 503 40 q 401 6 434 14 q 330 -2 368 -2 l 269 -2 l 250 -2 q 221 -1 236 -2 q 193 0 207 0 l 174 0 q 144 18 160 5 q 116 49 128 31 q 95 87 104 68 q 87 122 87 106 l 87 625 m 189 1045 q 204 1090 189 1066 q 242 1133 219 1115 q 292 1164 266 1151 q 339 1177 318 1177 q 376 1163 368 1177 q 384 1125 384 1149 q 373 1077 384 1102 q 345 1031 363 1052 q 306 997 328 1010 q 259 983 283 983 q 239 986 247 983 q 224 996 231 990 q 210 1012 217 1002 q 191 1038 203 1023 q 190 1040 191 1038 q 189 1045 189 1042 m 509 1047 q 523 1091 509 1068 q 562 1134 538 1115 q 611 1165 585 1153 q 658 1177 637 1177 q 695 1164 688 1177 q 703 1127 703 1151 q 693 1079 703 1104 q 665 1033 682 1054 q 625 998 648 1012 q 578 984 602 984 q 558 987 566 984 q 543 997 550 990 q 530 1014 536 1003 q 510 1038 523 1024 q 510 1041 510 1038 q 509 1047 509 1043 z "},"":{"ha":729,"x_min":16,"x_max":714,"o":"m 68 61 q 79 97 68 80 q 107 128 90 115 q 141 154 123 142 q 174 174 160 165 q 194 184 181 177 q 208 191 207 191 q 227 186 212 191 q 260 174 243 181 q 293 162 278 168 q 313 156 309 156 q 350 152 323 155 q 407 146 377 149 q 465 141 438 142 q 503 139 493 139 q 587 226 589 179 q 582 272 585 248 q 576 318 580 295 q 547 398 568 365 q 484 432 526 432 q 430 418 460 432 q 365 387 399 405 q 292 356 330 370 q 212 342 253 342 q 105 368 144 342 q 46 438 66 394 q 21 536 26 481 q 16 648 16 590 l 16 667 q 16 695 16 681 q 17 724 17 710 l 17 743 q 31 775 21 757 q 55 810 42 793 q 84 838 68 826 q 113 849 101 849 q 145 820 134 849 q 163 749 156 792 q 174 657 170 707 q 188 565 179 608 q 215 494 198 523 q 260 465 233 465 l 455 500 q 510 531 503 507 q 518 579 516 556 q 521 611 521 602 l 521 639 l 503 760 l 503 771 q 517 815 503 795 q 552 850 531 835 q 597 873 573 865 q 642 882 622 882 q 676 856 663 882 q 697 799 689 830 q 708 740 705 767 q 712 708 712 712 l 712 681 q 713 622 712 656 q 714 554 714 589 l 714 500 l 714 458 q 713 396 714 429 q 712 333 712 363 l 712 292 q 694 253 707 274 q 664 211 681 231 q 628 175 648 191 q 557 122 608 160 q 468 59 505 83 q 382 21 431 35 q 289 4 335 9 q 226 0 243 0 q 194 3 219 0 q 141 13 168 5 q 90 33 113 21 q 68 61 68 45 m 375 1236 q 396 1261 375 1257 q 444 1263 417 1266 q 496 1258 470 1260 q 531 1266 521 1255 l 590 1179 l 394 1043 q 365 1021 385 1036 q 323 993 345 1005 q 280 975 300 981 q 247 984 259 969 l 226 1016 q 231 1026 226 1024 q 241 1030 236 1028 q 250 1034 247 1031 q 253 1045 253 1036 q 272 1077 253 1049 q 313 1140 290 1106 q 356 1203 337 1174 q 375 1236 375 1233 z "},"":{"ha":781,"x_min":21,"x_max":753,"o":"m 122 243 l 125 582 q 152 615 142 601 q 161 651 161 628 q 141 694 161 684 q 97 707 122 705 q 50 714 73 710 q 21 740 28 719 q 72 780 40 767 q 141 796 104 792 q 215 801 177 800 q 285 813 253 802 l 292 691 q 297 677 293 677 q 309 682 302 677 q 326 695 316 688 q 345 703 335 703 q 400 702 370 703 q 464 700 431 701 q 531 698 497 698 q 597 700 566 698 q 642 684 615 698 q 694 651 670 670 q 736 609 719 632 q 753 561 753 585 q 753 513 753 536 q 744 465 752 490 q 721 413 736 441 q 682 352 707 385 q 628 293 658 318 q 569 249 599 267 q 513 218 540 231 q 467 198 486 205 q 447 189 462 194 q 415 179 432 184 q 382 168 398 174 q 363 163 366 163 q 325 135 335 151 q 311 102 314 120 q 306 65 307 83 q 297 32 306 47 q 266 8 288 17 q 198 -2 243 -2 q 161 29 172 -2 q 144 100 149 59 q 135 181 139 141 q 122 243 132 222 m 293 319 q 348 287 319 293 q 408 281 377 281 l 450 281 q 467 281 455 281 q 493 281 479 281 q 555 319 530 302 q 595 352 580 337 q 619 401 609 366 q 628 464 628 436 q 610 521 628 505 q 568 543 592 536 q 520 557 543 550 q 488 589 497 564 l 314 589 q 309 581 314 589 q 299 562 304 573 q 287 538 293 550 q 280 519 281 526 l 280 512 l 280 502 q 281 466 280 493 q 286 409 283 439 q 290 353 288 378 q 293 319 292 328 z "},"":{"ha":747,"x_min":12,"x_max":708,"o":"m 165 684 l 165 733 q 191 745 175 740 q 224 753 207 750 q 257 757 241 755 q 281 759 273 759 q 339 758 311 759 q 387 750 366 757 q 421 728 408 743 q 434 684 434 714 q 415 633 434 656 q 366 592 396 609 q 335 523 337 573 q 398 472 332 472 q 445 459 418 472 q 496 425 472 446 q 536 380 519 405 q 552 335 552 356 l 552 316 q 549 299 552 311 q 545 273 547 286 q 460 208 543 260 q 396 122 378 161 q 413 89 413 87 q 486 124 455 97 q 552 184 517 151 q 593 252 564 219 q 648 328 622 285 q 671 371 660 349 q 690 412 682 392 q 703 447 698 432 q 708 470 708 462 q 683 530 708 507 q 629 570 658 552 q 576 606 601 589 q 550 651 552 623 q 558 693 550 674 q 576 729 566 712 q 595 767 587 747 q 604 811 604 788 q 580 860 604 842 q 523 888 556 878 q 456 900 490 898 q 405 903 422 903 q 208 882 313 903 q 94 757 104 861 q 87 674 89 705 q 85 637 85 644 q 74 595 85 615 q 49 552 63 575 q 23 503 35 530 q 12 441 12 476 q 20 228 12 333 q 66 23 28 123 q 87 -62 69 -59 q 128 -62 104 -66 l 146 -56 q 186 73 172 -45 q 195 171 193 135 q 196 219 198 207 q 188 264 191 241 q 186 299 186 286 q 182 477 184 408 q 177 571 181 545 q 167 647 168 625 q 165 684 165 668 z "},"":{"ha":712,"x_min":14,"x_max":696,"o":"m 14 179 q 60 345 14 274 q 177 464 106 417 q 335 534 248 510 q 503 557 422 557 l 523 557 q 556 556 538 557 q 587 556 573 556 l 608 556 q 619 464 615 510 q 628 374 623 418 q 640 284 632 330 q 660 191 648 238 q 665 181 660 189 q 677 165 670 174 q 689 148 684 156 q 694 139 694 141 q 695 127 694 137 q 696 111 696 116 q 684 64 696 83 q 653 34 672 45 q 610 17 634 23 q 564 12 587 12 q 552 12 559 12 q 534 13 543 12 q 516 16 524 14 q 503 17 509 17 q 483 58 495 45 q 441 71 470 71 q 398 60 420 71 q 350 35 377 49 q 288 10 323 21 q 208 -2 253 -2 q 65 39 116 -2 q 14 179 14 80 m 155 309 q 169 247 155 273 q 207 203 184 222 q 253 166 229 184 q 295 122 278 148 q 308 122 300 122 q 325 122 316 122 q 343 121 335 122 q 356 120 351 120 q 418 123 387 120 q 469 156 450 127 l 469 175 q 470 208 469 191 q 470 240 470 226 l 470 260 q 468 339 470 304 q 451 398 465 373 q 410 438 438 424 q 330 451 382 451 q 201 420 247 451 q 155 309 155 389 m 365 1035 q 374 1017 365 1031 q 398 983 384 1003 q 426 938 411 962 q 455 895 441 915 q 478 860 469 875 q 488 844 488 845 q 490 829 486 835 q 497 819 493 823 q 506 808 502 814 q 510 795 510 802 l 490 764 q 457 757 477 748 q 415 782 438 766 q 373 817 392 799 q 345 842 354 835 l 149 977 l 210 1064 q 244 1056 219 1054 q 296 1062 269 1059 q 344 1060 323 1064 q 365 1035 365 1056 z "},"":{"ha":712,"x_min":14,"x_max":696,"o":"m 14 179 q 60 345 14 274 q 177 464 106 417 q 335 534 248 510 q 503 557 422 557 l 523 557 q 556 556 538 557 q 587 556 573 556 l 608 556 q 619 464 615 510 q 628 374 623 418 q 640 284 632 330 q 660 191 648 238 q 665 181 660 189 q 677 165 670 174 q 689 148 684 156 q 694 139 694 141 q 695 127 694 137 q 696 111 696 116 q 684 64 696 83 q 653 34 672 45 q 610 17 634 23 q 564 12 587 12 q 552 12 559 12 q 534 13 543 12 q 516 16 524 14 q 503 17 509 17 q 483 58 495 45 q 441 71 470 71 q 398 60 420 71 q 350 35 377 49 q 288 10 323 21 q 208 -2 253 -2 q 65 39 116 -2 q 14 179 14 80 m 155 309 q 169 247 155 273 q 207 203 184 222 q 253 166 229 184 q 295 122 278 148 q 308 122 300 122 q 325 122 316 122 q 343 121 335 122 q 356 120 351 120 q 418 123 387 120 q 469 156 450 127 l 469 175 q 470 208 469 191 q 470 240 470 226 l 470 260 q 468 339 470 304 q 451 398 465 373 q 410 438 438 424 q 330 451 382 451 q 201 420 247 451 q 155 309 155 389 m 382 1010 q 403 1036 382 1031 q 451 1038 424 1040 q 503 1034 477 1036 q 538 1040 528 1031 l 597 955 l 401 818 q 372 796 392 811 q 330 768 352 781 q 286 750 307 755 q 253 760 266 745 l 233 790 q 238 800 233 799 q 248 805 243 802 q 257 809 253 807 q 260 819 260 811 q 279 852 260 823 q 320 914 297 880 q 363 977 344 948 q 382 1010 382 1007 z "},"":{"ha":712,"x_min":14,"x_max":696,"o":"m 14 179 q 60 345 14 274 q 177 464 106 417 q 335 534 248 510 q 503 557 422 557 l 523 557 q 556 556 538 557 q 587 556 573 556 l 608 556 q 619 464 615 510 q 628 374 623 418 q 640 284 632 330 q 660 191 648 238 q 665 181 660 189 q 677 165 670 174 q 689 148 684 156 q 694 139 694 141 q 695 127 694 137 q 696 111 696 116 q 684 64 696 83 q 653 34 672 45 q 610 17 634 23 q 564 12 587 12 q 552 12 559 12 q 534 13 543 12 q 516 16 524 14 q 503 17 509 17 q 483 58 495 45 q 441 71 470 71 q 398 60 420 71 q 350 35 377 49 q 288 10 323 21 q 208 -2 253 -2 q 65 39 116 -2 q 14 179 14 80 m 155 309 q 169 247 155 273 q 207 203 184 222 q 253 166 229 184 q 295 122 278 148 q 308 122 300 122 q 325 122 316 122 q 343 121 335 122 q 356 120 351 120 q 418 123 387 120 q 469 156 450 127 l 469 175 q 470 208 469 191 q 470 240 470 226 l 470 260 q 468 339 470 304 q 451 398 465 373 q 410 438 438 424 q 330 451 382 451 q 201 420 247 451 q 155 309 155 389 m 642 833 q 628 810 642 823 q 594 786 615 797 q 554 767 573 774 q 526 760 535 760 q 499 778 516 760 q 462 823 483 795 q 418 882 441 851 q 374 938 396 913 q 332 978 352 964 q 297 990 313 993 q 260 966 273 983 q 243 930 247 950 q 240 889 240 910 q 240 854 240 868 l 240 844 q 240 830 240 837 q 241 818 241 823 l 241 813 l 281 781 q 258 759 274 771 q 222 735 241 747 q 182 716 203 724 q 142 708 161 708 q 118 716 127 708 q 105 734 109 724 q 101 755 101 745 q 101 776 101 767 q 115 819 101 790 q 149 882 128 847 q 198 952 170 917 q 256 1016 226 988 q 315 1064 286 1045 q 365 1083 344 1083 q 461 1067 425 1083 q 519 1023 497 1050 q 559 964 542 997 q 602 896 576 931 q 628 866 615 880 q 642 833 642 852 z "},"":{"ha":712,"x_min":14,"x_max":696,"o":"m 14 179 q 60 345 14 274 q 177 464 106 417 q 335 534 248 510 q 503 557 422 557 l 523 557 q 556 556 538 557 q 587 556 573 556 l 608 556 q 619 464 615 510 q 628 374 623 418 q 640 284 632 330 q 660 191 648 238 q 665 181 660 189 q 677 165 670 174 q 689 148 684 156 q 694 139 694 141 q 695 127 694 137 q 696 111 696 116 q 684 64 696 83 q 653 34 672 45 q 610 17 634 23 q 564 12 587 12 q 552 12 559 12 q 534 13 543 12 q 516 16 524 14 q 503 17 509 17 q 483 58 495 45 q 441 71 470 71 q 398 60 420 71 q 350 35 377 49 q 288 10 323 21 q 208 -2 253 -2 q 65 39 116 -2 q 14 179 14 80 m 155 309 q 169 247 155 273 q 207 203 184 222 q 253 166 229 184 q 295 122 278 148 q 308 122 300 122 q 325 122 316 122 q 343 121 335 122 q 356 120 351 120 q 418 123 387 120 q 469 156 450 127 l 469 175 q 470 208 469 191 q 470 240 470 226 l 470 260 q 468 339 470 304 q 451 398 465 373 q 410 438 438 424 q 330 451 382 451 q 201 420 247 451 q 155 309 155 389 m 137 802 q 150 865 137 840 q 184 913 163 891 q 293 962 226 962 q 408 924 335 962 l 406 924 q 435 911 424 917 q 451 906 446 906 q 468 905 460 906 q 489 907 476 903 q 522 927 502 911 q 573 979 542 943 l 608 944 q 594 850 608 884 q 559 801 580 816 q 510 784 538 786 q 448 781 481 781 q 333 823 399 781 q 288 842 302 842 q 273 838 280 842 q 260 826 267 833 q 225 801 245 814 q 168 781 205 788 l 137 802 z "},"":{"ha":712,"x_min":14,"x_max":696,"o":"m 14 179 q 60 345 14 274 q 177 464 106 417 q 335 534 248 510 q 503 557 422 557 l 523 557 q 556 556 538 557 q 587 556 573 556 l 608 556 q 619 464 615 510 q 628 374 623 418 q 640 284 632 330 q 660 191 648 238 q 665 181 660 189 q 677 165 670 174 q 689 148 684 156 q 694 139 694 141 q 695 127 694 137 q 696 111 696 116 q 684 64 696 83 q 653 34 672 45 q 610 17 634 23 q 564 12 587 12 q 552 12 559 12 q 534 13 543 12 q 516 16 524 14 q 503 17 509 17 q 483 58 495 45 q 441 71 470 71 q 398 60 420 71 q 350 35 377 49 q 288 10 323 21 q 208 -2 253 -2 q 65 39 116 -2 q 14 179 14 80 m 155 309 q 169 247 155 273 q 207 203 184 222 q 253 166 229 184 q 295 122 278 148 q 308 122 300 122 q 325 122 316 122 q 343 121 335 122 q 356 120 351 120 q 418 123 387 120 q 469 156 450 127 l 469 175 q 470 208 469 191 q 470 240 470 226 l 470 260 q 468 339 470 304 q 451 398 465 373 q 410 438 438 424 q 330 451 382 451 q 201 420 247 451 q 155 309 155 389 m 101 851 q 115 896 101 872 q 154 938 130 920 q 203 970 177 957 q 250 983 229 983 q 287 969 280 983 q 295 931 295 955 q 285 883 295 908 q 257 837 274 858 q 217 802 240 816 q 170 788 194 788 q 149 792 156 788 q 135 801 142 795 q 122 818 128 807 q 102 844 115 828 q 102 845 102 844 q 101 851 101 847 m 420 852 q 435 897 420 873 q 473 939 450 920 q 523 970 497 958 q 569 983 549 983 q 607 970 599 983 q 615 932 615 957 q 604 885 615 910 q 576 839 594 859 q 536 804 559 818 q 490 790 514 790 q 469 793 476 790 q 455 802 462 795 q 441 819 448 809 q 422 844 434 830 q 421 846 422 844 q 420 852 420 849 z "},"":{"ha":712,"x_min":14,"x_max":696,"o":"m 14 179 q 60 345 14 274 q 177 464 106 417 q 335 534 248 510 q 503 557 422 557 l 523 557 l 587 557 l 608 556 q 619 464 615 510 q 628 374 623 418 q 640 284 632 330 q 660 191 648 238 q 665 181 660 189 q 677 165 670 174 q 689 148 684 156 q 694 139 694 141 q 695 127 694 137 q 696 111 696 116 q 684 64 696 83 q 653 34 672 45 q 610 17 634 23 q 564 12 587 12 q 552 12 559 12 q 534 13 543 12 q 516 16 524 14 q 503 17 509 17 q 483 58 495 45 q 441 71 470 71 q 398 60 420 71 q 350 35 377 49 q 288 10 323 21 q 208 -2 253 -2 q 65 39 116 -2 q 14 179 14 80 m 155 309 q 169 247 155 273 q 207 203 184 222 q 253 166 229 184 q 295 122 278 148 l 356 120 l 365 120 q 422 124 394 120 q 469 156 450 128 l 469 175 l 469 240 l 470 260 q 468 339 470 304 q 451 398 465 373 q 410 438 438 424 q 330 451 382 451 q 201 420 247 451 q 155 309 155 389 m 507 806 q 470 769 491 780 q 424 757 448 759 l 344 753 q 312 761 325 753 q 281 781 299 769 q 235 814 253 797 q 206 855 217 832 q 189 909 194 878 q 184 981 184 939 q 195 1027 184 1003 q 223 1069 207 1050 q 258 1100 240 1087 q 292 1113 276 1113 q 385 1095 342 1113 q 460 1044 427 1078 q 511 960 493 1010 q 530 845 530 910 l 507 806 m 424 955 l 424 965 q 423 995 424 986 q 418 1005 422 1003 q 405 1007 413 1007 q 377 1010 394 1007 q 337 1019 356 1017 q 305 1013 318 1021 q 283 987 292 1005 q 274 934 274 969 q 285 886 274 901 q 302 863 295 872 q 338 841 313 856 q 382 826 363 826 q 415 850 406 830 q 424 905 424 870 l 424 955 z "},"":{"ha":983,"x_min":14,"x_max":948,"o":"m 14 179 q 65 39 14 80 q 208 -2 116 -2 q 288 10 253 -2 q 350 35 323 21 q 398 60 377 49 q 441 71 420 71 q 466 63 455 71 q 485 42 477 54 q 499 14 493 30 q 510 -16 505 -2 q 535 -20 517 -17 q 559 -23 552 -23 q 566 -16 563 -23 q 573 -4 569 -10 q 580 8 576 2 q 587 14 583 14 q 705 -7 632 -7 q 767 0 734 -7 q 832 21 800 7 q 889 54 863 35 q 934 99 915 73 q 944 126 941 109 q 948 142 948 142 l 795 142 q 780 161 783 142 q 776 191 776 179 l 776 203 q 807 269 780 227 q 863 352 835 311 q 913 444 891 394 q 936 542 936 493 q 935 568 936 554 q 918 585 934 582 q 903 586 913 585 q 882 587 892 587 q 862 588 872 587 q 849 589 852 589 q 726 556 785 589 q 618 472 667 524 q 613 514 615 493 q 608 556 611 535 l 587 556 q 556 556 573 556 q 523 557 538 557 l 503 557 q 335 534 422 557 q 177 464 248 510 q 60 345 106 417 q 14 179 14 274 m 155 309 q 201 420 155 389 q 330 451 247 451 q 410 438 382 451 q 451 398 438 424 q 468 339 465 373 q 470 260 470 304 l 470 240 q 470 208 470 226 q 469 175 469 191 l 469 156 q 418 123 450 127 q 356 120 387 120 q 343 121 351 120 q 325 122 335 122 q 308 122 316 122 q 295 122 300 122 q 253 166 278 148 q 207 203 229 184 q 169 247 184 222 q 155 309 155 273 m 637 359 q 640 412 637 389 q 656 464 642 436 q 680 465 663 464 q 700 467 696 467 q 764 446 747 467 q 781 380 781 425 q 778 339 781 359 q 767 299 774 318 q 747 263 760 280 q 710 238 733 247 q 675 245 689 229 q 653 283 661 260 q 641 329 644 306 q 637 359 637 352 z "}}}
